<svg viewBox="0 0 32 28" fill="none" xmlns="http://www.w3.org/2000/svg" x="0" y="0"><g id="Vector_2">
<path d="M10.437,12.256c-0.002,1.441 0.279,2.869 0.826,4.202c0.546,1.33 1.349,2.537 2.364,3.551c0.138,0.142 0.289,0.27 0.453,0.382c0.28,0.201 0.593,0.355 0.923,0.456c0.149,0.048 0.304,0.08 0.453,0.113c0.354,0.048 0.712,0.048 1.067,0c0.149,-0.033 0.304,-0.064 0.453,-0.113c0.33,-0.101 0.641,-0.255 0.923,-0.456c0.162,-0.112 0.314,-0.24 0.453,-0.382c2.048,-2.054 3.199,-4.844 3.2,-7.753c0.003,-2.578 -0.799,-5.092 -2.294,-7.185c-0.209,-0.29 -0.428,-0.569 -0.656,-0.838l0.001,0.001c-0.816,-0.947 -1.512,-1.993 -2.07,-3.113l-0.533,-1.121l-0.534,1.121c-0.562,1.121 -1.26,2.167 -2.08,3.113c-0.227,0.269 -0.446,0.547 -0.656,0.838v-0.001c-1.494,2.094 -2.297,4.607 -2.293,7.185z" fill="currentColor"/>
<path d="M4.463,16.731c0.749,0.898 1.618,1.688 2.583,2.346c0.239,0.161 0.475,0.311 0.725,0.45c1.239,0.722 2.607,1.19 4.026,1.379c-0.559,-0.307 -1.094,-0.657 -1.6,-1.046c-1.28,-0.991 -2.353,-2.222 -3.163,-3.628c-1.195,-2.092 -1.825,-4.461 -1.829,-6.874c0,-0.332 0,-0.676 0.043,-1.014l-0.282,0.048v0.001c-1.231,0.233 -2.485,0.31 -3.734,0.23l-1.232,-0.07l0.677,1.03c0.687,1.043 1.244,2.166 1.659,3.344c0.482,1.384 1.202,2.671 2.127,3.804z" fill="currentColor"/>
<path d="M10.719,18.491c-0.281,-0.481 -0.531,-0.981 -0.746,-1.497c-0.609,-1.504 -0.916,-3.113 -0.907,-4.738c-0.012,-2.768 0.82,-5.472 2.385,-7.748l-0.107,-0.043h-0.001c-1.179,-0.415 -2.302,-0.975 -3.343,-1.67l-1.067,-0.681l0.08,1.235c0,0.3 0.027,0.595 0.027,0.896h-0.001c0,0.958 -0.089,1.913 -0.266,2.855c-0.07,0.364 -0.118,0.734 -0.161,1.1c-0.042,0.365 -0.048,0.772 -0.048,1.159l0.001,-0.001c0.002,2.168 0.569,4.297 1.643,6.176c0.656,1.128 1.506,2.13 2.511,2.957z" fill="currentColor"/>
<path d="M30.773,8.634c-1.249,0.08 -2.503,0.002 -3.734,-0.231l-0.282,-0.048c0,0.339 0.043,0.681 0.043,1.015v-0.001c-0.004,2.412 -0.634,4.782 -1.829,6.874c-0.81,1.405 -1.884,2.638 -3.163,3.627c-0.506,0.39 -1.041,0.739 -1.6,1.047c1.419,-0.19 2.788,-0.658 4.026,-1.379c0.252,-0.139 0.486,-0.289 0.725,-0.451h0.002c0.963,-0.658 1.832,-1.447 2.581,-2.345c0.925,-1.126 1.647,-2.407 2.133,-3.783c0.414,-1.185 0.971,-2.316 1.658,-3.365l0.667,-1.041z" fill="currentColor"/>
<path d="M22.933,12.256c0.012,2.189 -0.558,4.343 -1.653,6.235c0.997,-0.829 1.84,-1.83 2.49,-2.957c1.073,-1.879 1.64,-4.009 1.643,-6.176c0,-0.387 0,-0.778 -0.048,-1.159c-0.048,-0.382 -0.091,-0.735 -0.16,-1.101v0.001c-0.176,-0.941 -0.266,-1.897 -0.267,-2.855c0,-0.301 0,-0.595 0.027,-0.896l0.101,-1.234l-1.066,0.681c-1.042,0.695 -2.165,1.254 -3.344,1.669l-0.106,0.043h-0.001c1.555,2.281 2.386,4.983 2.384,7.749z" fill="currentColor"/>
<path d="M13.215,22.398c-2.155,-0.001 -4.272,-0.572 -6.138,-1.658c-0.486,-0.276 -0.95,-0.586 -1.392,-0.929c-1.397,0.865 -2.619,1.989 -3.6,3.311l3.638,1.041c2.124,0.618 4.399,0.437 6.4,-0.509c0.197,-0.091 0.384,-0.188 0.57,-0.296c0.494,-0.278 0.962,-0.601 1.397,-0.965c-0.287,0 -0.581,0.005 -0.875,0.005z" fill="currentColor"/>
<path d="M26.314,19.811c-0.443,0.34 -0.908,0.65 -1.392,0.929c-1.865,1.086 -3.983,1.657 -6.138,1.658h-0.87c0.436,0.364 0.903,0.687 1.398,0.965c0.186,0.107 0.373,0.205 0.571,0.296h-0.001c2.001,0.946 4.276,1.127 6.4,0.509l3.632,-1.046c-0.981,-1.322 -2.203,-2.446 -3.6,-3.311z" fill="currentColor"/>
<path d="M16,22.467c-0.827,0.901 -1.801,1.652 -2.881,2.222c0.59,1.381 1.597,2.541 2.881,3.311c1.28,-0.771 2.287,-1.927 2.88,-3.305c-1.083,-0.566 -2.058,-1.32 -2.88,-2.228z" fill="currentColor"/>
</g></svg>