<svg width="138" height="15" viewBox="0 0 138 15" fill="none" xmlns="http://www.w3.org/2000/svg">
<path d="M137.707 8.07112C138.098 7.6806 138.098 7.04743 137.707 6.65691L131.343 0.292946C130.953 -0.0975785 130.319 -0.0975785 129.929 0.292946C129.538 0.68347 129.538 1.31664 129.929 1.70716L135.586 7.36401L129.929 13.0209C129.538 13.4114 129.538 14.0446 129.929 14.4351C130.319 14.8256 130.953 14.8256 131.343 14.4351L137.707 8.07112ZM0 7.36401V8.36401H2.01471V7.36401V6.36401H0V7.36401ZM6.04412 7.36401V8.36401H10.0735V7.36401V6.36401H6.04412V7.36401ZM14.1029 7.36401V8.36401H18.1324V7.36401V6.36401H14.1029V7.36401ZM22.1618 7.36401V8.36401H26.1912V7.36401V6.36401H22.1618V7.36401ZM30.2206 7.36401V8.36401H34.25V7.36401V6.36401H30.2206V7.36401ZM38.2794 7.36401V8.36401H42.3088V7.36401V6.36401H38.2794V7.36401ZM46.3382 7.36401V8.36401H50.3676V7.36401V6.36401H46.3382V7.36401ZM54.3971 7.36401V8.36401H58.4265V7.36401V6.36401H54.3971V7.36401ZM62.4559 7.36401V8.36401H66.4853V7.36401V6.36401H62.4559V7.36401ZM70.5147 7.36401V8.36401H74.5441V7.36401V6.36401H70.5147V7.36401ZM78.5735 7.36401V8.36401H82.6029V7.36401V6.36401H78.5735V7.36401ZM86.6323 7.36401V8.36401H90.6618V7.36401V6.36401H86.6323V7.36401ZM94.6912 7.36401V8.36401H98.7206V7.36401V6.36401H94.6912V7.36401ZM102.75 7.36401V8.36401H106.779V7.36401V6.36401H102.75V7.36401ZM110.809 7.36401V8.36401H114.838V7.36401V6.36401H110.809V7.36401ZM118.868 7.36401V8.36401H122.897V7.36401V6.36401H118.868V7.36401ZM126.926 7.36401V8.36401H130.956V7.36401V6.36401H126.926V7.36401ZM134.985 7.36401V8.36401H137V7.36401V6.36401H134.985V7.36401ZM137.707 8.07112C138.098 7.6806 138.098 7.04743 137.707 6.65691L131.343 0.292946C130.953 -0.0975785 130.319 -0.0975785 129.929 0.292946C129.538 0.68347 129.538 1.31664 129.929 1.70716L135.586 7.36401L129.929 13.0209C129.538 13.4114 129.538 14.0446 129.929 14.4351C130.319 14.8256 130.953 14.8256 131.343 14.4351L137.707 8.07112ZM0 7.36401V8.36401H2.01471V7.36401V6.36401H0V7.36401ZM6.04412 7.36401V8.36401H10.0735V7.36401V6.36401H6.04412V7.36401ZM14.1029 7.36401V8.36401H18.1324V7.36401V6.36401H14.1029V7.36401ZM22.1618 7.36401V8.36401H26.1912V7.36401V6.36401H22.1618V7.36401ZM30.2206 7.36401V8.36401H34.25V7.36401V6.36401H30.2206V7.36401ZM38.2794 7.36401V8.36401H42.3088V7.36401V6.36401H38.2794V7.36401ZM46.3382 7.36401V8.36401H50.3676V7.36401V6.36401H46.3382V7.36401ZM54.3971 7.36401V8.36401H58.4265V7.36401V6.36401H54.3971V7.36401ZM62.4559 7.36401V8.36401H66.4853V7.36401V6.36401H62.4559V7.36401ZM70.5147 7.36401V8.36401H74.5441V7.36401V6.36401H70.5147V7.36401ZM78.5735 7.36401V8.36401H82.6029V7.36401V6.36401H78.5735V7.36401ZM86.6323 7.36401V8.36401H90.6618V7.36401V6.36401H86.6323V7.36401ZM94.6912 7.36401V8.36401H98.7206V7.36401V6.36401H94.6912V7.36401ZM102.75 7.36401V8.36401H106.779V7.36401V6.36401H102.75V7.36401ZM110.809 7.36401V8.36401H114.838V7.36401V6.36401H110.809V7.36401ZM118.868 7.36401V8.36401H122.897V7.36401V6.36401H118.868V7.36401ZM126.926 7.36401V8.36401H130.956V7.36401V6.36401H126.926V7.36401ZM134.985 7.36401V8.36401H137V7.36401V6.36401H134.985V7.36401Z" fill="#374151"/>
</svg>
