<svg viewBox="0 0 8 7.3333" fill="none" xmlns="http://www.w3.org/2000/svg" xmlns:xlink="http://www.w3.org/1999/xlink" x="0" y="0"><g id="Vector">
<path d="M1.6883,2.5756h-1.2662c-0.112,0 -0.2193,0.042 -0.2985,0.116c-0.0791,0.075 -0.1236,0.175 -0.1236,0.281v3.568c0,0.21 0.0889,0.412 0.2472,0.56c0.1583,0.149 0.3731,0.233 0.5969,0.233h0.4221c0.2239,0 0.4386,-0.084 0.5969,-0.233c0.1583,-0.148 0.2472,-0.35 0.2472,-0.56v-3.568c0,-0.106 -0.0444,-0.206 -0.1236,-0.281c-0.0791,-0.074 -0.1865,-0.116 -0.2984,-0.116z" fill="currentColor"/>
<path d="M7.1558,2.5756h-1.6689l0.6576,-1.784c0.0216,-0.163 -0.0183,-0.328 -0.1128,-0.467c-0.0944,-0.138 -0.2375,-0.242 -0.4044,-0.291c-0.1669,-0.05 -0.3471,-0.044 -0.5094,0.018c-0.1623,0.062 -0.2965,0.175 -0.3793,0.32c-0.4879,0.782 -1.0882,1.497 -1.7841,2.125v3.8h0.0481c0.8901,0.231 2.0686,0.64 3.1596,0.64c0.5909,0 0.6719,-0.208 0.7935,-0.522l0.9936,-2.775c0.0463,-0.12 0.0612,-0.248 0.0434,-0.375c-0.0177,-0.126 -0.0677,-0.247 -0.1455,-0.351c-0.0779,-0.104 -0.1814,-0.189 -0.3017,-0.248c-0.1204,-0.059 -0.2541,-0.09 -0.3897,-0.09z" fill="currentColor"/>
</g></svg>