<svg width="48" height="48" viewBox="0 0 48 48" fill="none" xmlns="http://www.w3.org/2000/svg">
<path d="M0 24C0 10.7452 10.7452 0 24 0C37.2548 0 48 10.7452 48 24C48 37.2548 37.2548 48 24 48C10.7452 48 0 37.2548 0 24Z" fill="#D80ADA"/>
<path d="M35.1891 20.3562H33.8435C33.4052 20.3562 33.0614 20.0722 32.9669 19.6303C32.9353 19.4098 32.9038 19.1884 32.8418 18.9997C32.7482 18.5896 32.9669 18.1795 33.3737 18.0216L34.6257 17.5171C35.001 17.3592 35.1891 16.9174 35.0325 16.5072C34.8759 16.1289 34.4376 15.9392 34.0307 16.0971L32.7787 16.6016C32.4034 16.7595 31.9336 16.6333 31.7149 16.2858C31.5898 16.0962 31.4962 15.9075 31.3711 15.7496C31.1209 15.403 31.1829 14.9294 31.4962 14.6453L32.4665 13.6672C32.7482 13.3832 32.7482 12.8788 32.4665 12.5947C32.1848 12.3107 31.6843 12.3107 31.4026 12.5947L30.4323 13.5729C30.1506 13.8569 29.6817 13.9194 29.3369 13.699C29.1488 13.5729 28.9931 13.4468 28.805 13.3524C28.4612 13.132 28.3046 12.6583 28.4918 12.2799L29.0237 11.0178C29.1488 10.5451 28.9616 10.1033 28.5863 9.94536C28.1795 9.78747 27.7412 9.97713 27.5845 10.3555L27.0526 11.6176C26.896 11.996 26.4891 12.2482 26.0823 12.1538C25.8636 12.1221 25.6755 12.0595 25.4568 12.0277C25.0499 11.9642 24.7367 11.5858 24.7367 11.1757V9.75669C24.7367 9.34656 24.3929 9 23.9861 9C23.5793 9 23.2355 9.34656 23.2355 9.75669V11.1449C23.2355 11.555 22.9538 11.9334 22.5154 11.9969C22.2967 12.0287 22.1086 12.0605 21.8899 12.123C21.4831 12.2174 21.0763 11.9969 20.9196 11.5868L20.3877 10.2939C20.2311 9.91551 19.7927 9.72586 19.3859 9.88374C19.0106 10.0416 18.8224 10.4835 18.9791 10.8936L19.511 12.1866C19.6676 12.5649 19.5425 13.0386 19.1978 13.259C19.0096 13.3852 18.854 13.4795 18.6658 13.6056C18.322 13.8578 17.8522 13.7953 17.5704 13.5113L16.6002 12.5331C16.3185 12.2174 15.818 12.2174 15.5363 12.5331C15.2546 12.8171 15.2546 13.3216 15.5363 13.6056L16.5381 14.5837C16.8198 14.8677 16.8819 15.3722 16.6317 15.7197C16.5066 15.8776 16.3815 16.0663 16.2879 16.2242C16.0692 16.5708 15.5993 16.7287 15.224 16.54L13.9415 16.0037C13.5662 15.8458 13.1278 16.0355 12.9397 16.4138C12.7831 16.7922 12.9712 17.2341 13.3465 17.4237L14.6291 17.96C15.0044 18.1179 15.2546 18.528 15.161 18.9699C15.1295 19.1903 15.0674 19.38 15.0359 19.6005C14.9729 20.0106 14.5975 20.3263 14.1592 20.3263H12.7506C12.3438 20.3263 12 20.6729 12 21.083C12 21.4932 12.3438 21.8397 12.7506 21.8397H14.1277C14.5661 21.8397 14.9098 22.1237 15.0044 22.5656C15.0359 22.7861 15.0674 22.9757 15.1295 23.1962C15.2231 23.6063 15.0044 24.0164 14.5976 24.1743L13.315 24.7105C12.9397 24.8684 12.7516 25.3103 12.9082 25.7204C13.0333 26.0044 13.315 26.1941 13.5967 26.1941C13.6903 26.1941 13.7848 26.1941 13.8784 26.1306L15.161 25.5943C15.5363 25.4364 16.0061 25.5626 16.2248 25.9409C16.5686 26.5089 16.9755 27.0451 17.4453 27.5178L19.0096 25.3094C19.3849 24.7731 19.8863 24.2995 20.4488 24.0164C19.8232 23.228 19.447 22.2181 19.447 21.1457C19.447 18.6225 21.4811 16.54 24.0158 16.54C26.5504 16.54 28.5846 18.5906 28.5846 21.1457C28.5846 22.25 28.2092 23.2281 27.5828 24.0164C28.1462 24.3004 28.6466 24.7731 29.0219 25.3094L30.5862 27.5178C31.0245 27.0441 31.4313 26.5397 31.7752 26.0035C31.9938 25.6569 32.4637 25.499 32.839 25.6877L34.091 26.1922C34.1846 26.2239 34.2792 26.2557 34.3727 26.2557C34.6544 26.2557 34.9362 26.0661 35.0613 25.7821C35.2179 25.4037 35.0298 24.9301 34.6544 24.7722L33.434 24.2677C33.0586 24.1098 32.8084 23.6997 32.902 23.2578C32.9335 23.0373 32.9956 22.8159 33.0271 22.6272C33.0902 22.2171 33.4655 21.9013 33.9038 21.9013H35.2494C35.6562 21.9013 36 21.5548 36 21.1446C35.9398 20.7027 35.5959 20.3562 35.1891 20.3562Z" fill="white"/>
<path d="M33.1868 30.8295L30.2771 29.3152C29.9333 29.1255 29.62 28.8733 29.4004 28.5585L27.711 26.1613C27.3357 25.6569 26.8038 25.2776 26.2088 25.0888C25.5518 25.4672 24.7697 25.6886 23.956 25.6886C23.1424 25.6886 22.3602 25.4682 21.7032 25.0888C21.1082 25.2785 20.5763 25.6569 20.201 26.1613L18.5116 28.5585C18.2929 28.8742 17.9797 29.1265 17.6349 29.3152L14.7252 30.8295C14.0681 31.1761 13.7864 31.9963 14.1302 32.6904C14.474 33.3528 15.3192 33.6368 15.9762 33.2902L18.886 31.7759C19.606 31.3975 20.2316 30.8295 20.732 30.1672L20.7635 30.1037V33.4163L16.2568 35.7508C15.5062 36.1292 15.1614 37.013 15.4116 37.8332C15.6618 38.5591 16.2883 39 17.0074 39C17.101 39 17.2261 39 17.3206 38.9682L22.828 37.9901C23.548 37.864 24.2672 37.864 24.9872 37.9901L30.4946 38.9682C30.5881 39 30.6827 39 30.8078 39C31.5278 39 32.1849 38.5263 32.4036 37.8332C32.6853 37.013 32.3405 36.1609 31.5584 35.7508L27.0517 33.4163L27.0527 30.0719L27.0842 30.1354C27.554 30.7977 28.1796 31.3658 28.9302 31.7441L31.8399 33.2584C32.0586 33.3528 32.2468 33.4163 32.4655 33.4163C32.9659 33.4163 33.4357 33.1641 33.6859 32.6596C34.1252 31.9963 33.8435 31.1761 33.1865 30.8295L33.1868 30.8295Z" fill="white"/>
<path d="M27.0219 21.0813C27.0219 22.7718 25.6629 24.1417 23.9869 24.1417C22.3099 24.1417 20.951 22.7718 20.951 21.0813C20.951 19.3917 22.3099 18.0218 23.9869 18.0218C25.6629 18.0218 27.0219 19.3917 27.0219 21.0813Z" fill="white"/>
</svg>
