<svg width="138" height="15" viewBox="0 0 138 15" fill="none" xmlns="http://www.w3.org/2000/svg">
<path d="M137.707 8.07106C138.098 7.68054 138.098 7.04737 137.707 6.65685L131.343 0.292885C130.953 -0.0976396 130.319 -0.0976396 129.929 0.292885C129.538 0.683409 129.538 1.31657 129.929 1.7071L135.586 7.36395L129.929 13.0208C129.538 13.4113 129.538 14.0445 129.929 14.435C130.319 14.8255 130.953 14.8255 131.343 14.435L137.707 8.07106ZM0 7.36395V8.36395H2.01471V7.36395V6.36395H0V7.36395ZM6.04412 7.36395V8.36395H10.0735V7.36395V6.36395H6.04412V7.36395ZM14.1029 7.36395V8.36395H18.1324V7.36395V6.36395H14.1029V7.36395ZM22.1618 7.36395V8.36395H26.1912V7.36395V6.36395H22.1618V7.36395ZM30.2206 7.36395V8.36395H34.25V7.36395V6.36395H30.2206V7.36395ZM38.2794 7.36395V8.36395H42.3088V7.36395V6.36395H38.2794V7.36395ZM46.3382 7.36395V8.36395H50.3676V7.36395V6.36395H46.3382V7.36395ZM54.3971 7.36395V8.36395H58.4265V7.36395V6.36395H54.3971V7.36395ZM62.4559 7.36395V8.36395H66.4853V7.36395V6.36395H62.4559V7.36395ZM70.5147 7.36395V8.36395H74.5441V7.36395V6.36395H70.5147V7.36395ZM78.5735 7.36395V8.36395H82.6029V7.36395V6.36395H78.5735V7.36395ZM86.6323 7.36395V8.36395H90.6618V7.36395V6.36395H86.6323V7.36395ZM94.6912 7.36395V8.36395H98.7206V7.36395V6.36395H94.6912V7.36395ZM102.75 7.36395V8.36395H106.779V7.36395V6.36395H102.75V7.36395ZM110.809 7.36395V8.36395H114.838V7.36395V6.36395H110.809V7.36395ZM118.868 7.36395V8.36395H122.897V7.36395V6.36395H118.868V7.36395ZM126.926 7.36395V8.36395H130.956V7.36395V6.36395H126.926V7.36395ZM134.985 7.36395V8.36395H137V7.36395V6.36395H134.985V7.36395ZM137.707 8.07106C138.098 7.68054 138.098 7.04737 137.707 6.65685L131.343 0.292885C130.953 -0.0976396 130.319 -0.0976396 129.929 0.292885C129.538 0.683409 129.538 1.31657 129.929 1.7071L135.586 7.36395L129.929 13.0208C129.538 13.4113 129.538 14.0445 129.929 14.435C130.319 14.8255 130.953 14.8255 131.343 14.435L137.707 8.07106ZM0 7.36395V8.36395H2.01471V7.36395V6.36395H0V7.36395ZM6.04412 7.36395V8.36395H10.0735V7.36395V6.36395H6.04412V7.36395ZM14.1029 7.36395V8.36395H18.1324V7.36395V6.36395H14.1029V7.36395ZM22.1618 7.36395V8.36395H26.1912V7.36395V6.36395H22.1618V7.36395ZM30.2206 7.36395V8.36395H34.25V7.36395V6.36395H30.2206V7.36395ZM38.2794 7.36395V8.36395H42.3088V7.36395V6.36395H38.2794V7.36395ZM46.3382 7.36395V8.36395H50.3676V7.36395V6.36395H46.3382V7.36395ZM54.3971 7.36395V8.36395H58.4265V7.36395V6.36395H54.3971V7.36395ZM62.4559 7.36395V8.36395H66.4853V7.36395V6.36395H62.4559V7.36395ZM70.5147 7.36395V8.36395H74.5441V7.36395V6.36395H70.5147V7.36395ZM78.5735 7.36395V8.36395H82.6029V7.36395V6.36395H78.5735V7.36395ZM86.6323 7.36395V8.36395H90.6618V7.36395V6.36395H86.6323V7.36395ZM94.6912 7.36395V8.36395H98.7206V7.36395V6.36395H94.6912V7.36395ZM102.75 7.36395V8.36395H106.779V7.36395V6.36395H102.75V7.36395ZM110.809 7.36395V8.36395H114.838V7.36395V6.36395H110.809V7.36395ZM118.868 7.36395V8.36395H122.897V7.36395V6.36395H118.868V7.36395ZM126.926 7.36395V8.36395H130.956V7.36395V6.36395H126.926V7.36395ZM134.985 7.36395V8.36395H137V7.36395V6.36395H134.985V7.36395Z" fill="#374151"/>
</svg>
