<svg viewBox="0 0 11.1999 6.9912" fill="none" xmlns="http://www.w3.org/2000/svg" x="0" y="0"><path id="Vector" fill-rule="evenodd" clip-rule="evenodd" d="M7.3152,0.3001c0.131,-0.132 0.309,-0.205 0.495,-0.205c0.186,0 0.364,0.073 0.495,0.205l2.801,2.801c0.131,0.131 0.205,0.309 0.205,0.495c0,0.185 -0.074,0.363 -0.205,0.495l-2.801,2.801c-0.132,0.127 -0.309,0.198 -0.492,0.196c-0.184,-0.001 -0.36,-0.075 -0.489,-0.205c-0.13,-0.13 -0.204,-0.305 -0.205,-0.489c-0.002,-0.184 0.069,-0.36 0.196,-0.493l1.606,-1.605h-8.113c-0.186,0 -0.364,-0.074 -0.495,-0.205c-0.132,-0.132 -0.205,-0.31 -0.205,-0.495c0,-0.186 0.073,-0.364 0.205,-0.496c0.131,-0.131 0.309,-0.205 0.495,-0.205h8.113l-1.606,-1.605c-0.131,-0.132 -0.205,-0.31 -0.205,-0.495c0,-0.186 0.074,-0.364 0.205,-0.495z" fill="currentColor"/></svg>