<svg viewBox="0 0 14.4 24" fill="none" xmlns="http://www.w3.org/2000/svg" x="0" y="0"><path id="Vector_4" d="M7.6602,10.478c-1.242,-0.25 -2.332,-0.923 -3.051,-1.882c-0.115,-0.152 -0.195,-0.324 -0.236,-0.505c-0.04,-0.181 -0.04,-0.368 0.001,-0.549c0.354,-1.171 2.357,-1.823 4.293,-1.392c0.904,0.182 1.723,0.617 2.343,1.244c0.163,0.177 0.363,0.323 0.588,0.43c0.224,0.106 0.47,0.171 0.722,0.19c0.253,0.019 0.507,-0.008 0.748,-0.079c0.241,-0.07 0.464,-0.184 0.657,-0.334c0.192,-0.15 0.351,-0.334 0.466,-0.54c0.114,-0.206 0.184,-0.432 0.203,-0.662c0.02,-0.231 -0.011,-0.463 -0.09,-0.683c-0.079,-0.22 -0.205,-0.424 -0.37,-0.599c-1.144,-1.189 -2.666,-2.021 -4.353,-2.379c-0.102,-0.024 -0.202,-0.026 -0.304,-0.045v-0.937c0,-0.465 -0.203,-0.912 -0.563,-1.242c-0.36,-0.329 -0.848,-0.514 -1.357,-0.514c-0.51,0 -0.998,0.185 -1.358,0.514c-0.36,0.33 -0.563,0.777 -0.563,1.242v0.965c-1.103,0.194 -2.128,0.658 -2.967,1.342c-0.839,0.684 -1.459,1.563 -1.796,2.543c-0.179,0.634 -0.216,1.295 -0.109,1.942c0.108,0.647 0.357,1.268 0.733,1.825c1.239,1.784 3.199,3.047 5.453,3.513c1.242,0.25 2.333,0.925 3.05,1.885c0.116,0.152 0.196,0.323 0.237,0.505c0.041,0.181 0.041,0.368 0,0.549c-0.357,1.171 -2.36,1.82 -4.295,1.392c-0.912,-0.182 -1.738,-0.624 -2.359,-1.262c-0.328,-0.353 -0.796,-0.573 -1.301,-0.613c-0.505,-0.039 -1.006,0.106 -1.395,0.404c-0.388,0.298 -0.632,0.723 -0.679,1.185c-0.047,0.462 0.108,0.921 0.43,1.279c1.149,1.212 2.688,2.06 4.397,2.421c0.199,0.045 0.398,0.067 0.597,0.1v0.513c0,0.465 0.203,0.912 0.563,1.242c0.36,0.329 0.848,0.514 1.358,0.514c0.509,0 0.997,-0.185 1.358,-0.514c0.36,-0.33 0.562,-0.777 0.562,-1.242v-0.65c1.044,-0.229 2.005,-0.702 2.788,-1.374c0.783,-0.671 1.362,-1.518 1.678,-2.456c0.179,-0.634 0.216,-1.295 0.108,-1.942c-0.108,-0.647 -0.357,-1.268 -0.734,-1.825c-1.238,-1.786 -3.198,-3.051 -5.453,-3.519z" fill="#1A56DB"/></svg>