<svg width="145" height="54" viewBox="0 0 145 54" fill="none" xmlns="http://www.w3.org/2000/svg">
<rect width="145" height="54" rx="8" fill="#111928"/>
<path d="M23.0847 26.2583L25.755 23.5881L13.2492 16.3784L23.0847 26.2583ZM10.7125 15.7998C10.1339 16.1113 9.7334 16.6899 9.7334 17.402V37.0284C9.7334 37.7405 10.1339 38.319 10.7125 38.5861L22.1056 27.1929L10.7125 15.7998ZM29.6269 25.8578L27.0011 24.3447L24.0638 27.1929L27.0011 30.0857L29.6714 28.5726C30.4725 27.9495 30.4725 26.4809 29.6269 25.8578ZM13.2492 38.0075L25.755 30.8423L23.0847 28.172L13.2492 38.0075Z" fill="white"/>
<path d="M46.2207 22H43.5275V13.2727H46.34C47.1866 13.2727 47.911 13.4474 48.5133 13.7969C49.1156 14.1435 49.5772 14.642 49.8983 15.2926C50.2193 15.9403 50.3798 16.7159 50.3798 17.6193C50.3798 18.5284 50.2179 19.3111 49.894 19.9673C49.5701 20.6207 49.0985 21.1236 48.4792 21.4759C47.8599 21.8253 47.1071 22 46.2207 22ZM44.5843 21.0625H46.1525C46.8741 21.0625 47.4721 20.9233 47.9466 20.6449C48.421 20.3665 48.7747 19.9702 49.0076 19.456C49.2406 18.9418 49.3571 18.3295 49.3571 17.6193C49.3571 16.9148 49.242 16.3082 49.0119 15.7997C48.7818 15.2884 48.438 14.8963 47.9806 14.6236C47.5233 14.348 46.9537 14.2102 46.2718 14.2102H44.5843V21.0625ZM54.6752 22.1364C54.0843 22.1364 53.5659 21.9957 53.1199 21.7145C52.6767 21.4332 52.3301 21.0398 52.0801 20.5341C51.8329 20.0284 51.7093 19.4375 51.7093 18.7614C51.7093 18.0795 51.8329 17.4844 52.0801 16.9759C52.3301 16.4673 52.6767 16.0724 53.1199 15.7912C53.5659 15.5099 54.0843 15.3693 54.6752 15.3693C55.2662 15.3693 55.7832 15.5099 56.2264 15.7912C56.6724 16.0724 57.019 16.4673 57.2662 16.9759C57.5162 17.4844 57.6412 18.0795 57.6412 18.7614C57.6412 19.4375 57.5162 20.0284 57.2662 20.5341C57.019 21.0398 56.6724 21.4332 56.2264 21.7145C55.7832 21.9957 55.2662 22.1364 54.6752 22.1364ZM54.6752 21.233C55.1241 21.233 55.4934 21.1179 55.7832 20.8878C56.073 20.6577 56.2875 20.3551 56.4267 19.9801C56.5659 19.6051 56.6355 19.1989 56.6355 18.7614C56.6355 18.3239 56.5659 17.9162 56.4267 17.5384C56.2875 17.1605 56.073 16.8551 55.7832 16.6222C55.4934 16.3892 55.1241 16.2727 54.6752 16.2727C54.2264 16.2727 53.8571 16.3892 53.5673 16.6222C53.2775 16.8551 53.063 17.1605 52.9238 17.5384C52.7846 17.9162 52.715 18.3239 52.715 18.7614C52.715 19.1989 52.7846 19.6051 52.9238 19.9801C53.063 20.3551 53.2775 20.6577 53.5673 20.8878C53.8571 21.1179 54.2264 21.233 54.6752 21.233ZM60.4366 22L58.4423 15.4545H59.4991L60.9139 20.4659H60.9821L62.3798 15.4545H63.4537L64.8343 20.4489H64.9025L66.3173 15.4545H67.3741L65.3798 22H64.3912L62.9593 16.9716H62.8571L61.4252 22H60.4366ZM69.7093 18.0625V22H68.7037V15.4545H69.6752V16.4773H69.7605C69.9139 16.1449 70.1468 15.8778 70.4593 15.6761C70.7718 15.4716 71.1752 15.3693 71.6696 15.3693C72.1127 15.3693 72.5005 15.4602 72.8329 15.642C73.1653 15.821 73.4238 16.0938 73.6085 16.4602C73.7931 16.8239 73.8855 17.2841 73.8855 17.8409V22H72.8798V17.9091C72.8798 17.3949 72.7463 16.9943 72.4792 16.7074C72.2122 16.4176 71.8457 16.2727 71.3798 16.2727C71.0588 16.2727 70.7718 16.3423 70.519 16.4815C70.269 16.6207 70.0716 16.8239 69.9267 17.0909C69.7818 17.358 69.7093 17.6818 69.7093 18.0625ZM76.7289 13.2727V22H75.7232V13.2727H76.7289ZM81.2299 22.1364C80.639 22.1364 80.1206 21.9957 79.6745 21.7145C79.2314 21.4332 78.8848 21.0398 78.6348 20.5341C78.3876 20.0284 78.264 19.4375 78.264 18.7614C78.264 18.0795 78.3876 17.4844 78.6348 16.9759C78.8848 16.4673 79.2314 16.0724 79.6745 15.7912C80.1206 15.5099 80.639 15.3693 81.2299 15.3693C81.8208 15.3693 82.3379 15.5099 82.7811 15.7912C83.2271 16.0724 83.5737 16.4673 83.8208 16.9759C84.0708 17.4844 84.1958 18.0795 84.1958 18.7614C84.1958 19.4375 84.0708 20.0284 83.8208 20.5341C83.5737 21.0398 83.2271 21.4332 82.7811 21.7145C82.3379 21.9957 81.8208 22.1364 81.2299 22.1364ZM81.2299 21.233C81.6788 21.233 82.0481 21.1179 82.3379 20.8878C82.6277 20.6577 82.8422 20.3551 82.9814 19.9801C83.1206 19.6051 83.1902 19.1989 83.1902 18.7614C83.1902 18.3239 83.1206 17.9162 82.9814 17.5384C82.8422 17.1605 82.6277 16.8551 82.3379 16.6222C82.0481 16.3892 81.6788 16.2727 81.2299 16.2727C80.7811 16.2727 80.4118 16.3892 80.122 16.6222C79.8322 16.8551 79.6177 17.1605 79.4785 17.5384C79.3393 17.9162 79.2697 18.3239 79.2697 18.7614C79.2697 19.1989 79.3393 19.6051 79.4785 19.9801C79.6177 20.3551 79.8322 20.6577 80.122 20.8878C80.4118 21.1179 80.7811 21.233 81.2299 21.233ZM87.6571 22.1534C87.2424 22.1534 86.8659 22.0753 86.5279 21.919C86.1898 21.7599 85.9213 21.5312 85.7225 21.233C85.5236 20.9318 85.4242 20.5682 85.4242 20.142C85.4242 19.767 85.498 19.4631 85.6458 19.2301C85.7935 18.9943 85.9909 18.8097 86.2381 18.6761C86.4853 18.5426 86.758 18.4432 87.0563 18.3778C87.3574 18.3097 87.66 18.2557 87.964 18.2159C88.3617 18.1648 88.6841 18.1264 88.9313 18.1009C89.1813 18.0724 89.3631 18.0256 89.4767 17.9602C89.5932 17.8949 89.6515 17.7812 89.6515 17.6193V17.5852C89.6515 17.1648 89.5364 16.8381 89.3063 16.6051C89.079 16.3722 88.7338 16.2557 88.2708 16.2557C87.7907 16.2557 87.4142 16.3608 87.1415 16.571C86.8688 16.7812 86.677 17.0057 86.5662 17.2443L85.6117 16.9034C85.7821 16.5057 86.0094 16.196 86.2935 15.9744C86.5804 15.75 86.8929 15.5937 87.231 15.5057C87.5719 15.4148 87.9071 15.3693 88.2367 15.3693C88.4469 15.3693 88.6884 15.3949 88.9611 15.446C89.2367 15.4943 89.5023 15.5952 89.758 15.7486C90.0165 15.902 90.231 16.1335 90.4015 16.4432C90.5719 16.7528 90.6571 17.1676 90.6571 17.6875V22H89.6515V21.1136H89.6003C89.5321 21.2557 89.4185 21.4077 89.2594 21.5696C89.1003 21.7315 88.8887 21.8693 88.6245 21.983C88.3603 22.0966 88.0378 22.1534 87.6571 22.1534ZM87.8105 21.25C88.2083 21.25 88.5435 21.1719 88.8162 21.0156C89.0918 20.8594 89.2992 20.6577 89.4384 20.4105C89.5804 20.1634 89.6515 19.9034 89.6515 19.6307V18.7102C89.6088 18.7614 89.5151 18.8082 89.3702 18.8509C89.2282 18.8906 89.0634 18.9261 88.8759 18.9574C88.6912 18.9858 88.5108 19.0114 88.3347 19.0341C88.1614 19.054 88.0208 19.071 87.9128 19.0852C87.6515 19.1193 87.4071 19.1747 87.1799 19.2514C86.9554 19.3253 86.7736 19.4375 86.6344 19.5881C86.498 19.7358 86.4299 19.9375 86.4299 20.1932C86.4299 20.5426 86.5591 20.8068 86.8176 20.9858C87.079 21.1619 87.41 21.25 87.8105 21.25ZM94.9643 22.1364C94.4189 22.1364 93.9373 21.9986 93.5197 21.723C93.1021 21.4446 92.7754 21.0526 92.5396 20.5469C92.3038 20.0384 92.1859 19.4375 92.1859 18.7443C92.1859 18.0568 92.3038 17.4602 92.5396 16.9545C92.7754 16.4489 93.1035 16.0582 93.524 15.7827C93.9444 15.5071 94.4302 15.3693 94.9814 15.3693C95.4075 15.3693 95.7441 15.4403 95.9913 15.5824C96.2413 15.7216 96.4316 15.8807 96.5623 16.0597C96.6958 16.2358 96.7995 16.3807 96.8734 16.4943H96.9586V13.2727H97.9643V22H96.9927V20.9943H96.8734C96.7995 21.1136 96.6944 21.2642 96.5581 21.446C96.4217 21.625 96.2271 21.7855 95.9743 21.9276C95.7214 22.0668 95.3848 22.1364 94.9643 22.1364ZM95.1007 21.233C95.5041 21.233 95.845 21.1278 96.1234 20.9176C96.4018 20.7045 96.6135 20.4105 96.7583 20.0355C96.9032 19.6577 96.9757 19.2216 96.9757 18.7273C96.9757 18.2386 96.9047 17.8111 96.7626 17.4446C96.6206 17.0753 96.4103 16.7884 96.1319 16.5838C95.8535 16.3764 95.5098 16.2727 95.1007 16.2727C94.6745 16.2727 94.3194 16.3821 94.0353 16.6009C93.7541 16.8168 93.5424 17.1108 93.4004 17.483C93.2612 17.8523 93.1916 18.267 93.1916 18.7273C93.1916 19.1932 93.2626 19.6165 93.4047 19.9972C93.5495 20.375 93.7626 20.6761 94.0439 20.9006C94.3279 21.1222 94.6802 21.233 95.1007 21.233ZM105.98 22.1364C105.389 22.1364 104.871 21.9957 104.425 21.7145C103.981 21.4332 103.635 21.0398 103.385 20.5341C103.138 20.0284 103.014 19.4375 103.014 18.7614C103.014 18.0795 103.138 17.4844 103.385 16.9759C103.635 16.4673 103.981 16.0724 104.425 15.7912C104.871 15.5099 105.389 15.3693 105.98 15.3693C106.571 15.3693 107.088 15.5099 107.531 15.7912C107.977 16.0724 108.324 16.4673 108.571 16.9759C108.821 17.4844 108.946 18.0795 108.946 18.7614C108.946 19.4375 108.821 20.0284 108.571 20.5341C108.324 21.0398 107.977 21.4332 107.531 21.7145C107.088 21.9957 106.571 22.1364 105.98 22.1364ZM105.98 21.233C106.429 21.233 106.798 21.1179 107.088 20.8878C107.378 20.6577 107.592 20.3551 107.731 19.9801C107.871 19.6051 107.94 19.1989 107.94 18.7614C107.94 18.3239 107.871 17.9162 107.731 17.5384C107.592 17.1605 107.378 16.8551 107.088 16.6222C106.798 16.3892 106.429 16.2727 105.98 16.2727C105.531 16.2727 105.162 16.3892 104.872 16.6222C104.582 16.8551 104.368 17.1605 104.229 17.5384C104.089 17.9162 104.02 18.3239 104.02 18.7614C104.02 19.1989 104.089 19.6051 104.229 19.9801C104.368 20.3551 104.582 20.6577 104.872 20.8878C105.162 21.1179 105.531 21.233 105.98 21.233ZM111.487 18.0625V22H110.481V15.4545H111.453V16.4773H111.538C111.691 16.1449 111.924 15.8778 112.237 15.6761C112.549 15.4716 112.953 15.3693 113.447 15.3693C113.89 15.3693 114.278 15.4602 114.61 15.642C114.943 15.821 115.201 16.0938 115.386 16.4602C115.57 16.8239 115.663 17.2841 115.663 17.8409V22H114.657V17.9091C114.657 17.3949 114.524 16.9943 114.257 16.7074C113.99 16.4176 113.623 16.2727 113.157 16.2727C112.836 16.2727 112.549 16.3423 112.296 16.4815C112.046 16.6207 111.849 16.8239 111.704 17.0909C111.559 17.358 111.487 17.6818 111.487 18.0625ZM123.722 15.4545V16.3068H120.33V15.4545H123.722ZM121.319 13.8864H122.324V20.125C122.324 20.4091 122.366 20.6222 122.448 20.7642C122.533 20.9034 122.641 20.9972 122.772 21.0455C122.905 21.0909 123.046 21.1136 123.194 21.1136C123.305 21.1136 123.395 21.108 123.466 21.0966C123.537 21.0824 123.594 21.071 123.637 21.0625L123.841 21.9659C123.773 21.9915 123.678 22.017 123.556 22.0426C123.434 22.071 123.279 22.0852 123.091 22.0852C122.807 22.0852 122.529 22.0241 122.256 21.902C121.986 21.7798 121.762 21.5938 121.583 21.3438C121.407 21.0938 121.319 20.7784 121.319 20.3977V13.8864ZM126.381 18.0625V22H125.376V13.2727H126.381V16.4773H126.466C126.62 16.1392 126.85 15.8707 127.157 15.6719C127.466 15.4702 127.878 15.3693 128.393 15.3693C128.839 15.3693 129.229 15.4588 129.564 15.6378C129.9 15.8139 130.16 16.0852 130.344 16.4517C130.532 16.8153 130.626 17.2784 130.626 17.8409V22H129.62V17.9091C129.62 17.3892 129.485 16.9872 129.215 16.7031C128.948 16.4162 128.577 16.2727 128.103 16.2727C127.773 16.2727 127.478 16.3423 127.216 16.4815C126.958 16.6207 126.753 16.8239 126.603 17.0909C126.455 17.358 126.381 17.6818 126.381 18.0625ZM135.21 22.1364C134.579 22.1364 134.035 21.9972 133.578 21.7188C133.123 21.4375 132.772 21.0455 132.525 20.5426C132.281 20.0369 132.159 19.4489 132.159 18.7784C132.159 18.108 132.281 17.517 132.525 17.0057C132.772 16.4915 133.116 16.0909 133.556 15.804C133.999 15.5142 134.517 15.3693 135.107 15.3693C135.448 15.3693 135.785 15.4261 136.117 15.5398C136.45 15.6534 136.752 15.8381 137.025 16.0938C137.298 16.3466 137.515 16.6818 137.677 17.0994C137.839 17.517 137.92 18.0312 137.92 18.642V19.0682H132.874V18.1989H136.897C136.897 17.8295 136.823 17.5 136.676 17.2102C136.531 16.9205 136.323 16.6918 136.053 16.5241C135.786 16.3565 135.471 16.2727 135.107 16.2727C134.707 16.2727 134.36 16.3722 134.068 16.571C133.778 16.767 133.555 17.0227 133.399 17.3381C133.242 17.6534 133.164 17.9915 133.164 18.3523V18.9318C133.164 19.4261 133.249 19.8452 133.42 20.1889C133.593 20.5298 133.833 20.7898 134.14 20.9688C134.447 21.1449 134.803 21.233 135.21 21.233C135.474 21.233 135.713 21.196 135.926 21.1222C136.142 21.0455 136.328 20.9318 136.484 20.7812C136.64 20.6278 136.761 20.4375 136.846 20.2102L137.818 20.483C137.715 20.8125 137.544 21.1023 137.302 21.3523C137.061 21.5994 136.762 21.7926 136.407 21.9318C136.052 22.0682 135.653 22.1364 135.21 22.1364Z" fill="white"/>
<path d="M50.1198 31.1094C50.0502 30.8674 49.9524 30.6536 49.8264 30.468C49.7005 30.2791 49.5464 30.12 49.3641 29.9908C49.1851 29.8582 48.9796 29.7571 48.7476 29.6875C48.5189 29.6179 48.2654 29.5831 47.9869 29.5831C47.4666 29.5831 47.0092 29.7124 46.6148 29.9709C46.2237 30.2294 45.9188 30.6056 45.7 31.0994C45.4813 31.59 45.3719 32.1899 45.3719 32.8991C45.3719 33.6084 45.4796 34.2116 45.695 34.7088C45.9105 35.206 46.2154 35.5855 46.6098 35.8473C47.0042 36.1058 47.4699 36.2351 48.0068 36.2351C48.4941 36.2351 48.91 36.1489 49.2547 35.9766C49.6027 35.8009 49.8679 35.554 50.0502 35.2358C50.2358 34.9176 50.3286 34.5414 50.3286 34.1072L50.7661 34.1719H48.1411V32.5511H52.4017V33.8338C52.4017 34.7287 52.2128 35.4976 51.835 36.1406C51.4571 36.7803 50.9368 37.2741 50.2739 37.6222C49.611 37.9669 48.852 38.1392 47.9969 38.1392C47.0423 38.1392 46.2038 37.9287 45.4813 37.5078C44.7587 37.0836 44.1953 36.482 43.7909 35.7031C43.3899 34.9209 43.1894 33.9929 43.1894 32.919C43.1894 32.0937 43.3087 31.358 43.5473 30.7116C43.7893 30.062 44.1273 29.5118 44.5615 29.0611C44.9957 28.6103 45.5012 28.2673 46.0779 28.032C46.6546 27.7966 47.2793 27.679 47.9521 27.679C48.5289 27.679 49.0658 27.7635 49.5629 27.9325C50.0601 28.0982 50.5009 28.3336 50.8854 28.6385C51.2732 28.9434 51.5897 29.3063 51.835 29.7273C52.0802 30.1449 52.2377 30.6056 52.3073 31.1094H50.1198ZM57.4292 38.1491C56.657 38.1491 55.9891 37.9851 55.4257 37.657C54.8656 37.3255 54.433 36.8648 54.1281 36.2749C53.8232 35.6816 53.6707 34.9938 53.6707 34.2116C53.6707 33.4228 53.8232 32.7334 54.1281 32.1435C54.433 31.5502 54.8656 31.0895 55.4257 30.7614C55.9891 30.4299 56.657 30.2642 57.4292 30.2642C58.2015 30.2642 58.8677 30.4299 59.4278 30.7614C59.9913 31.0895 60.4255 31.5502 60.7304 32.1435C61.0353 32.7334 61.1878 33.4228 61.1878 34.2116C61.1878 34.9938 61.0353 35.6816 60.7304 36.2749C60.4255 36.8648 59.9913 37.3255 59.4278 37.657C58.8677 37.9851 58.2015 38.1491 57.4292 38.1491ZM57.4392 36.5085C57.7905 36.5085 58.0838 36.4091 58.3192 36.2102C58.5545 36.008 58.7318 35.733 58.8511 35.3849C58.9738 35.0369 59.0351 34.6409 59.0351 34.1967C59.0351 33.7526 58.9738 33.3565 58.8511 33.0085C58.7318 32.6605 58.5545 32.3854 58.3192 32.1832C58.0838 31.9811 57.7905 31.88 57.4392 31.88C57.0845 31.88 56.7863 31.9811 56.5443 32.1832C56.3057 32.3854 56.125 32.6605 56.0024 33.0085C55.8831 33.3565 55.8234 33.7526 55.8234 34.1967C55.8234 34.6409 55.8831 35.0369 56.0024 35.3849C56.125 35.733 56.3057 36.008 56.5443 36.2102C56.7863 36.4091 57.0845 36.5085 57.4392 36.5085ZM66.0152 38.1491C65.2429 38.1491 64.5751 37.9851 64.0116 37.657C63.4515 37.3255 63.019 36.8648 62.714 36.2749C62.4091 35.6816 62.2567 34.9938 62.2567 34.2116C62.2567 33.4228 62.4091 32.7334 62.714 32.1435C63.019 31.5502 63.4515 31.0895 64.0116 30.7614C64.5751 30.4299 65.2429 30.2642 66.0152 30.2642C66.7874 30.2642 67.4536 30.4299 68.0138 30.7614C68.5772 31.0895 69.0114 31.5502 69.3163 32.1435C69.6212 32.7334 69.7737 33.4228 69.7737 34.2116C69.7737 34.9938 69.6212 35.6816 69.3163 36.2749C69.0114 36.8648 68.5772 37.3255 68.0138 37.657C67.4536 37.9851 66.7874 38.1491 66.0152 38.1491ZM66.0251 36.5085C66.3765 36.5085 66.6698 36.4091 66.9051 36.2102C67.1404 36.008 67.3177 35.733 67.4371 35.3849C67.5597 35.0369 67.621 34.6409 67.621 34.1967C67.621 33.7526 67.5597 33.3565 67.4371 33.0085C67.3177 32.6605 67.1404 32.3854 66.9051 32.1832C66.6698 31.9811 66.3765 31.88 66.0251 31.88C65.6705 31.88 65.3722 31.9811 65.1302 32.1832C64.8916 32.3854 64.711 32.6605 64.5883 33.0085C64.469 33.3565 64.4094 33.7526 64.4094 34.1967C64.4094 34.6409 64.469 35.0369 64.5883 35.3849C64.711 35.733 64.8916 36.008 65.1302 36.2102C65.3722 36.4091 65.6705 36.5085 66.0251 36.5085ZM74.5912 41.0227C73.9051 41.0227 73.3168 40.9283 72.8263 40.7393C72.339 40.5537 71.9513 40.3002 71.6629 39.9787C71.3746 39.6572 71.1873 39.2959 71.1011 38.8949L73.0599 38.6314C73.1196 38.7839 73.214 38.9264 73.3433 39.0589C73.4726 39.1915 73.6433 39.2976 73.8554 39.3771C74.0708 39.46 74.3327 39.5014 74.6409 39.5014C75.1016 39.5014 75.4811 39.3887 75.7794 39.1634C76.081 38.9413 76.2318 38.5684 76.2318 38.0447V36.6477H76.1423C76.0495 36.8598 75.9103 37.0604 75.7247 37.2493C75.5391 37.4382 75.3005 37.5923 75.0088 37.7116C74.7171 37.831 74.3691 37.8906 73.9648 37.8906C73.3914 37.8906 72.8693 37.758 72.3987 37.4929C71.9314 37.2244 71.5585 36.8151 71.2801 36.2649C71.005 35.7114 70.8675 35.0121 70.8675 34.1669C70.8675 33.3018 71.0083 32.5793 71.29 31.9993C71.5718 31.4193 71.9463 30.9851 72.4136 30.6967C72.8843 30.4084 73.3997 30.2642 73.9598 30.2642C74.3873 30.2642 74.7453 30.3371 75.0336 30.483C75.322 30.6255 75.554 30.8045 75.7297 31.0199C75.9086 31.232 76.0462 31.4408 76.1423 31.6463H76.2219V30.3636H78.3248V38.0746C78.3248 38.7242 78.1657 39.2678 77.8476 39.7053C77.5294 40.1428 77.0886 40.4709 76.5251 40.6896C75.965 40.9117 75.3203 41.0227 74.5912 41.0227ZM74.6359 36.2997C74.9773 36.2997 75.2657 36.2152 75.501 36.0462C75.7396 35.8738 75.9219 35.6286 76.0479 35.3104C76.1771 34.9889 76.2417 34.6044 76.2417 34.157C76.2417 33.7095 76.1788 33.3217 76.0528 32.9936C75.9269 32.6622 75.7446 32.4053 75.5059 32.223C75.2673 32.0407 74.9773 31.9496 74.6359 31.9496C74.2879 31.9496 73.9946 32.044 73.7559 32.233C73.5173 32.4186 73.3367 32.6771 73.214 33.0085C73.0914 33.34 73.0301 33.7228 73.0301 34.157C73.0301 34.5978 73.0914 34.9789 73.214 35.3004C73.34 35.6186 73.5206 35.8655 73.7559 36.0412C73.9946 36.2135 74.2879 36.2997 74.6359 36.2997ZM82.1281 27.8182V38H80.0102V27.8182H82.1281ZM87.3048 38.1491C86.5193 38.1491 85.8431 37.9901 85.2764 37.6719C84.7129 37.3504 84.2787 36.8963 83.9738 36.3097C83.6689 35.7197 83.5164 35.022 83.5164 34.2166C83.5164 33.4311 83.6689 32.7417 83.9738 32.1484C84.2787 31.5552 84.7079 31.0928 85.2615 30.7614C85.8183 30.4299 86.4712 30.2642 87.2203 30.2642C87.724 30.2642 88.193 30.3454 88.6272 30.5078C89.0647 30.6669 89.4459 30.9072 89.7707 31.2287C90.0988 31.5502 90.354 31.9545 90.5363 32.4418C90.7186 32.9257 90.8097 33.4924 90.8097 34.142V34.7237H84.3616V33.4112H88.8161C88.8161 33.1063 88.7499 32.8362 88.6173 32.6009C88.4847 32.3655 88.3008 32.1816 88.0654 32.049C87.8334 31.9131 87.5633 31.8452 87.2551 31.8452C86.9336 31.8452 86.6485 31.9197 86.3999 32.0689C86.1547 32.2147 85.9624 32.4119 85.8232 32.6605C85.684 32.9058 85.6128 33.1792 85.6095 33.4808V34.7287C85.6095 35.1065 85.6791 35.433 85.8183 35.7081C85.9608 35.9832 86.1613 36.1953 86.4198 36.3445C86.6784 36.4936 86.9849 36.5682 87.3396 36.5682C87.5749 36.5682 87.7903 36.535 87.9859 36.4688C88.1814 36.4025 88.3488 36.303 88.488 36.1705C88.6272 36.0379 88.7333 35.8755 88.8062 35.6832L90.765 35.8125C90.6656 36.2831 90.4617 36.6941 90.1535 37.0455C89.8486 37.3935 89.4542 37.6652 88.9703 37.8608C88.4897 38.053 87.9345 38.1491 87.3048 38.1491ZM95.4719 38V27.8182H99.4889C100.261 27.8182 100.919 27.9657 101.463 28.2607C102.006 28.5523 102.42 28.9583 102.706 29.4787C102.994 29.9957 103.138 30.5923 103.138 31.2685C103.138 31.9446 102.992 32.5412 102.701 33.0582C102.409 33.5753 101.986 33.978 101.433 34.2663C100.883 34.5547 100.216 34.6989 99.4342 34.6989H96.8738V32.9737H99.0862C99.5005 32.9737 99.8419 32.9025 100.11 32.7599C100.382 32.6141 100.584 32.4136 100.717 32.1584C100.853 31.8999 100.921 31.6032 100.921 31.2685C100.921 30.9304 100.853 30.6354 100.717 30.3835C100.584 30.1283 100.382 29.9311 100.11 29.7919C99.8386 29.6494 99.4939 29.5781 99.0763 29.5781H97.6246V38H95.4719ZM106.614 27.8182V38H104.497V27.8182H106.614ZM110.489 38.1442C110.001 38.1442 109.567 38.0597 109.186 37.8906C108.805 37.7183 108.503 37.4647 108.281 37.13C108.062 36.7919 107.953 36.371 107.953 35.8672C107.953 35.4429 108.031 35.0866 108.187 34.7983C108.342 34.5099 108.555 34.2779 108.823 34.1023C109.092 33.9266 109.396 33.794 109.738 33.7045C110.083 33.6151 110.444 33.5521 110.822 33.5156C111.266 33.4692 111.624 33.4261 111.896 33.3864C112.167 33.3433 112.364 33.2803 112.487 33.1974C112.61 33.1146 112.671 32.992 112.671 32.8295V32.7997C112.671 32.4848 112.572 32.2412 112.373 32.0689C112.177 31.8965 111.899 31.8104 111.538 31.8104C111.156 31.8104 110.853 31.8949 110.628 32.0639C110.402 32.2296 110.253 32.4384 110.18 32.6903L108.222 32.5312C108.321 32.0672 108.516 31.6662 108.808 31.3281C109.1 30.9867 109.476 30.7249 109.937 30.5426C110.401 30.357 110.938 30.2642 111.547 30.2642C111.972 30.2642 112.378 30.3139 112.766 30.4134C113.157 30.5128 113.503 30.6669 113.805 30.8757C114.11 31.0845 114.35 31.353 114.525 31.6811C114.701 32.0059 114.789 32.3954 114.789 32.8494V38H112.78V36.9411H112.721C112.598 37.1797 112.434 37.3902 112.229 37.5724C112.023 37.7514 111.776 37.8923 111.488 37.995C111.199 38.0945 110.866 38.1442 110.489 38.1442ZM111.095 36.6825C111.407 36.6825 111.682 36.6212 111.92 36.4986C112.159 36.3726 112.346 36.2036 112.482 35.9915C112.618 35.7794 112.686 35.5391 112.686 35.2706V34.4602C112.62 34.5033 112.529 34.5431 112.413 34.5795C112.3 34.6127 112.172 34.6442 112.03 34.674C111.887 34.7005 111.745 34.7254 111.602 34.7486C111.46 34.7685 111.33 34.7867 111.214 34.8033C110.966 34.8397 110.749 34.8977 110.563 34.9773C110.378 35.0568 110.233 35.1645 110.131 35.3004C110.028 35.433 109.976 35.5987 109.976 35.7976C109.976 36.0859 110.081 36.3063 110.29 36.4588C110.502 36.608 110.77 36.6825 111.095 36.6825ZM117.466 40.8636C117.198 40.8636 116.946 40.8421 116.71 40.799C116.478 40.7592 116.286 40.7079 116.134 40.6449L116.611 39.0639C116.86 39.1402 117.083 39.1816 117.282 39.1882C117.484 39.1948 117.658 39.1484 117.804 39.049C117.953 38.9496 118.074 38.7805 118.167 38.5419L118.291 38.2188L115.552 30.3636H117.779L119.36 35.9716H119.44L121.036 30.3636H123.278L120.31 38.8253C120.167 39.2363 119.974 39.5942 119.728 39.8991C119.486 40.2074 119.18 40.4444 118.809 40.6101C118.437 40.7791 117.99 40.8636 117.466 40.8636Z" fill="white"/>
</svg>
