<svg viewBox="0 0 57.5 71" fill="none" xmlns="http://www.w3.org/2000/svg" id="2a1ad9e3" x="0" y="0"><g id="HowItWorks-r1" data-node-id="571:1885"><g id="variant=HowItWorks-r1" data-node-id="571:1884"><g id="Frame 373" data-node-id="571:1855"><g id="Group 9" data-node-id="571:1856"><g id="Vector_3" data-node-id="571:1875">
<path d="M54.608,26.998h-3.14c-1.023,0 -1.825,-0.663 -2.045,-1.694c-0.074,-0.514 -0.147,-1.031 -0.292,-1.471c-0.219,-0.957 0.292,-1.914 1.241,-2.283l2.921,-1.177c0.876,-0.368 1.315,-1.399 0.95,-2.356c-0.366,-0.883 -1.389,-1.325 -2.338,-0.957l-2.921,1.177c-0.876,0.368 -1.972,0.074 -2.483,-0.737c-0.292,-0.442 -0.51,-0.883 -0.802,-1.251c-0.584,-0.809 -0.439,-1.914 0.292,-2.577l2.264,-2.282c0.657,-0.662 0.657,-1.84 0,-2.502c-0.657,-0.663 -1.825,-0.663 -2.482,0l-2.264,2.282c-0.658,0.663 -1.752,0.809 -2.556,0.294c-0.439,-0.294 -0.802,-0.588 -1.241,-0.808c-0.803,-0.515 -1.168,-1.62 -0.731,-2.503l1.241,-2.945c0.292,-1.103 -0.145,-2.134 -1.021,-2.502c-0.949,-0.369 -1.972,0.074 -2.337,0.957l-1.241,2.945c-0.366,0.883 -1.315,1.471 -2.264,1.251c-0.511,-0.074 -0.95,-0.22 -1.46,-0.294c-0.949,-0.149 -1.68,-1.031 -1.68,-1.988v-3.311c0,-0.957 -0.802,-1.766 -1.751,-1.766c-0.95,0 -1.752,0.809 -1.752,1.766v3.239c0,0.957 -0.657,1.84 -1.68,1.988c-0.51,0.074 -0.949,0.148 -1.46,0.294c-0.949,0.22 -1.898,-0.294 -2.264,-1.251l-1.241,-3.017c-0.365,-0.883 -1.388,-1.325 -2.337,-0.957c-0.876,0.368 -1.315,1.4 -0.95,2.356l1.242,3.017c0.365,0.883 0.073,1.988 -0.731,2.503c-0.439,0.294 -0.802,0.514 -1.241,0.808c-0.803,0.589 -1.899,0.443 -2.556,-0.22l-2.264,-2.282c-0.658,-0.737 -1.825,-0.737 -2.483,0c-0.657,0.663 -0.657,1.84 0,2.502l2.338,2.283c0.657,0.662 0.802,1.839 0.218,2.65c-0.292,0.369 -0.584,0.809 -0.802,1.177c-0.51,0.809 -1.607,1.178 -2.482,0.737l-2.993,-1.251c-0.876,-0.368 -1.898,0.074 -2.337,0.957c-0.366,0.883 0.073,1.914 0.949,2.356l2.992,1.252c0.876,0.368 1.46,1.325 1.242,2.356c-0.074,0.514 -0.219,0.957 -0.292,1.471c-0.147,0.957 -1.023,1.694 -2.046,1.694h-3.287c-0.949,0 -1.751,0.809 -1.751,1.766c0,0.957 0.802,1.765 1.751,1.765h3.214c1.022,0 1.825,0.663 2.045,1.694c0.074,0.514 0.147,0.957 0.292,1.471c0.219,0.957 -0.292,1.914 -1.241,2.283l-2.993,1.251c-0.875,0.368 -1.314,1.399 -0.949,2.356c0.292,0.663 0.949,1.106 1.607,1.106c0.218,0 0.439,0 0.657,-0.149l2.993,-1.251c0.875,-0.368 1.972,-0.074 2.482,0.809c0.802,1.325 1.751,2.576 2.848,3.679l3.65,-5.153c0.875,-1.251 2.045,-2.356 3.358,-3.017c-1.46,-1.839 -2.338,-4.196 -2.338,-6.698c0,-5.887 4.747,-10.747 10.661,-10.747c5.914,0 10.66,4.785 10.66,10.747c0,2.577 -0.875,4.859 -2.337,6.698c1.314,0.663 2.482,1.766 3.358,3.017l3.65,5.153c1.023,-1.105 1.972,-2.282 2.774,-3.533c0.51,-0.809 1.607,-1.177 2.482,-0.737l2.922,1.177c0.218,0.074 0.439,0.148 0.657,0.148c0.657,0 1.315,-0.442 1.607,-1.105c0.365,-0.883 -0.074,-1.988 -0.95,-2.356l-2.847,-1.177c-0.876,-0.369 -1.46,-1.326 -1.242,-2.357c0.074,-0.514 0.219,-1.031 0.292,-1.471c0.147,-0.957 1.023,-1.694 2.046,-1.694h3.14c0.949,0 1.751,-0.809 1.751,-1.765c-0.14,-1.032 -0.943,-1.84 -1.892,-1.84z" fill="#D80ADA"/>
<path d="M49.936,51.436l-6.79,-3.534c-0.802,-0.442 -1.533,-1.031 -2.045,-1.766l-3.942,-5.593c-0.876,-1.177 -2.117,-2.062 -3.505,-2.502c-1.533,0.882 -3.358,1.399 -5.257,1.399c-1.898,0 -3.723,-0.514 -5.256,-1.399c-1.388,0.442 -2.63,1.325 -3.505,2.502l-3.942,5.593c-0.511,0.737 -1.241,1.326 -2.046,1.766l-6.789,3.534c-1.533,0.808 -2.191,2.722 -1.389,4.342c0.803,1.545 2.775,2.208 4.308,1.399l6.789,-3.533c1.68,-0.883 3.14,-2.208 4.308,-3.754l0.073,-0.148v7.729l-10.515,5.448c-1.752,0.882 -2.556,2.945 -1.973,4.858c0.584,1.694 2.046,2.723 3.724,2.723c0.218,0 0.51,0 0.731,-0.074l12.85,-2.282c1.68,-0.295 3.358,-0.295 5.038,0l12.851,2.282c0.218,0.074 0.439,0.074 0.731,0.074c1.68,0 3.213,-1.105 3.723,-2.723c0.658,-1.913 -0.147,-3.901 -1.972,-4.858l-10.515,-5.448l0.002,-7.803l0.073,0.148c1.097,1.545 2.556,2.871 4.308,3.754l6.789,3.533c0.51,0.22 0.949,0.368 1.46,0.368c1.167,0 2.264,-0.588 2.848,-1.765c1.025,-1.548 0.367,-3.462 -1.166,-4.271z" fill="#D80ADA"/>
<path d="M35.551,28.69c0,3.944 -3.171,7.141 -7.082,7.141c-3.912,0 -7.083,-3.197 -7.083,-7.141c0,-3.943 3.171,-7.139 7.083,-7.139c3.911,0 7.082,3.196 7.082,7.139z" fill="#D80ADA"/>
</g><g id="Vector_4" data-node-id="571:1877">
<path d="M55.108,26.998h-3.14c-1.023,0 -1.825,-0.663 -2.045,-1.694c-0.074,-0.514 -0.147,-1.031 -0.292,-1.471c-0.219,-0.957 0.292,-1.914 1.241,-2.283l2.921,-1.177c0.876,-0.368 1.315,-1.399 0.95,-2.356c-0.366,-0.883 -1.389,-1.325 -2.338,-0.957l-2.921,1.177c-0.876,0.368 -1.972,0.074 -2.483,-0.737c-0.292,-0.442 -0.51,-0.883 -0.802,-1.251c-0.584,-0.809 -0.439,-1.914 0.292,-2.577l2.264,-2.282c0.657,-0.662 0.657,-1.84 0,-2.502c-0.657,-0.663 -1.825,-0.663 -2.482,0l-2.264,2.282c-0.658,0.663 -1.752,0.809 -2.556,0.294c-0.439,-0.294 -0.802,-0.588 -1.241,-0.808c-0.803,-0.515 -1.168,-1.62 -0.731,-2.503l1.241,-2.945c0.292,-1.103 -0.145,-2.134 -1.021,-2.502c-0.949,-0.369 -1.972,0.074 -2.337,0.957l-1.241,2.945c-0.366,0.883 -1.315,1.471 -2.264,1.251c-0.511,-0.074 -0.95,-0.22 -1.46,-0.294c-0.949,-0.149 -1.68,-1.031 -1.68,-1.988v-3.311c0,-0.957 -0.802,-1.766 -1.751,-1.766c-0.95,0 -1.752,0.809 -1.752,1.766v3.239c0,0.957 -0.657,1.84 -1.68,1.988c-0.51,0.074 -0.949,0.148 -1.46,0.294c-0.949,0.22 -1.898,-0.294 -2.264,-1.251l-1.241,-3.017c-0.365,-0.883 -1.388,-1.325 -2.337,-0.957c-0.876,0.368 -1.315,1.4 -0.95,2.356l1.242,3.017c0.365,0.883 0.073,1.988 -0.731,2.503c-0.439,0.294 -0.802,0.514 -1.241,0.808c-0.803,0.589 -1.899,0.443 -2.556,-0.22l-2.264,-2.282c-0.658,-0.737 -1.825,-0.737 -2.483,0c-0.657,0.663 -0.657,1.84 0,2.502l2.338,2.283c0.657,0.662 0.802,1.839 0.218,2.65c-0.292,0.369 -0.584,0.809 -0.802,1.177c-0.51,0.809 -1.607,1.178 -2.482,0.737l-2.993,-1.251c-0.876,-0.368 -1.898,0.074 -2.337,0.957c-0.366,0.883 0.073,1.914 0.949,2.356l2.992,1.252c0.876,0.368 1.46,1.325 1.242,2.356c-0.074,0.514 -0.219,0.957 -0.292,1.471c-0.147,0.957 -1.023,1.694 -2.046,1.694h-3.287c-0.949,0 -1.751,0.809 -1.751,1.766c0,0.957 0.802,1.765 1.751,1.765h3.214c1.022,0 1.825,0.663 2.045,1.694c0.074,0.514 0.147,0.957 0.292,1.471c0.219,0.957 -0.292,1.914 -1.241,2.283l-2.993,1.251c-0.875,0.368 -1.314,1.399 -0.949,2.356c0.292,0.663 0.949,1.106 1.607,1.106c0.218,0 0.439,0 0.657,-0.149l2.993,-1.251c0.875,-0.368 1.972,-0.074 2.482,0.809c0.802,1.325 1.751,2.576 2.848,3.679l3.65,-5.153c0.875,-1.251 2.045,-2.356 3.358,-3.017c-1.46,-1.839 -2.338,-4.196 -2.338,-6.698c0,-5.887 4.747,-10.747 10.661,-10.747c5.914,0 10.66,4.785 10.66,10.747c0,2.577 -0.875,4.859 -2.337,6.698c1.314,0.663 2.482,1.766 3.358,3.017l3.65,5.153c1.023,-1.105 1.972,-2.282 2.774,-3.533c0.51,-0.809 1.607,-1.177 2.482,-0.737l2.922,1.177c0.218,0.074 0.439,0.148 0.657,0.148c0.657,0 1.315,-0.442 1.607,-1.105c0.365,-0.883 -0.074,-1.988 -0.95,-2.356l-2.847,-1.177c-0.876,-0.369 -1.46,-1.326 -1.242,-2.357c0.074,-0.514 0.219,-1.031 0.292,-1.471c0.147,-0.957 1.023,-1.694 2.046,-1.694h3.14c0.949,0 1.751,-0.809 1.751,-1.765c-0.14,-1.032 -0.943,-1.84 -1.892,-1.84z" fill="#D80ADA"/>
<path d="M50.436,51.436l-6.79,-3.534c-0.802,-0.442 -1.533,-1.031 -2.045,-1.766l-3.942,-5.593c-0.876,-1.177 -2.117,-2.062 -3.505,-2.502c-1.533,0.882 -3.358,1.399 -5.257,1.399c-1.898,0 -3.723,-0.514 -5.256,-1.399c-1.388,0.442 -2.63,1.325 -3.505,2.502l-3.942,5.593c-0.511,0.737 -1.241,1.326 -2.046,1.766l-6.789,3.534c-1.533,0.808 -2.191,2.722 -1.389,4.342c0.803,1.545 2.775,2.208 4.308,1.399l6.789,-3.533c1.68,-0.883 3.14,-2.208 4.308,-3.754l0.073,-0.148v7.729l-10.515,5.448c-1.752,0.882 -2.556,2.945 -1.973,4.858c0.584,1.694 2.046,2.723 3.724,2.723c0.218,0 0.51,0 0.731,-0.074l12.85,-2.282c1.68,-0.295 3.358,-0.295 5.038,0l12.851,2.282c0.218,0.074 0.439,0.074 0.731,0.074c1.68,0 3.213,-1.105 3.723,-2.723c0.658,-1.913 -0.147,-3.901 -1.972,-4.858l-10.515,-5.448l0.002,-7.803l0.073,0.148c1.097,1.545 2.556,2.871 4.308,3.754l6.789,3.533c0.51,0.22 0.949,0.368 1.46,0.368c1.167,0 2.264,-0.588 2.848,-1.765c1.025,-1.548 0.368,-3.462 -1.165,-4.27z" fill="#D80ADA"/>
<path d="M36.051,28.69c0,3.944 -3.171,7.141 -7.082,7.141c-3.912,0 -7.083,-3.197 -7.083,-7.141c0,-3.943 3.171,-7.139 7.083,-7.139c3.911,0 7.082,3.196 7.082,7.139z" fill="#D80ADA"/>
</g></g></g></g></g><defs/></svg>