<svg width="70" height="70" viewBox="0 0 70 70" fill="none" xmlns="http://www.w3.org/2000/svg">
<path d="M70 35C70 29.6113 66.0987 25.1438 60.9689 24.2442C63.957 19.9796 63.5565 14.0619 59.7485 10.2515C55.938 6.44092 50.0208 6.04033 45.7558 9.0311C44.8559 3.9014 40.3884 0 35 0C29.6116 0 25.1438 3.90133 24.2442 9.0311C19.9796 6.043 14.0619 6.44352 10.2515 10.2515C6.44092 14.062 6.04033 19.9792 9.0311 24.2442C3.9014 25.1441 0 29.6116 0 35C0 40.3884 3.90133 44.8562 9.0311 45.7558C6.04299 50.0204 6.44352 55.9381 10.2515 59.7485C14.062 63.5591 19.9792 63.9597 24.2442 60.9689C25.1441 66.0986 29.6116 70 35 70C40.3884 70 44.8562 66.0987 45.7558 60.9689C50.0204 63.957 55.9381 63.5565 59.7485 59.7485C63.5591 55.938 63.9597 50.0208 60.9689 45.7558C66.0986 44.8559 70 40.3884 70 35ZM35.0001 53.6706C24.6873 53.6706 16.3295 45.3122 16.3295 35C16.3295 24.6878 24.688 16.3294 35.0001 16.3294C45.3123 16.3294 53.6707 24.6878 53.6707 35C53.6707 45.3122 45.3123 53.6706 35.0001 53.6706Z" fill="#D80ADA"/>
<path d="M34.9995 28.4921C30.2062 21.1515 19.6983 26.0781 21.728 34.3935C23.7146 42.5325 34.9995 48.5865 34.9995 48.5865C34.9995 48.5865 46.2844 42.5328 48.2709 34.3935C50.3004 26.0781 39.7929 21.1541 34.9995 28.4921Z" fill="#D80ADA"/>
</svg>
