<svg viewBox="0 0 32 32" fill="none" xmlns="http://www.w3.org/2000/svg" x="0" y="0"><path id="Vector" d="M16,0c-3.1645,0 -6.2579,0.938 -8.8891,2.696c-2.6312,1.759 -4.682,4.257 -5.893,7.181c-1.211,2.924 -1.5278,6.141 -0.9105,9.244c0.6174,3.104 2.1413,5.955 4.3789,8.193c2.2376,2.237 5.0886,3.761 8.1923,4.379c3.1037,0.617 6.3207,0.3 9.2444,-0.911c2.924,-1.211 5.422,-3.262 7.181,-5.893c1.758,-2.631 2.696,-5.725 2.696,-8.889c-0.005,-4.242 -1.692,-8.309 -4.691,-11.309c-3,-2.999 -7.067,-4.686 -11.309,-4.691zM21.931,13.931l-6.3998,6.4c-0.3,0.3 -0.7069,0.469 -1.1312,0.469c-0.4243,0 -0.8312,-0.169 -1.1312,-0.469l-3.2,-3.2c-0.2914,-0.302 -0.4527,-0.706 -0.4491,-1.125c0.0037,-0.42 0.1719,-0.821 0.4686,-1.118c0.2966,-0.296 0.6979,-0.465 1.1175,-0.468c0.4195,-0.004 0.8236,0.157 1.1254,0.449l2.0688,2.069l5.2688,-5.269c0.3018,-0.292 0.7062,-0.453 1.1252,-0.449c0.42,0.003 0.821,0.172 1.118,0.468c0.296,0.297 0.465,0.698 0.468,1.118c0.004,0.419 -0.157,0.823 -0.449,1.125z" fill="currentColor"/></svg>