<svg viewBox="0 0 32 28" fill="none" xmlns="http://www.w3.org/2000/svg" x="0" y="0"><g id="Vector_3">
<path d="M10.436,12.256c0,1.441 0.28,2.869 0.83,4.202c0.54,1.33 1.35,2.537 2.36,3.551c0.14,0.142 0.29,0.27 0.45,0.382c0.28,0.201 0.6,0.355 0.93,0.456c0.15,0.048 0.3,0.08 0.45,0.113c0.35,0.048 0.71,0.048 1.07,0c0.15,-0.033 0.3,-0.064 0.45,-0.113c0.33,-0.101 0.64,-0.255 0.92,-0.456c0.17,-0.112 0.32,-0.24 0.46,-0.382c2.04,-2.054 3.19,-4.844 3.2,-7.753c0,-2.578 -0.8,-5.092 -2.3,-7.185c-0.21,-0.29 -0.43,-0.569 -0.65,-0.838v0.001c-0.82,-0.947 -1.51,-1.993 -2.07,-3.113l-0.54,-1.121l-0.53,1.121c-0.56,1.121 -1.26,2.167 -2.08,3.113c-0.23,0.269 -0.45,0.547 -0.66,0.838v-0.001c-1.49,2.094 -2.29,4.607 -2.29,7.185z" fill="currentColor"/>
<path d="M4.463,16.731c0.749,0.898 1.618,1.688 2.583,2.346c0.24,0.161 0.47,0.311 0.72,0.45c1.24,0.722 2.61,1.19 4.03,1.379c-0.56,-0.307 -1.09,-0.657 -1.6,-1.046c-1.28,-0.991 -2.35,-2.222 -3.16,-3.628c-1.197,-2.092 -1.827,-4.461 -1.831,-6.874c0,-0.332 0,-0.676 0.043,-1.014l-0.282,0.048v0.001c-1.231,0.233 -2.485,0.31 -3.734,0.23l-1.232,-0.07l0.677,1.03c0.687,1.043 1.244,2.166 1.659,3.344c0.482,1.384 1.202,2.671 2.127,3.804z" fill="currentColor"/>
<path d="M10.716,18.491c-0.28,-0.481 -0.53,-0.981 -0.74,-1.497c-0.61,-1.504 -0.92,-3.113 -0.91,-4.738c-0.01,-2.768 0.82,-5.472 2.38,-7.748l-0.1,-0.043v0c-1.18,-0.415 -2.3,-0.975 -3.35,-1.67l-1.06,-0.681l0.08,1.235c0,0.3 0.02,0.595 0.02,0.896v0c0,0.958 -0.09,1.913 -0.26,2.855c-0.07,0.364 -0.121,0.734 -0.164,1.1c-0.042,0.365 -0.048,0.772 -0.048,1.159l0.001,-0.001c0.002,2.168 0.571,4.297 1.641,6.176c0.66,1.128 1.51,2.13 2.51,2.957z" fill="currentColor"/>
<path d="M30.776,8.634c-1.25,0.08 -2.51,0.002 -3.74,-0.231l-0.28,-0.048c0,0.339 0.04,0.681 0.04,1.015v-0.001c0,2.412 -0.63,4.782 -1.83,6.874c-0.8,1.405 -1.88,2.638 -3.16,3.627c-0.5,0.39 -1.04,0.739 -1.6,1.047c1.42,-0.19 2.79,-0.658 4.03,-1.379c0.25,-0.139 0.48,-0.289 0.72,-0.451v0c0.97,-0.658 1.84,-1.447 2.59,-2.345c0.92,-1.126 1.64,-2.407 2.13,-3.783c0.41,-1.185 0.97,-2.316 1.66,-3.365l0.66,-1.041z" fill="currentColor"/>
<path d="M22.936,12.256c0.01,2.189 -0.56,4.343 -1.66,6.235c1,-0.829 1.84,-1.83 2.49,-2.957c1.08,-1.879 1.64,-4.009 1.65,-6.176c0,-0.387 0,-0.778 -0.05,-1.159c-0.05,-0.382 -0.09,-0.735 -0.16,-1.101v0.001c-0.18,-0.941 -0.27,-1.897 -0.27,-2.855c0,-0.301 0,-0.595 0.03,-0.896l0.1,-1.234l-1.07,0.681c-1.04,0.695 -2.16,1.254 -3.34,1.669l-0.11,0.043v0c1.56,2.281 2.39,4.983 2.39,7.749z" fill="currentColor"/>
<path d="M13.216,22.398c-2.16,-0.001 -4.27,-0.572 -6.14,-1.658c-0.485,-0.276 -0.949,-0.586 -1.391,-0.929c-1.397,0.865 -2.619,1.989 -3.6,3.311l3.638,1.041c2.123,0.618 4.403,0.437 6.403,-0.509c0.19,-0.091 0.38,-0.188 0.57,-0.296c0.49,-0.278 0.96,-0.601 1.39,-0.965c-0.28,0 -0.58,0.005 -0.87,0.005z" fill="currentColor"/>
<path d="M26.316,19.811c-0.44,0.34 -0.91,0.65 -1.39,0.929c-1.87,1.086 -3.99,1.657 -6.14,1.658h-0.87c0.43,0.364 0.9,0.687 1.4,0.965c0.18,0.107 0.37,0.205 0.57,0.296v0c2,0.946 4.27,1.127 6.4,0.509l3.63,-1.046c-0.98,-1.322 -2.21,-2.446 -3.6,-3.311z" fill="currentColor"/>
<path d="M15.996,22.467c-0.82,0.901 -1.8,1.652 -2.88,2.222c0.59,1.381 1.6,2.541 2.88,3.311c1.28,-0.771 2.29,-1.927 2.88,-3.305c-1.08,-0.566 -2.05,-1.32 -2.88,-2.228z" fill="currentColor"/>
</g></svg>