<svg viewBox="0 0 106 92" fill="none" xmlns="http://www.w3.org/2000/svg" x="0" y="0"><g id="Vector_5">
<path d="M34.574,40.27c-0.007,4.735 0.924,9.428 2.736,13.805c1.808,4.37 4.468,8.337 7.829,11.67c0.459,0.465 0.959,0.885 1.501,1.254c0.928,0.661 1.963,1.167 3.057,1.498c0.493,0.158 1.008,0.265 1.501,0.371c1.173,0.159 2.36,0.159 3.533,0c0.494,-0.106 1.008,-0.21 1.501,-0.371c1.094,-0.331 2.126,-0.837 3.057,-1.498c0.539,-0.369 1.042,-0.789 1.501,-1.254c6.784,-6.749 10.596,-15.917 10.6,-25.475c0.01,-8.472 -2.647,-16.73 -7.598,-23.609c-0.694,-0.951 -1.418,-1.87 -2.174,-2.752l0.004,0.004c-2.702,-3.113 -5.007,-6.55 -6.856,-10.228l-1.767,-3.685l-1.767,3.685c-1.863,3.681 -4.175,7.118 -6.89,10.228c-0.752,0.881 -1.477,1.797 -2.174,2.751v-0.003c-4.948,6.88 -7.608,15.138 -7.594,23.609z" fill="currentColor"/>
<path d="M14.785,54.974c2.48,2.951 5.358,5.544 8.553,7.707c0.794,0.53 1.574,1.023 2.402,1.481c4.106,2.369 8.636,3.908 13.336,4.528c-1.849,-1.009 -3.623,-2.159 -5.3,-3.437c-4.237,-3.254 -7.794,-7.3 -10.475,-11.918c-3.958,-6.874 -6.045,-14.66 -6.059,-22.587c0,-1.092 0,-2.221 0.141,-3.333l-0.935,0.158v0.004c-4.075,0.764 -8.229,1.019 -12.366,0.757l-4.082,-0.231l2.243,3.386c2.274,3.426 4.12,7.114 5.496,10.985c1.595,4.549 3.982,8.777 7.046,12.5z" fill="currentColor"/>
<path d="M35.508,60.755c-0.931,-1.58 -1.76,-3.223 -2.474,-4.917c-2.015,-4.942 -3.033,-10.231 -3.002,-15.568c-0.041,-9.095 2.716,-17.98 7.898,-25.459l-0.352,-0.141h-0.003c-3.906,-1.364 -7.626,-3.203 -11.076,-5.486l-3.533,-2.238l0.265,4.056c0,0.989 0.09,1.956 0.09,2.945h-0.003c0,3.147 -0.297,6.288 -0.884,9.38c-0.231,1.199 -0.39,2.414 -0.531,3.616c-0.141,1.198 -0.159,2.538 -0.159,3.809l0.004,-0.004c0.007,7.122 1.884,14.119 5.441,20.294c2.174,3.705 4.99,6.997 8.319,9.715z" fill="currentColor"/>
<path d="M101.935,28.369c-4.137,0.261 -8.292,0.006 -12.367,-0.758l-0.935,-0.158c0,1.112 0.142,2.238 0.142,3.333v-0.003c-0.014,7.927 -2.102,15.713 -6.059,22.586c-2.682,4.618 -6.239,8.668 -10.476,11.919c-1.677,1.281 -3.45,2.428 -5.3,3.44c4.7,-0.623 9.234,-2.163 13.337,-4.532c0.831,-0.458 1.608,-0.95 2.401,-1.481h0.004c3.191,-2.162 6.069,-4.755 8.55,-7.706c3.064,-3.699 5.455,-7.907 7.067,-12.429c1.369,-3.894 3.215,-7.61 5.493,-11.057l2.208,-3.42z" fill="currentColor"/>
<path d="M75.965,40.27c0.041,7.193 -1.849,14.27 -5.476,20.485c3.302,-2.723 6.097,-6.012 8.25,-9.714c3.554,-6.175 5.431,-13.172 5.442,-20.294c0,-1.271 0,-2.555 -0.159,-3.809c-0.159,-1.253 -0.3,-2.414 -0.531,-3.615v0.003c-0.584,-3.092 -0.88,-6.233 -0.884,-9.381c0,-0.988 0,-1.956 0.09,-2.944l0.335,-4.056l-3.534,2.238c-3.45,2.283 -7.17,4.122 -11.076,5.486l-0.352,0.141h-0.003c5.152,7.493 7.905,16.37 7.898,25.458z" fill="currentColor"/>
<path d="M43.776,73.594c-7.139,-0.004 -14.153,-1.881 -20.334,-5.448c-1.608,-0.906 -3.147,-1.925 -4.61,-3.051c-4.627,2.841 -8.674,6.532 -11.925,10.878l12.05,3.42c7.035,2.032 14.571,1.436 21.199,-1.674c0.652,-0.299 1.274,-0.616 1.891,-0.971c1.636,-0.912 3.185,-1.976 4.627,-3.171c-0.952,0 -1.925,0.017 -2.898,0.017z" fill="currentColor"/>
<path d="M87.166,65.095c-1.467,1.115 -3.009,2.135 -4.61,3.051c-6.18,3.567 -13.195,5.444 -20.334,5.447h-2.881c1.442,1.195 2.991,2.259 4.63,3.172c0.618,0.351 1.235,0.671 1.891,0.971h-0.004c6.629,3.11 14.164,3.705 21.2,1.674l12.032,-3.437c-3.251,-4.346 -7.297,-8.037 -11.924,-10.878z" fill="currentColor"/>
<path d="M52.999,73.821c-2.74,2.958 -5.966,5.427 -9.541,7.301c1.953,4.538 5.29,8.347 9.541,10.878c4.24,-2.534 7.577,-6.333 9.54,-10.861c-3.588,-1.859 -6.818,-4.336 -9.54,-7.318z" fill="currentColor"/>
</g></svg>