<svg width="106" height="92" viewBox="0 0 106 92" fill="none" xmlns="http://www.w3.org/2000/svg">
<path d="M34.5736 40.2697C34.5667 45.0047 35.4983 49.698 37.3099 54.075C39.1179 58.4449 41.7782 62.4119 45.139 65.7451C45.5979 66.21 46.0982 66.6301 46.6399 66.9986C47.5681 67.6598 48.6033 68.166 49.697 68.4966C50.1904 68.655 50.7045 68.7617 51.1979 68.8685C52.3711 69.0269 53.5581 69.0269 54.7312 68.8685C55.2246 68.7617 55.7387 68.6584 56.2321 68.4966C57.326 68.166 58.3576 67.6598 59.2892 66.9986C59.8275 66.6301 60.3313 66.21 60.7902 65.7451C67.5738 58.9957 71.3865 49.8285 71.39 40.2697C71.4004 31.7984 68.7435 23.5403 63.792 16.6606C63.0985 15.7102 62.3739 14.7907 61.6183 13.9091L61.6217 13.9126C58.92 10.7996 56.6151 7.36282 54.7657 3.68467L52.999 0L51.2324 3.68467C49.3691 7.3659 47.0573 10.8026 44.3418 13.9126C43.5896 14.7941 42.865 15.7102 42.168 16.664V16.6606C37.22 23.5409 34.5598 31.7988 34.5736 40.2697Z" fill="#D80ADA"/>
<path d="M14.7846 54.9742C17.2655 57.9254 20.1432 60.5184 23.3383 62.681C24.1319 63.2113 24.9117 63.7038 25.7399 64.1617C29.8459 66.5309 34.3764 68.0702 39.0762 68.6901C37.2267 67.6811 35.4532 66.5309 33.7763 65.2534C29.5391 61.9992 25.9817 57.953 23.301 53.3346C19.3433 46.4612 17.2558 38.6751 17.242 30.7481C17.242 29.6565 17.242 28.527 17.3835 27.4148L16.4484 27.5732V27.5766C12.3734 28.3411 8.21902 28.5959 4.08191 28.3342L0 28.1035L2.24284 31.4885C4.51668 34.9149 6.36273 38.603 7.73947 42.4737C9.3336 47.0227 11.7205 51.2513 14.7846 54.9742Z" fill="#D80ADA"/>
<path d="M35.5082 60.7555C34.5765 59.1748 33.7484 57.5323 33.0342 55.838C31.0191 50.8964 30.0012 45.6075 30.0323 40.2696C29.9909 31.1754 32.7478 22.2901 37.9304 14.811L37.5784 14.6698H37.575C33.669 13.3061 29.9495 11.4672 26.499 9.18407L22.9658 6.94569L23.2315 11.0023C23.2315 11.9906 23.3212 12.9583 23.3212 13.9465H23.3177C23.3177 17.094 23.021 20.2345 22.4344 23.3272C22.2032 24.5256 22.0445 25.7412 21.903 26.9431C21.7616 28.1415 21.7443 29.481 21.7443 30.7517L21.7478 30.7482C21.7547 37.8696 23.6317 44.8674 27.1892 51.0418C29.3629 54.7471 32.1785 58.0392 35.5083 60.7566L35.5082 60.7555Z" fill="#D80ADA"/>
<path d="M101.935 28.3686C97.7975 28.6303 93.6432 28.3755 89.5682 27.611L88.6331 27.4526C88.6331 28.5649 88.7746 29.691 88.7746 30.786V30.7825C88.7608 38.7097 86.6732 46.4955 82.7155 53.369C80.0345 57.9869 76.4771 62.0366 72.2402 65.2878C70.5633 66.5688 68.7898 67.7155 66.9403 68.7279C71.6398 68.1046 76.1737 66.5653 80.2767 64.1961C81.1082 63.7381 81.8846 63.2457 82.6783 62.7154H82.6817C85.8734 60.5528 88.7511 57.9598 91.232 55.0086C94.296 51.3102 96.6872 47.102 98.2985 42.5803C99.6684 38.6856 101.514 34.9699 103.792 31.5229L106 28.1034L101.935 28.3686Z" fill="#D80ADA"/>
<path d="M75.9651 40.2697C76.0065 47.4634 74.1156 54.5404 70.4892 60.7555C73.7913 58.0316 76.5861 54.7429 78.7392 51.0406C82.2932 44.8663 84.1702 37.8692 84.1806 30.7471C84.1806 29.4764 84.1806 28.1919 84.0219 26.9384C83.8632 25.685 83.7217 24.5245 83.4905 23.3226V23.3261C82.9074 20.2337 82.6107 17.0932 82.6072 13.9454C82.6072 12.957 82.6072 11.9893 82.6969 11.0011L83.0316 6.94451L79.4984 9.18289C76.0479 11.466 72.3283 13.3049 68.4224 14.6686L68.0705 14.8098H68.067C73.2185 22.3031 75.972 31.1804 75.9651 40.2684L75.9651 40.2697Z" fill="#D80ADA"/>
<path d="M43.776 73.5937C36.637 73.5902 29.6226 71.7135 23.442 68.1459C21.8341 67.2402 20.2952 66.2209 18.8321 65.0949C14.205 67.9359 10.1577 71.6274 6.90733 75.9734L18.9567 79.3929C25.9922 81.4246 33.5279 80.8288 40.1564 77.7193C40.8085 77.4197 41.4296 77.1029 42.0472 76.7482C43.6827 75.8356 45.232 74.7715 46.6743 73.5766C45.722 73.5766 44.749 73.5937 43.776 73.5937Z" fill="#D80ADA"/>
<path d="M87.1656 65.0945C85.6991 66.2102 84.1568 67.2296 82.5557 68.1455C76.3759 71.7131 69.3607 73.5899 62.2217 73.5933H59.3405C60.7828 74.7883 62.3321 75.8523 63.9711 76.7649C64.5887 77.1162 65.2063 77.4364 65.8619 77.736H65.8585C72.4868 80.8456 80.0225 81.4413 87.0581 79.4096L99.0898 75.9729C95.8395 71.6271 91.7926 67.9356 87.1656 65.0945Z" fill="#D80ADA"/>
<path d="M52.9988 73.8211C50.259 76.7792 47.0329 79.2482 43.458 81.1215C45.411 85.6602 48.7476 89.4689 52.9988 92C57.2394 89.4655 60.576 85.6672 62.5395 81.1391C58.951 79.2796 55.7213 76.8033 52.9988 73.8211Z" fill="#D80ADA"/>
</svg>
