<svg width="73" height="74" viewBox="0 0 73 74" fill="none" xmlns="http://www.w3.org/2000/svg">
<path d="M25.059 68.255C22.5559 70.7291 22.2922 71.9776 22.5128 72.5891C22.7867 73.3351 24.0116 73.8223 26.0633 74L49.3693 67.5242C49.4124 67.5115 49.453 67.5039 49.4986 67.509C58.4813 67.9175 64.0199 66.6894 66.409 63.7508C67.9383 61.8706 68.2299 59.2619 67.3271 55.5521C57.3602 53.8469 43.9166 57.8867 25.0566 68.2578L25.059 68.255Z" fill="white"/>
<path d="M45.7914 9.00292C45.7914 4.03699 41.754 0 36.7912 0C31.8282 0 27.7936 4.03978 27.7936 9.00292C27.7936 13.9689 31.831 18.0058 36.7912 18.0058C41.7542 18.0084 45.7914 13.9687 45.7914 9.00292Z" fill="white"/>
<path d="M24.2092 67.5209L24.5338 67.6123C24.5566 67.592 24.5794 67.5742 24.6073 67.5565C28.5712 65.3767 32.2864 63.4863 35.8039 61.8572C23.5017 56.3279 13.8191 54.26 6.25367 55.5565C5.34833 59.2664 5.64248 61.875 7.17174 63.7552C9.56071 66.6911 15.0891 67.9219 24.0822 67.5133C24.1253 67.5032 24.1659 67.5108 24.209 67.5235L24.2092 67.5209Z" fill="white"/>
<path d="M69.7616 44.2825C69.0312 44.0947 68.2501 44.2114 67.6085 44.5997C65.113 46.1298 62.8787 46.6297 60.9643 46.0968C59.1079 45.5766 57.5228 44.0668 56.2574 41.6105L51.4465 26.817C51.2385 26.1826 50.7034 25.7233 50.0466 25.6116L43.567 24.5306C43.4934 24.5179 43.425 24.485 43.3666 24.4393C41.7766 23.0919 40.5719 21.1684 39.5854 18.4329C38.6953 18.6968 37.7569 18.8466 36.7882 18.8466C35.6216 18.8466 34.5083 18.6334 33.4735 18.2578C32.4768 21.0872 31.2494 23.0639 29.6289 24.4393C29.5705 24.4875 29.5021 24.5205 29.4285 24.5306L22.9489 25.6116C22.2921 25.7233 21.757 26.1826 21.549 26.817L16.7635 41.5501C15.4752 44.0673 13.8902 45.5771 12.0312 46.0973C10.1165 46.6328 7.88229 46.1303 5.38705 44.6002C4.7505 44.2094 3.96939 44.0978 3.24407 44.283C1.53226 44.6915 0.527967 45.3742 0.160245 46.3638C-0.357111 47.7518 0.380878 49.8554 2.3362 52.6137C8.89469 54.2885 13.9515 53.7886 17.3723 51.1216L25.1377 41.167C25.2493 41.0275 25.4319 40.9716 25.6018 41.03C25.7717 41.0884 25.8808 41.2431 25.8808 41.4233V57.0925C29.2816 58.1938 32.9184 59.6249 36.806 61.3987C40.4731 59.729 43.9118 58.3511 47.1202 57.2828V41.4155C47.1202 41.2379 47.2344 41.0806 47.3992 41.0222C47.5641 40.9638 47.7543 41.0197 47.8633 41.1592L55.6287 51.1138C59.0498 53.7808 64.107 54.2807 70.6648 52.6059C72.6201 49.8476 73.3555 47.744 72.8408 46.356C72.473 45.3689 71.4688 44.6863 69.7645 44.2803L69.7616 44.2825Z" fill="white"/>
</svg>
