<svg width="56" height="70" viewBox="0 0 56 70" fill="none" xmlns="http://www.w3.org/2000/svg">
<path d="M54.1079 26.4978H50.9682C49.9454 26.4978 49.1433 25.8351 48.9227 24.804C48.8491 24.2896 48.7756 23.773 48.6308 23.3327C48.4124 22.3757 48.9227 21.4188 49.8719 21.0504L52.7933 19.8733C53.669 19.5049 54.108 18.4738 53.7425 17.5169C53.3771 16.634 52.3543 16.1915 51.405 16.5599L48.4837 17.737C47.608 18.1054 46.5117 17.8111 46.0013 17.0002C45.7094 16.5577 45.4911 16.1174 45.1992 15.749C44.6154 14.9404 44.7602 13.8352 45.4911 13.1725L47.7551 10.8902C48.4124 10.2275 48.4124 9.05042 47.7551 8.38772C47.0978 7.72508 45.9301 7.72508 45.2727 8.38772L43.0087 10.67C42.3514 11.3327 41.2573 11.4787 40.4528 10.9643C40.0139 10.67 39.6507 10.3758 39.2117 10.1556C38.4095 9.64123 38.044 8.53604 38.4808 7.65321L39.722 4.70826C40.0139 3.6053 39.5771 2.57427 38.7014 2.20583C37.7521 1.83743 36.7294 2.27996 36.3639 3.16279L35.1227 6.10773C34.7573 6.99056 33.808 7.57908 32.8587 7.35895C32.3484 7.28482 31.9094 7.13881 31.3991 7.06468C30.4499 6.91642 29.719 6.03359 29.719 5.07669V1.76561C29.719 0.80865 28.9168 0 27.9676 0C27.0183 0 26.2161 0.80865 26.2161 1.76561V5.00481C26.2161 5.96177 25.5588 6.84454 24.536 6.99279C24.0257 7.06693 23.5867 7.14105 23.0764 7.28707C22.1272 7.5072 21.1779 6.9928 20.8124 6.03585L19.5713 3.01902C19.2058 2.13619 18.183 1.69368 17.2337 2.06206C16.358 2.43047 15.919 3.46153 16.2845 4.41849L17.5256 7.43532C17.8911 8.31815 17.5992 9.4233 16.7948 9.93775C16.3558 10.232 15.9926 10.4522 15.5536 10.7464C14.7514 11.3349 13.6551 11.1889 12.9977 10.5263L10.7337 8.24396C10.0764 7.50719 8.90874 7.50719 8.25136 8.24396C7.59403 8.9066 7.59403 10.0837 8.25136 10.7464L10.5889 13.0287C11.2462 13.6913 11.391 14.8684 10.8073 15.6794C10.5153 16.0478 10.2235 16.488 10.0051 16.8565C9.49481 17.6651 8.39848 18.0336 7.52273 17.5932L4.53011 16.342C3.65435 15.9736 2.6316 16.4162 2.19258 17.299C1.82714 18.1818 2.26612 19.2128 3.14187 19.6554L6.13449 20.9066C7.01024 21.275 7.59404 22.232 7.37567 23.2631C7.30213 23.7775 7.1573 24.22 7.08376 24.7344C6.93669 25.6914 6.06095 26.4281 5.03819 26.4281H1.75145C0.802163 26.4281 0 27.2368 0 28.1937C0 29.1507 0.802163 29.9593 1.75145 29.9593H4.96466C5.98747 29.9593 6.78964 30.622 7.01023 31.6531C7.08377 32.1675 7.1573 32.61 7.30214 33.1244C7.52051 34.0814 7.01023 35.0383 6.06096 35.4067L3.06833 36.6579C2.19258 37.0263 1.75362 38.0574 2.11905 39.0144C2.41096 39.677 3.06833 40.1196 3.72566 40.1196C3.94403 40.1196 4.16464 40.1196 4.38299 39.9713L7.37561 38.7201C8.25136 38.3517 9.34765 38.646 9.85797 39.5288C10.6601 40.8541 11.6094 42.1053 12.7058 43.2082L16.3557 38.0552C17.2315 36.8039 18.4013 35.6987 19.7138 35.0383C18.2542 33.1986 17.3762 30.8422 17.3762 28.34C17.3762 22.4526 22.1225 17.5933 28.0368 17.5933C33.951 17.5933 38.6973 22.378 38.6973 28.34C38.6973 30.9166 37.8215 33.1988 36.3598 35.0383C37.6745 35.701 38.8421 36.8039 39.7178 38.0552L43.3678 43.2082C44.3906 42.103 45.3398 40.9259 46.142 39.6748C46.6523 38.8661 47.7486 38.4977 48.6244 38.938L51.5457 40.1151C51.7641 40.1892 51.9847 40.2633 52.203 40.2633C52.8604 40.2633 53.5177 39.8208 53.8096 39.1581C54.1751 38.2753 53.7361 37.1701 52.8604 36.8017L50.0126 35.6246C49.1368 35.2562 48.553 34.2993 48.7714 33.2682C48.8449 32.7538 48.9898 32.2371 49.0633 31.7968C49.2104 30.8399 50.0861 30.1031 51.1089 30.1031H54.2486C55.1978 30.1031 56 29.2945 56 28.3375C55.8596 27.3064 55.0572 26.4978 54.1079 26.4978Z" fill="#D80ADA"/>
<path d="M49.436 50.9355L42.6465 47.4021C41.8443 46.9596 41.1134 46.371 40.6009 45.6365L36.659 40.0431C35.7833 38.866 34.5421 37.981 33.1539 37.5406C31.6208 38.4235 29.7959 38.9401 27.8973 38.9401C25.9988 38.9401 24.1739 38.4257 22.6408 37.5406C21.2525 37.9832 20.0114 38.866 19.1357 40.0431L15.1938 45.6365C14.6835 46.3732 13.9526 46.9618 13.1482 47.4021L6.35873 50.9355C4.82565 51.7442 4.16832 53.6581 4.97049 55.2777C5.77265 56.8232 7.74474 57.4858 9.27782 56.6772L16.0673 53.1437C17.7474 52.2609 19.207 50.9356 20.3746 49.3901L20.4482 49.2419V56.9713L9.93253 62.4186C8.18108 63.3015 7.37664 65.3636 7.96049 67.2774C8.54429 68.9712 10.0061 70 11.684 70C11.9023 70 12.1943 70 12.4148 69.9259L25.2653 67.6436C26.9454 67.3493 28.6234 67.3493 30.3035 67.6436L43.154 69.9259C43.3723 70 43.5929 70 43.8848 70C45.565 70 47.098 68.8948 47.6083 67.2774C48.2656 65.3636 47.4612 63.3755 45.6363 62.4186L35.1206 56.9713L35.1229 49.1677L35.1964 49.3159C36.2927 50.8614 37.7523 52.1868 39.5037 53.0695L46.2932 56.603C46.8035 56.8231 47.2425 56.9714 47.7528 56.9714C48.9204 56.9714 50.0167 56.3829 50.6005 55.2058C51.6256 53.6581 50.9691 51.7442 49.436 50.9355Z" fill="#D80ADA"/>
<path d="M35.051 28.1896C35.051 32.1342 31.8801 35.3307 27.9694 35.3307C24.0565 35.3307 20.8856 32.1342 20.8856 28.1896C20.8856 24.2473 24.0565 21.0508 27.9694 21.0508C31.8802 21.0508 35.051 24.2473 35.051 28.1896Z" fill="#D80ADA"/>
</svg>
