<svg viewBox="0 0 24 24" fill="none" xmlns="http://www.w3.org/2000/svg" x="0" y="0"><path id="Vector_5" d="M23.78,9.723c-0.583,-3.031 -2.314,-5.721 -4.834,-7.509c-2.519,-1.787 -5.632,-2.535 -8.69,-2.087c-3.057,0.448 -5.824,2.057 -7.723,4.492c-1.899,2.435 -2.784,5.508 -2.471,8.579c0.228,2.051 0.978,4.01 2.178,5.691c1.199,1.681 2.809,3.028 4.676,3.913c1.568,0.773 3.291,1.182 5.039,1.198h0.015c0.477,0.002 0.95,-0.091 1.392,-0.272c0.442,-0.182 0.843,-0.45 1.18,-0.787c0.336,-0.332 0.603,-0.727 0.785,-1.162c0.181,-0.435 0.275,-0.902 0.274,-1.374v-1.03c-0.016,-0.17 0.003,-0.341 0.055,-0.503c0.052,-0.162 0.137,-0.311 0.25,-0.439c0.112,-0.128 0.249,-0.232 0.403,-0.305c0.154,-0.073 0.322,-0.113 0.492,-0.119h3.24c0.75,0.004 1.483,-0.228 2.095,-0.663c0.611,-0.435 1.069,-1.052 1.309,-1.763c0.601,-1.894 0.716,-3.909 0.335,-5.86zM5.403,13.216c-0.237,0 -0.469,-0.071 -0.666,-0.202c-0.198,-0.132 -0.351,-0.319 -0.442,-0.538c-0.091,-0.219 -0.115,-0.46 -0.068,-0.692c0.046,-0.233 0.16,-0.446 0.328,-0.614c0.168,-0.167 0.381,-0.282 0.614,-0.328c0.233,-0.046 0.474,-0.022 0.693,0.068c0.22,0.091 0.407,0.245 0.539,0.442c0.132,0.197 0.202,0.428 0.202,0.665c0,0.318 -0.126,0.623 -0.351,0.848c-0.225,0.224 -0.531,0.351 -0.849,0.351zM8.651,8.671c-0.168,0.167 -0.381,0.281 -0.614,0.328c-0.233,0.046 -0.474,0.022 -0.693,-0.068c-0.22,-0.091 -0.407,-0.245 -0.539,-0.442c-0.132,-0.197 -0.202,-0.428 -0.202,-0.666c0,-0.237 0.07,-0.468 0.202,-0.665c0.132,-0.197 0.319,-0.351 0.539,-0.442c0.219,-0.09 0.46,-0.114 0.693,-0.068c0.233,0.047 0.446,0.161 0.614,0.328c0.225,0.225 0.351,0.53 0.351,0.847c0,0.318 -0.126,0.623 -0.351,0.848zM12.097,6.725c-0.237,0 -0.469,-0.071 -0.667,-0.202c-0.197,-0.132 -0.351,-0.319 -0.442,-0.538c-0.09,-0.219 -0.114,-0.46 -0.068,-0.692c0.046,-0.233 0.161,-0.446 0.328,-0.614c0.168,-0.167 0.382,-0.282 0.615,-0.328c0.232,-0.046 0.474,-0.022 0.693,0.068c0.219,0.091 0.407,0.245 0.538,0.442c0.132,0.197 0.203,0.428 0.203,0.665c0,0.318 -0.127,0.623 -0.352,0.848c-0.225,0.224 -0.53,0.351 -0.848,0.351zM17.049,8.671c-0.167,0.167 -0.381,0.281 -0.614,0.328c-0.233,0.046 -0.474,0.022 -0.693,-0.068c-0.219,-0.091 -0.407,-0.245 -0.539,-0.442c-0.131,-0.197 -0.202,-0.428 -0.202,-0.666c0,-0.237 0.071,-0.468 0.202,-0.665c0.132,-0.197 0.32,-0.351 0.539,-0.442c0.219,-0.09 0.46,-0.114 0.693,-0.068c0.233,0.047 0.447,0.161 0.614,0.328c0.225,0.225 0.352,0.53 0.352,0.847c0,0.318 -0.127,0.623 -0.352,0.848z" fill="#1A56DB"/></svg>