<svg width="62" height="66" viewBox="0 0 62 66" fill="none" xmlns="http://www.w3.org/2000/svg">
<path d="M55.2991 29.4057C55.0266 19.5747 51.6096 14.0849 51.4712 13.8732C45.0099 3.28354 36.3745 0.523822 30.2643 0.0696281C21.0969 -0.605354 11.2396 3.67158 5.17187 10.9675C-5.56457 23.8671 2.95345 42.5367 7.99706 47.4566C12.1209 51.4657 11.5759 57.202 11.5759 57.2596C11.5674 57.3089 11.5631 57.3582 11.5631 57.4139V64.5965C11.5631 65.3701 12.189 66 12.9576 66H38.9357C39.7043 66 40.3302 65.3701 40.3302 64.5965V58.025L46.0595 57.9693C50.8306 57.9285 54.7096 53.9816 54.7096 49.1778V43.6945L58.6504 43.583C58.6908 43.583 58.7355 43.583 58.7696 43.5745C60.7858 43.3366 61.5607 42.2824 61.8546 41.4318C62.176 40.5275 62.6146 37.0027 55.3034 29.4044L55.2991 29.4057ZM23.1595 39.3628C23.1595 40.1364 22.5379 40.7663 21.765 40.7663C20.9901 40.7663 20.3705 40.1364 20.3705 39.3628V28.6641L16.9854 25.2571C16.5384 25.3964 16.0636 25.4693 15.5675 25.4693C12.8807 25.4693 10.6985 23.2729 10.6985 20.5688C10.6985 17.8646 12.8807 15.6619 15.5675 15.6619C18.2543 15.6619 20.4429 17.8582 20.4429 20.5688C20.4429 21.743 20.032 22.8144 19.3422 23.665L22.755 27.0913C23.0148 27.3527 23.1574 27.7084 23.1574 28.0813V39.3648L23.1595 39.3628ZM30.0683 21.8243V39.1314C30.0683 39.9049 29.4466 40.5349 28.6738 40.5349C27.8988 40.5349 27.2793 39.9049 27.2793 39.1314V21.8243C25.2716 21.22 23.8047 19.3451 23.8047 17.1252C23.8047 14.4211 25.987 12.2184 28.6738 12.2184C31.3606 12.2184 33.5492 14.4232 33.5492 17.1252C33.5492 19.3451 32.0781 21.2179 30.0683 21.8243ZM40.8325 25.4669C40.345 25.4669 39.8702 25.3962 39.4146 25.2548L36.0295 28.6618V39.3605C36.0295 40.1341 35.4078 40.764 34.635 40.764C33.86 40.764 33.2405 40.1341 33.2405 39.3605V28.077C33.2405 27.7042 33.3874 27.3485 33.6514 27.0871L37.0557 23.6608C36.3723 22.8101 35.9592 21.7388 35.9592 20.5645C35.9592 17.854 38.1415 15.6577 40.8283 15.6577C43.5151 15.6577 45.7037 17.854 45.7037 20.5645C45.7037 23.2751 43.5214 25.465 40.8283 25.465L40.8325 25.4669Z" fill="#D80ADA"/>
<path d="M30.7583 17.1233C30.7583 18.2804 29.8237 19.221 28.674 19.221C27.5243 19.221 26.594 18.2804 26.594 17.1233C26.594 15.9662 27.5201 15.0255 28.674 15.0255C29.8237 15.0255 30.7583 15.9662 30.7583 17.1233Z" fill="#D80ADA"/>
<path d="M42.9194 20.5626C42.9194 21.7155 41.9848 22.6561 40.8351 22.6561C39.6855 22.6561 38.7551 21.7155 38.7551 20.5626C38.7551 19.4098 39.6897 18.4649 40.8351 18.4649C41.9806 18.4649 42.9194 19.4055 42.9194 20.5626Z" fill="#D80ADA"/>
<path d="M17.6608 20.5626C17.6608 21.7155 16.7262 22.6561 15.5765 22.6561C14.4268 22.6561 13.4965 21.7155 13.4965 20.5626C13.4965 19.4098 14.4226 18.4649 15.5765 18.4649C16.7262 18.4649 17.6608 19.4055 17.6608 20.5626Z" fill="#D80ADA"/>
</svg>
