<svg width="96" height="87" viewBox="0 0 96 87" fill="none" xmlns="http://www.w3.org/2000/svg">
<path d="M47.9978 0C47.7032 0 47.4186 0.116495 47.2076 0.322858C46.9967 0.532545 46.8828 0.812135 46.8828 1.10837V9.05657C46.8828 9.34947 47 9.63238 47.2076 9.84208C47.4185 10.0518 47.6998 10.1649 47.9978 10.1649C48.2924 10.1649 48.577 10.0484 48.788 9.84208C48.9989 9.63239 49.1128 9.3528 49.1128 9.05657V1.10837C49.1128 0.815466 48.9956 0.532553 48.788 0.322858C48.577 0.113172 48.2958 0 47.9978 0ZM47.9978 11.912C47.7032 11.912 47.4186 12.0285 47.2076 12.2348C46.9967 12.4445 46.8828 12.7241 46.8828 13.0203V27.6419C46.8862 28.2476 47.3884 28.7369 47.9978 28.7369C48.6105 28.7369 49.1094 28.2477 49.1128 27.6419V13.0203C49.1128 12.7274 48.9956 12.4445 48.788 12.2348C48.5771 12.0251 48.2958 11.912 47.9978 11.912ZM37.9864 18.6187C37.896 18.622 37.8056 18.6387 37.7253 18.6686C37.511 18.7452 37.3369 18.9083 37.2398 19.1113C37.146 19.3143 37.1326 19.5506 37.213 19.7637L40.377 28.3577C40.5444 28.797 41.0366 29.0233 41.4786 28.8602C41.9206 28.6938 42.1482 28.2079 41.9842 27.7652L38.8201 19.1712C38.6929 18.825 38.3514 18.5987 37.9831 18.6186L37.9864 18.6187ZM27.7145 18.7052C27.4801 18.6786 27.2457 18.7319 27.0415 18.845C26.5158 19.1512 26.3317 19.8302 26.6397 20.3528L30.0883 26.304C30.239 26.5603 30.4767 26.7466 30.7646 26.8199C31.0526 26.8964 31.3506 26.8532 31.6084 26.71C32.1307 26.4038 32.3149 25.7382 32.0169 25.2089L28.5581 19.2478C28.384 18.9416 28.0659 18.7352 27.7144 18.7019L27.7145 18.7052ZM68.288 18.7052H68.2846C67.9331 18.7385 67.615 18.9449 67.4409 19.2511L63.9621 25.2555C63.6541 25.7781 63.8382 26.4571 64.3639 26.7633C64.8962 27.0562 65.5625 26.8798 65.8672 26.3572L69.3627 20.3528C69.6708 19.8302 69.4866 19.1512 68.9542 18.845C68.7533 18.7285 68.5156 18.6786 68.2812 18.7052H68.288ZM57.8686 18.7918C57.7949 18.8018 57.7213 18.8217 57.6543 18.8483C57.4434 18.9349 57.276 19.0946 57.1856 19.3043L53.526 27.8915C53.4356 28.1012 53.4356 28.3375 53.5227 28.5472C53.6097 28.7569 53.7704 28.9267 53.9847 29.0165C54.4166 29.1896 54.9155 28.9899 55.0997 28.5605L58.7559 19.9665C58.8463 19.7568 58.8463 19.5239 58.7592 19.3142C58.6722 19.1012 58.5115 18.9347 58.3005 18.8449C58.1633 18.7883 58.0126 18.7716 57.8686 18.7883L57.8686 18.7918ZM20.7708 26.4271C20.5967 26.4537 20.4293 26.5303 20.2953 26.6501C20.1279 26.8032 20.0308 27.0195 20.0241 27.2459C20.0141 27.4722 20.1011 27.6919 20.2585 27.8583L27.9058 35.923H27.9025C28.2272 36.2592 28.7596 36.2725 29.1078 35.9563C29.2752 35.8032 29.3689 35.5868 29.379 35.3605C29.389 35.1342 29.302 34.9145 29.1446 34.7514L21.504 26.6867C21.3165 26.4903 21.0453 26.3971 20.7741 26.4271L20.7708 26.4271ZM63.6414 26.8997C63.5443 26.8997 63.4439 26.913 63.3501 26.9397C63.0689 27.0162 62.8278 27.2026 62.6805 27.4556L60.7687 30.7407H60.7653C60.7151 30.8339 60.6749 30.9371 60.6548 31.0436C60.6515 31.0569 60.6448 31.0702 60.6414 31.0836C60.6213 31.1867 60.6146 31.2866 60.6247 31.3931C60.6247 31.4097 60.628 31.4264 60.6347 31.4497C60.6481 31.5396 60.6682 31.6294 60.7017 31.7126C60.7117 31.7259 60.7151 31.7393 60.7184 31.7559C60.762 31.8458 60.8155 31.929 60.8825 32.0022C60.8992 32.0222 60.9227 32.0455 60.9394 32.0621C61.0064 32.1353 61.0901 32.1986 61.1738 32.2485C61.2608 32.2984 61.3579 32.335 61.4517 32.3583C61.4818 32.3683 61.5086 32.3717 61.532 32.3783C61.6291 32.3949 61.7296 32.3983 61.8267 32.3916C61.8434 32.3883 61.8568 32.3883 61.8736 32.3816C61.9774 32.3683 62.0778 32.3417 62.1783 32.3018C62.1783 32.2984 62.1816 32.2984 62.1816 32.2984C62.2787 32.2552 62.3691 32.1952 62.4461 32.1287C62.4595 32.1154 62.4729 32.1021 62.4896 32.0887C62.5666 32.0222 62.637 31.9356 62.6872 31.8458L64.3144 29.0366H64.3177C64.3345 29.0066 64.3512 28.9733 64.3679 28.94L64.5956 28.5473C64.8969 28.0247 64.7161 27.3558 64.1871 27.0528C64.0197 26.9563 63.8255 26.9031 63.6347 26.8997L63.6414 26.8997ZM94.7427 26.9197V26.923C94.5954 26.9397 94.4548 26.9896 94.3309 27.0628L87.4938 30.987C87.2394 31.1335 87.0519 31.3731 86.9749 31.6594C86.9012 31.939 86.9414 32.2418 87.0921 32.4981C87.3967 33.0207 88.0764 33.2037 88.6087 32.8975L95.4458 28.97H95.4425C95.9748 28.6638 96.1523 27.9915 95.8509 27.4623C95.7036 27.2093 95.4659 27.0229 95.1813 26.9464C95.034 26.9064 94.89 26.8997 94.7427 26.9197ZM1.24601 26.9264C0.804054 26.8698 0.372159 27.0795 0.147846 27.4622C-0.156842 27.9914 0.023963 28.6638 0.556323 28.97L8.04292 33.2736C8.30073 33.4234 8.60541 33.46 8.89001 33.3801C9.17796 33.3036 9.41568 33.1172 9.563 32.8609C9.85764 32.3317 9.67349 31.6627 9.14448 31.3664L1.65788 27.0628C1.53065 26.9896 1.39334 26.943 1.24601 26.9264ZM32.5316 27.1993H32.5349C32.3374 27.2026 32.1465 27.2559 31.9791 27.3524C31.4468 27.6553 31.2693 28.3309 31.5706 28.8601L33.3016 31.8424C33.4523 32.0953 33.6967 32.2817 33.978 32.3583C34.2659 32.4315 34.5706 32.3916 34.8217 32.2418C35.3541 31.9356 35.5315 31.2633 35.2302 30.7341L33.4959 27.7518C33.3485 27.4988 33.1108 27.3125 32.8262 27.2359C32.7291 27.2093 32.632 27.196 32.5349 27.196L32.5316 27.1993ZM73.0785 28.0314H73.0819C72.8509 28.0347 72.6265 28.1379 72.4725 28.3076L66.4893 34.5817C66.1678 34.9279 66.1846 35.4537 66.5227 35.7799C66.6868 35.9363 66.9078 36.0229 67.1354 36.0195C67.3631 36.0162 67.5808 35.923 67.7381 35.7566L73.7247 29.4825C73.8787 29.3161 73.9658 29.0964 73.9557 28.8701C73.9457 28.6438 73.8486 28.4308 73.6812 28.2743C73.5171 28.1212 73.3028 28.0313 73.0785 28.0347L73.0785 28.0314ZM49.4438 31.8458C38.9173 31.8458 30.3896 40.3265 30.3922 50.7907C29.1734 53.9061 23.1634 57.3077 25.5239 60.466L29.0395 61.0851L28.4402 65.1125C28.2694 66.2708 29.16 67.3192 30.3386 67.3359L33.4055 67.3858C33.4323 67.3858 33.4323 67.4291 33.4055 67.4291L30.3251 67.7153L29.7291 68.2079C30.7403 70.6609 29.5651 71.3433 29.7861 72.5947C30.2481 75.2108 32.5617 77.371 35.2403 77.371H36.6532C37.7815 77.371 38.8998 77.2345 39.988 76.9849L39.9846 76.9949L43.4701 78.4893L42.9444 80.2134L47.0962 87L73.1053 86.807L63.4359 67.3329C68.5887 64.5603 68.7528 59.3147 69.2316 49.5322C69.2416 39.068 59.9702 31.8415 49.4437 31.8415L49.4438 31.8458ZM11.3851 32.7411C11.2445 32.7211 11.0972 32.7278 10.9565 32.7611C10.6686 32.8377 10.4208 33.0207 10.2735 33.277C10.1228 33.5333 10.086 33.8362 10.163 34.1191C10.2434 34.3987 10.4342 34.6416 10.6887 34.7881L23.6598 42.2337H23.6564C23.9142 42.3802 24.2189 42.4201 24.5002 42.3436C24.7881 42.267 25.0325 42.084 25.1765 41.8277C25.4845 41.2985 25.3004 40.6261 24.768 40.3199L11.7866 32.8743C11.6628 32.8011 11.5221 32.7545 11.3782 32.7378L11.3851 32.7411ZM83.6462 33.2936C83.4989 33.3103 83.3583 33.3569 83.231 33.4268L71.2242 40.3233C70.6919 40.6295 70.5077 41.3018 70.8157 41.831C71.1238 42.3536 71.7934 42.5333 72.3258 42.2371L84.3523 35.344H84.3489C84.6067 35.1942 84.7909 34.9579 84.8679 34.6716C84.9449 34.3854 84.9014 34.0892 84.7574 33.8329C84.6067 33.5866 84.3623 33.4035 84.0844 33.3303C83.9438 33.2904 83.7965 33.2804 83.6525 33.297L83.6462 33.2936ZM14.9011 44.8264C14.5328 44.8697 14.2315 45.1459 14.1611 45.5087C14.1143 45.7317 14.1611 45.9614 14.285 46.1478C14.4123 46.3342 14.6064 46.4673 14.8308 46.5139L24.2327 48.4411C24.4571 48.4877 24.6914 48.4411 24.8789 48.3179C25.0731 48.1914 25.2004 47.9951 25.2472 47.7721C25.2908 47.549 25.2472 47.3194 25.1234 47.133C24.9961 46.94 24.8019 46.8135 24.5776 46.7669L15.1688 44.8397C15.0784 44.8231 14.988 44.8198 14.8976 44.8264H14.9011ZM85.2739 44.903L73.9605 46.7269C73.4985 46.8035 73.1804 47.2328 73.2507 47.6988C73.2909 47.9218 73.4148 48.1215 73.5989 48.2513C73.7831 48.3844 74.0141 48.4344 74.2418 48.4011L85.5423 46.5904C85.7666 46.5505 85.9675 46.4273 86.0981 46.2443C86.232 46.0612 86.2856 45.8316 86.2488 45.6052C86.1751 45.1459 85.7393 44.8298 85.2739 44.903ZM7.20055 53.8199C6.90591 53.8199 6.62132 53.9397 6.41038 54.1494C6.19944 54.3524 6.0856 54.6387 6.0856 54.9349C6.0856 55.2245 6.20613 55.5074 6.41038 55.7138C6.62131 55.9235 6.90256 56.0366 7.20055 56.0366H13.7698C14.061 56.0366 14.3456 55.9201 14.5532 55.7138C14.7642 55.5041 14.878 55.2245 14.878 54.9349C14.878 54.642 14.7608 54.3558 14.5532 54.1494C14.349 53.9397 14.0644 53.8199 13.7698 53.8199H7.20055ZM16.9437 53.8199C16.6491 53.8199 16.3645 53.9397 16.1536 54.1494C15.9493 54.3524 15.8321 54.6387 15.8321 54.9349C15.8321 55.2245 15.9493 55.5074 16.1569 55.7138C16.3611 55.9235 16.6457 56.0366 16.9404 56.0366H20.5363C20.831 56.0366 21.1156 55.9201 21.3265 55.7138C21.5375 55.5041 21.6513 55.2245 21.6513 54.9349C21.6513 54.642 21.5341 54.3558 21.3265 54.1494C21.1156 53.9397 20.8343 53.8199 20.5363 53.8199H16.9437ZM75.4537 53.8199C74.8444 53.8232 74.3521 54.3225 74.3521 54.9316C74.3521 55.5374 74.8443 56.03 75.4537 56.0367H79.3878C79.6825 56.0367 79.9671 55.9202 80.178 55.7138C80.3889 55.5108 80.5095 55.2245 80.5028 54.935C80.5061 54.6354 80.3856 54.3558 80.1814 54.1461C79.9704 53.9364 79.6858 53.8233 79.3878 53.8233L75.4537 53.8199ZM81.8957 53.8199C81.601 53.8199 81.3164 53.9397 81.1055 54.1494C80.8945 54.3524 80.7807 54.6387 80.7807 54.9349C80.7807 55.2245 80.9012 55.5074 81.1055 55.7138C81.3164 55.9235 81.5977 56.0366 81.8957 56.0366H88.8097H88.8063C89.101 56.0366 89.3856 55.9201 89.5965 55.7138C89.8074 55.5107 89.928 55.2245 89.9213 54.9349C89.9246 54.6354 89.8041 54.3558 89.5999 54.1461C89.3889 53.9364 89.1043 53.8232 88.8063 53.8232L81.8957 53.8199ZM74.5062 60.6531C74.1379 60.6431 73.8031 60.8761 73.6792 61.2189C73.6022 61.4319 73.6156 61.6649 73.7127 61.8713C73.8064 62.081 73.9839 62.2374 74.1982 62.3106L84.069 65.7954H84.0723C84.2866 65.8753 84.521 65.862 84.7286 65.7655C84.9395 65.6723 85.0969 65.4959 85.1739 65.2795C85.2509 65.0665 85.2375 64.8335 85.1404 64.6272C85.0466 64.4241 84.8692 64.2644 84.6516 64.1878L74.7679 60.703C74.6875 60.6731 74.5966 60.6564 74.5062 60.6531ZM22.2241 61.7082L12.4639 62.527C11.9918 62.5669 11.6402 62.9797 11.6804 63.4456C11.7206 63.9149 12.1358 64.2644 12.6045 64.2245L22.3579 63.4024C22.83 63.3624 23.1816 62.9563 23.1414 62.4871C23.1012 62.0178 22.6927 61.6683 22.2206 61.7082H22.2241ZM24.0791 67.4796C23.9318 67.4963 23.7911 67.5429 23.6639 67.6194L13.0602 73.7104V73.707C12.5279 74.0133 12.3504 74.6856 12.6518 75.2148C12.8024 75.4711 13.0468 75.6541 13.3281 75.7307C13.616 75.8072 13.9207 75.764 14.1718 75.6208L24.7755 69.5332C25.0333 69.3834 25.2208 69.1471 25.2945 68.8609C25.3715 68.5813 25.3347 68.2784 25.184 68.0221C25.0367 67.7692 24.7989 67.5828 24.5143 67.5062C24.3737 67.4663 24.223 67.4596 24.0757 67.4796L24.0791 67.4796ZM71.9177 67.4863C71.4757 67.4297 71.0472 67.6427 70.8195 68.0222C70.6689 68.2785 70.632 68.5747 70.709 68.8609C70.7827 69.1472 70.9702 69.3835 71.228 69.5333L84.44 77.122L84.4366 77.1187C84.6944 77.2684 85.0025 77.305 85.2837 77.2252C85.5717 77.1486 85.8094 76.9622 85.9567 76.7059C86.2513 76.1767 86.0672 75.5077 85.5415 75.2115L72.3296 67.6228V67.6194C72.2023 67.5529 72.065 67.5029 71.9177 67.4863ZM9.27286 75.9803V75.977C9.12554 75.9937 8.98491 76.0403 8.85768 76.1135L0.560832 80.8798C0.303022 81.0296 0.115523 81.2659 0.0418608 81.5521C-0.035148 81.8317 0.00168245 82.1346 0.152355 82.3909C0.460393 82.9101 1.13001 83.0899 1.66238 82.7903L9.97594 78.0173V78.0207C10.5016 77.7144 10.6858 77.0421 10.3777 76.5129C10.2271 76.26 9.98933 76.0769 9.70473 76.007C9.56411 75.9671 9.41678 75.9571 9.27281 75.9737L9.27286 75.9803ZM88.7691 77.1486C88.3238 77.0887 87.8852 77.3117 87.6675 77.6978C87.3661 78.227 87.5469 78.8893 88.0692 79.1989L94.3337 82.8003V82.7969C94.8661 83.1031 95.5425 82.9234 95.8504 82.3975C96.0011 82.1412 96.0379 81.8383 95.9609 81.5588C95.8873 81.2725 95.6998 81.0362 95.442 80.8864L89.1775 77.2851L89.1808 77.2884C89.0536 77.2152 88.9096 77.1686 88.7656 77.1519L88.7691 77.1486Z" fill="white"/>
</svg>
