<svg viewBox="0 0 70 70" fill="none" xmlns="http://www.w3.org/2000/svg" x="0" y="0"><g id="Vector_2">
<path d="M70,35c0,-5.389 -3.9,-9.856 -9.03,-10.756c2.99,-4.264 2.59,-10.182 -1.22,-13.993c-3.81,-3.81 -9.73,-4.211 -13.99,-1.22c-0.9,-5.13 -5.37,-9.031 -10.76,-9.031c-5.39,0 -9.86,3.901 -10.76,9.031c-4.26,-2.988 -10.18,-2.587 -13.99,1.22c-3.81,3.811 -4.21,9.728 -1.22,13.993c-5.13,0.9 -9.03,5.368 -9.03,10.756c0,5.388 3.9,9.856 9.03,10.756c-2.99,4.264 -2.59,10.182 1.22,13.993c3.81,3.81 9.73,4.211 13.99,1.22c0.9,5.13 5.37,9.031 10.76,9.031c5.39,0 9.86,-3.901 10.76,-9.031c4.26,2.988 10.18,2.587 13.99,-1.22c3.81,-3.811 4.21,-9.728 1.22,-13.993c5.13,-0.9 9.03,-5.368 9.03,-10.756zM35,53.671c-10.31,0 -18.67,-8.359 -18.67,-18.671c0,-10.312 8.36,-18.671 18.67,-18.671c10.31,0 18.67,8.359 18.67,18.671c0,10.312 -8.36,18.671 -18.67,18.671z" fill="#D80ADA"/>
<path d="M35,28.492c-4.79,-7.34 -15.3,-2.414 -13.27,5.902c1.98,8.138 13.27,14.192 13.27,14.192c0,0 11.28,-6.053 13.27,-14.192c2.03,-8.316 -8.48,-13.24 -13.27,-5.902z" fill="#D80ADA"/>
</g></svg>