<svg width="70" height="93" viewBox="0 0 70 93" fill="none" xmlns="http://www.w3.org/2000/svg">
<path fill-rule="evenodd" clip-rule="evenodd" d="M62.3988 50.2447C62.7209 49.9151 63.1052 49.6664 63.5337 49.5046V45.9302H59.7624C59.792 45.8912 59.8215 45.8523 59.854 45.8163C60.3387 45.1872 60.6964 44.4651 60.9091 43.6951H64.1691C64.5859 43.6981 64.9819 43.8629 65.2745 44.1625C65.57 44.4621 65.7355 44.8636 65.7355 45.286V49.5046C67.0508 49.9989 67.8932 51.3143 67.7927 52.7374C67.6951 54.1605 66.6844 55.344 65.31 55.6496C63.9357 55.9552 62.5288 55.3051 61.855 54.0557C61.1811 52.8063 61.3998 51.2514 62.3929 50.2477L62.3988 50.2447ZM19.5722 45.9302H15.8009V49.5046C17.2343 50.0439 18.0796 51.548 17.8107 53.076C17.5387 54.598 16.2295 55.7096 14.6984 55.7096C13.1704 55.7096 11.8611 54.598 11.5892 53.076C11.3202 51.5509 12.1655 50.0469 13.5989 49.5046V45.2861C13.6019 44.4083 14.3023 43.6982 15.1683 43.6952H18.4283C18.6411 44.4652 18.9987 45.1872 19.4864 45.8164C19.5159 45.8554 19.5455 45.8943 19.578 45.9303L19.5722 45.9302ZM17.3999 32.0435H15.4551C14.9231 33.4966 13.4394 34.3565 11.9321 34.0808C10.4277 33.8082 9.32828 32.4809 9.32828 30.9289C9.32828 29.3799 10.4248 28.0526 11.9321 27.7769C13.4365 27.5013 14.9202 28.3612 15.4551 29.8143H17.0866C17.1368 30.4465 17.2639 31.0726 17.4649 31.6749L17.4058 32.0494L17.3999 32.0435ZM17.8757 18.594H15.7773C15.3162 19.8524 14.131 20.6853 12.807 20.6853C11.6336 20.6853 10.5548 20.0232 10.011 18.9625C9.47013 17.9049 9.54992 16.6315 10.2179 15.6518C10.8918 14.6751 12.0415 14.1538 13.2089 14.3006C14.3734 14.4504 15.3606 15.2444 15.7743 16.3589H18.594L17.4826 17.92L17.926 18.2435C17.9023 18.3574 17.8846 18.4742 17.8728 18.5911L17.8757 18.594ZM23.1455 12.5418H20.9318C20.518 12.5418 20.1219 12.3741 19.8264 12.0744C19.5308 11.7778 19.3683 11.3734 19.3683 10.9509V6.20805C17.9349 5.66875 17.0866 4.16466 17.3585 2.6367C17.6275 1.11165 18.9368 0.00309104 20.4678 0.00309104C21.9958 0.00309104 23.3052 1.11165 23.5771 2.6367C23.849 4.16174 23.0008 5.66577 21.5673 6.20805V10.3068H24.916C24.3722 10.7952 23.8904 11.3495 23.4885 11.9606C23.3644 12.1524 23.2461 12.3441 23.1368 12.5479L23.1455 12.5418ZM54.4153 10.3097H57.764V6.20495C56.3306 5.66565 55.4823 4.16156 55.7542 2.6336C56.0232 1.10856 57.3354 0 58.8635 0C60.3916 0 61.7038 1.10856 61.9728 2.6336C62.2447 4.15865 61.3965 5.66268 59.9631 6.20495V10.9448C59.9631 11.8227 59.2596 12.5358 58.3937 12.5358H56.1829C56.0735 12.335 55.9553 12.1403 55.8312 11.9485C55.4292 11.3373 54.9504 10.7831 54.4036 10.2947L54.4153 10.3097ZM60.7077 16.3619H63.5628H63.5598C64.0918 14.9088 65.5755 14.0489 67.0828 14.3245C68.5872 14.5972 69.6867 15.9274 69.6867 17.4765C69.6867 19.0254 68.5902 20.3557 67.0828 20.6284C65.5784 20.9041 64.0948 20.0442 63.5598 18.5911H61.4555C61.358 17.8001 61.1008 17.0421 60.6989 16.3589L60.7077 16.3619ZM62.2476 29.8114H63.8791C64.411 28.3583 65.8948 27.5014 67.4021 27.774C68.9064 28.0497 70 29.3769 70 30.929C70 32.478 68.9064 33.8053 67.4021 34.0809C65.8977 34.3536 64.414 33.4967 63.8791 32.0436H61.9284L61.8693 31.6691H61.8663C62.0703 31.0669 62.1944 30.4406 62.2476 29.8085L62.2476 29.8114ZM3.21566 72.5185L0 75.6165L16.3234 93L19.5391 89.893L3.21566 72.5185ZM6.07964 72.3387L7.27072 71.1972L21.0466 85.8631L19.8585 87.0107L6.07964 72.3387ZM55.0863 53.8346C55.0449 53.8196 55.0035 53.8106 54.9563 53.8076C54.7375 53.8046 54.5218 53.8615 54.3238 53.9694L41.4437 62.2117C41.4585 62.2417 41.4703 62.2776 41.4821 62.3076V62.3106C41.6358 62.7061 41.7422 63.1165 41.8014 63.539L54.4748 54.2122L54.5192 54.1822C54.7083 54.0564 54.9004 53.9455 55.0896 53.8407L55.0863 53.8346ZM46.9791 10.9841C46.4027 11.1878 45.7762 10.8852 45.5722 10.3009C45.3712 9.72268 45.6756 9.08454 46.2461 8.87775C47.3514 8.48227 48.5277 8.33246 49.6952 8.44331C49.4913 8.13171 49.2607 7.85008 48.9947 7.5894C47.7386 6.35497 45.9386 5.87559 44.2481 6.32506C42.5575 6.77448 41.2187 8.08681 40.7191 9.78558C40.5802 10.262 40.1487 10.5886 39.6611 10.5886C39.1734 10.5856 38.7449 10.259 38.6089 9.78259C38.1065 8.08381 36.7676 6.77445 35.074 6.32805C33.3834 5.88463 31.5864 6.36401 30.3304 7.59239C30.0703 7.85305 29.8338 8.13769 29.6299 8.4463C30.8003 8.33545 31.9766 8.48525 33.0791 8.88074C33.3628 8.97362 33.5963 9.17736 33.7293 9.44701C33.8623 9.71666 33.88 10.0313 33.7825 10.3129C33.6849 10.5975 33.4751 10.8282 33.2032 10.9541C32.9342 11.0799 32.6239 11.0919 32.349 10.981C29.8043 10.0672 26.9728 11.023 25.4744 13.297C25.3414 13.4978 25.2202 13.7075 25.1109 13.9262C26.0685 14.2108 26.9315 14.7501 27.6083 15.4962C28.0162 15.9456 27.9896 16.6467 27.5492 17.0662C27.1059 17.4796 26.4172 17.4617 26.0005 17.0153C25.5453 16.5179 24.9572 16.1703 24.3099 16.0175L24.2715 16.0145C22.9562 15.7179 21.5966 16.2572 20.8164 17.3718C20.2371 18.2076 20.0598 19.2653 20.3406 20.248C20.6154 21.2338 21.3159 22.0337 22.2439 22.4352C22.64 22.603 22.903 22.9925 22.9178 23.424C22.9326 23.8584 22.6932 24.2599 22.3119 24.4547C20.5534 25.3566 19.445 27.1842 19.445 29.1886C19.445 31.19 20.5533 33.0207 22.3119 33.9255C22.841 34.2041 23.0508 34.8693 22.7818 35.4086C22.5129 35.9479 21.8656 36.1756 21.3247 35.9119C20.6184 35.5524 19.9711 35.0761 19.4096 34.5098C19.4007 34.5547 19.3948 34.6057 19.3859 34.6506V34.6476C19.2234 35.879 19.5662 37.1254 20.3465 38.0872C21.1208 39.0459 22.2616 39.6362 23.4823 39.7141C24.0764 39.768 24.5197 40.2893 24.4813 40.8946C24.4428 41.4968 23.9404 41.9612 23.3463 41.9373C22.4153 41.8773 21.508 41.6197 20.6863 41.1792C20.6036 41.5328 20.5681 41.8923 20.5888 42.2578C20.6656 43.624 21.4784 44.8345 22.705 45.4098C23.9316 45.985 25.3679 45.8292 26.4438 44.9993C26.7778 44.7476 27.224 44.7027 27.5964 44.8914C27.9718 45.0832 28.2053 45.4697 28.2053 45.8921C28.3412 48.4149 30.0969 50.5451 32.5174 51.1294C34.941 51.7166 37.4591 50.623 38.7064 48.4359C38.9044 48.0913 39.265 47.8756 39.6611 47.8786C40.0541 47.8786 40.4177 48.0973 40.6157 48.4419C41.8688 50.635 44.3988 51.7286 46.8283 51.1264C49.2577 50.5241 51.0045 48.3699 51.1139 45.8382C51.1316 45.4248 51.374 45.0563 51.7464 44.8795C52.1129 44.7027 52.5473 44.7476 52.8725 44.9993C53.9513 45.8232 55.3876 45.982 56.6142 45.4098C57.8349 44.8345 58.6506 43.6241 58.7245 42.2549C58.7422 41.8953 58.7127 41.5328 58.6299 41.1823C57.8054 41.6227 56.8979 41.8804 55.9699 41.9403C55.3729 41.9583 54.8705 41.4969 54.832 40.8946C54.7936 40.2924 55.237 39.768 55.831 39.7141C57.0517 39.6362 58.1925 39.046 58.9669 38.0872C59.7471 37.1285 60.0929 35.8821 59.9274 34.6506L59.9037 34.5098H59.9067C59.3422 35.0821 58.7008 35.5525 57.9885 35.918C57.4476 36.1936 56.7856 35.9719 56.5137 35.4236C56.2418 34.8753 56.4605 34.2042 57.0014 33.9285C58.7599 33.0267 59.8742 31.1931 59.8742 29.1946C59.8742 27.1932 58.7629 25.3626 57.0014 24.4577C56.6201 24.263 56.3836 23.8585 56.3955 23.427C56.4102 22.9926 56.6762 22.6091 57.0693 22.4413C57.9855 22.0458 58.6801 21.2518 58.9638 20.2871C59.2476 19.3163 59.088 18.2707 58.5323 17.4287C58.5205 17.4137 58.5057 17.3988 58.4939 17.3778C57.9146 16.5419 56.9954 16.0116 55.9905 15.9426C54.9857 15.8737 54.0014 16.2692 53.3128 17.0152C52.8931 17.4347 52.2281 17.4377 51.7966 17.0302C51.368 16.6227 51.3325 15.9486 51.7138 15.4962C52.3906 14.7561 53.2537 14.2138 54.2113 13.9322C54.1049 13.7134 53.9837 13.5037 53.8477 13.3C52.3492 11.0229 49.5207 10.0702 46.979 10.987L46.9791 10.9841ZM48.1376 37.6737H48.1346C45.7584 39.9927 43.1072 42.0151 40.2461 43.6869C39.8973 43.9086 39.454 43.9146 39.0993 43.6989C36.2324 42.024 33.5753 40.0017 31.1933 37.6736C29.355 35.9059 27.9067 33.7666 26.9403 31.3907C26.6979 30.7496 26.5176 30.0904 26.3994 29.4163C26.0654 27.6875 26.2605 25.8959 26.9491 24.278C27.688 22.6181 29.0535 21.3237 30.7411 20.6946C31.2317 20.5028 31.743 20.362 32.2632 20.2691C34.1045 19.9395 36.002 20.329 37.5625 21.3687C37.5862 21.3807 37.6069 21.3957 37.6305 21.4106C38.4374 21.95 39.1261 22.6481 39.661 23.463C40.1989 22.6511 40.8876 21.9529 41.6915 21.4106C43.2697 20.3411 45.1909 19.9335 47.0588 20.2721C47.5761 20.365 48.0874 20.5058 48.581 20.6976C50.2716 21.3237 51.6429 22.6151 52.3788 24.275C53.0675 25.8929 53.2596 27.6845 52.9286 29.4133C52.8103 30.0844 52.6301 30.7466 52.3877 31.3848C51.4242 33.7637 49.973 35.9029 48.1346 37.6706L48.1376 37.6737ZM39.6672 41.4399H39.6642C37.1608 39.9358 34.8378 38.1441 32.7423 36.0978C31.1256 34.5518 29.8518 32.6762 29.0006 30.5969C28.8084 30.0905 28.6636 29.5662 28.569 29.0329C28.3149 27.7475 28.4449 26.4172 28.9474 25.2098C29.4469 24.0832 30.3778 23.2083 31.5187 22.7859C31.8852 22.6451 32.2605 22.5402 32.6418 22.4743C33.9304 22.2406 35.2634 22.5132 36.3599 23.2383L36.4131 23.2772V23.2742C37.5185 24.0173 38.3018 25.1678 38.5914 26.4801C38.7008 26.9865 39.1411 27.352 39.6554 27.355C40.1696 27.358 40.6159 27.0014 40.7342 26.4951C41.0209 25.1767 41.8041 24.0262 42.9124 23.2772C44.0207 22.5282 45.3744 22.2405 46.6837 22.4802C47.0709 22.5491 47.4433 22.654 47.8069 22.7918C48.9507 23.2143 49.8758 24.0892 50.3782 25.2127C50.8806 26.4201 51.0136 27.7504 50.7565 29.0358C50.6619 29.5691 50.5171 30.0934 50.325 30.5998C49.4738 32.679 48.1999 34.5486 46.5833 36.1007C44.4878 38.1501 42.1647 39.9387 39.6613 41.4427L39.6672 41.4399ZM21.4431 83.0471C24.9572 79.6195 27.898 79.9671 31.0371 80.3386C34.105 80.7041 37.4005 81.0906 41.8546 76.7313L59.5854 59.3685L59.5883 59.3655C60.1706 58.8472 60.4307 58.0532 60.277 57.2832C60.1942 56.9147 60.0287 56.5731 59.7922 56.2825C59.544 55.9769 59.2248 55.7312 58.8642 55.5694C57.8238 55.1739 56.6534 55.3387 55.7667 56.0128L41.2697 66.6819C39.9988 69.1867 37.0255 70.2653 34.4749 69.1358L26.208 65.4655C25.939 65.3516 25.7321 65.1269 25.6257 64.8513C25.5193 64.5786 25.5223 64.273 25.6405 64.0003C25.8828 63.4371 26.5301 63.1794 27.0858 63.4251L35.3527 67.0954C36.8955 67.7575 38.6806 67.0384 39.3546 65.4804C40.0285 63.9224 39.3427 62.1068 37.8147 61.3997L28.9069 57.4508C19.0178 54.7273 16.7593 59.2005 14.2768 64.1202V64.1232C13.1921 66.574 11.732 68.8331 9.94981 70.8226L21.4431 83.0471Z" fill="white"/>
</svg>
