<svg viewBox="0 0 10.8 6" fill="none" xmlns="http://www.w3.org/2000/svg" x="0" y="0"><path id="Vector_4" d="M5.4104,6c-0.28,0 -0.56,-0.105 -0.76,-0.292l-4.32,-3.992c-0.1,-0.092 -0.19,-0.202 -0.24,-0.324c-0.06,-0.122 -0.09,-0.253 -0.09,-0.385c0,-0.133 0.03,-0.264 0.08,-0.387c0.05,-0.123 0.13,-0.234 0.24,-0.328c0.1,-0.093 0.22,-0.168 0.35,-0.218c0.13,-0.05 0.28,-0.075 0.42,-0.074c0.14,0.001 0.28,0.029 0.42,0.081c0.13,0.052 0.25,0.128 0.35,0.224l3.55,3.286l3.56,-3.286c0.2,-0.182 0.48,-0.283 0.76,-0.28c0.28,0.002 0.55,0.107 0.75,0.292c0.2,0.185 0.32,0.435 0.32,0.697c0,0.261 -0.11,0.514 -0.3,0.702l-4.32,3.992c-0.21,0.187 -0.48,0.292 -0.77,0.292z" fill="currentColor"/></svg>