<svg viewBox="0 0 10.8 6" fill="none" xmlns="http://www.w3.org/2000/svg" x="0" y="0"><path id="Vector_2" d="M9.7204,5.988c-0.28,0 -0.56,-0.106 -0.76,-0.293l-3.55,-3.286l-3.56,3.286c-0.1,0.096 -0.21,0.172 -0.35,0.224c-0.13,0.052 -0.27,0.08 -0.41,0.081c-0.15,0.001 -0.29,-0.024 -0.42,-0.074c-0.13,-0.05 -0.25,-0.125 -0.35,-0.218c-0.11,-0.094 -0.19,-0.205 -0.24,-0.328c-0.05,-0.123 -0.08,-0.254 -0.08,-0.387c0,-0.132 0.03,-0.263 0.09,-0.385c0.05,-0.122 0.14,-0.232 0.24,-0.324l4.31,-3.992c0.21,-0.187 0.48,-0.292 0.77,-0.292c0.28,0 0.56,0.105 0.76,0.292l4.31,3.992c0.15,0.14 0.26,0.318 0.3,0.511c0.04,0.194 0.02,0.394 -0.06,0.577c-0.08,0.182 -0.22,0.338 -0.4,0.447c-0.18,0.11 -0.39,0.169 -0.6,0.169z" fill="currentColor"/></svg>