<svg viewBox="0 0 16 16" fill="none" xmlns="http://www.w3.org/2000/svg" x="0" y="0"><path id="Vector" d="M8,0c-1.582,0 -3.129,0.469 -4.445,1.348c-1.315,0.879 -2.341,2.129 -2.946,3.591c-0.606,1.461 -0.764,3.07 -0.455,4.622c0.308,1.552 1.07,2.977 2.189,4.096c1.119,1.119 2.544,1.881 4.096,2.189c1.552,0.309 3.161,0.151 4.622,-0.455c1.462,-0.605 2.712,-1.631 3.591,-2.946c0.879,-1.316 1.348,-2.863 1.348,-4.445c-0.002,-2.121 -0.846,-4.154 -2.346,-5.654c-1.5,-1.5 -3.533,-2.344 -5.654,-2.346zM8,12.8c-0.158,0 -0.313,-0.047 -0.444,-0.135c-0.132,-0.088 -0.235,-0.213 -0.295,-0.359c-0.061,-0.146 -0.076,-0.307 -0.046,-0.462c0.031,-0.155 0.107,-0.298 0.219,-0.41c0.112,-0.112 0.255,-0.188 0.41,-0.219c0.155,-0.03 0.316,-0.015 0.462,0.046c0.146,0.06 0.271,0.163 0.359,0.295c0.088,0.131 0.135,0.286 0.135,0.444c0,0.212 -0.084,0.416 -0.234,0.566c-0.15,0.15 -0.354,0.234 -0.566,0.234zM8.8,9.173v0.427c0,0.212 -0.084,0.416 -0.234,0.566c-0.15,0.15 -0.354,0.234 -0.566,0.234c-0.212,0 -0.416,-0.084 -0.566,-0.234c-0.15,-0.15 -0.234,-0.354 -0.234,-0.566v-1.134c0,-0.108 0.022,-0.215 0.064,-0.314c0.042,-0.099 0.104,-0.189 0.182,-0.263c0.077,-0.075 0.168,-0.134 0.269,-0.172c0.101,-0.038 0.208,-0.056 0.315,-0.051c0.155,0.006 0.309,-0.02 0.454,-0.075c0.144,-0.056 0.276,-0.14 0.387,-0.247c0.111,-0.108 0.2,-0.237 0.26,-0.38c0.06,-0.142 0.09,-0.296 0.09,-0.45c0.012,-0.319 -0.103,-0.629 -0.319,-0.863c-0.216,-0.233 -0.517,-0.371 -0.835,-0.384c-0.318,-0.012 -0.628,0.103 -0.862,0.319c-0.234,0.216 -0.372,0.517 -0.384,0.835c-0.003,0.105 -0.026,0.209 -0.07,0.305c-0.043,0.096 -0.105,0.183 -0.183,0.254c-0.077,0.072 -0.168,0.128 -0.267,0.163c-0.099,0.036 -0.204,0.052 -0.31,0.047c-0.212,-0.009 -0.411,-0.101 -0.555,-0.256c-0.144,-0.156 -0.221,-0.362 -0.213,-0.574c0.023,-0.514 0.187,-1.013 0.475,-1.44c0.287,-0.427 0.687,-0.767 1.155,-0.981c0.468,-0.215 0.986,-0.297 1.497,-0.236c0.512,0.061 0.997,0.261 1.401,0.58c0.405,0.318 0.714,0.742 0.894,1.224c0.179,0.483 0.222,1.006 0.124,1.511c-0.098,0.506 -0.334,0.974 -0.682,1.354c-0.347,0.38 -0.792,0.657 -1.287,0.801z" fill="currentColor"/></svg>