<svg viewBox="0 0 8 7.3333" fill="none" xmlns="http://www.w3.org/2000/svg" xmlns:xlink="http://www.w3.org/1999/xlink" x="0" y="0"><g id="Vector">
<path d="M1.688,2.5755h-1.266c-0.112,0 -0.219,0.042 -0.298,0.116c-0.08,0.075 -0.124,0.176 -0.124,0.281v3.568c0,0.21 0.089,0.412 0.247,0.561c0.159,0.148 0.373,0.232 0.597,0.232h0.422c0.224,0 0.439,-0.084 0.597,-0.232c0.158,-0.149 0.247,-0.351 0.247,-0.561v-3.568c0,-0.105 -0.044,-0.206 -0.123,-0.281c-0.079,-0.074 -0.187,-0.116 -0.299,-0.116z" fill="currentColor"/>
<path d="M7.156,2.5755h-1.669l0.657,-1.784c0.022,-0.163 -0.018,-0.328 -0.112,-0.467c-0.095,-0.138 -0.238,-0.241 -0.405,-0.291c-0.167,-0.05 -0.347,-0.044 -0.509,0.018c-0.162,0.062 -0.297,0.175 -0.379,0.32c-0.488,0.782 -1.089,1.497 -1.785,2.125v3.8h0.049c0.89,0.232 2.068,0.64 3.159,0.64c0.591,0 0.672,-0.208 0.794,-0.522l0.993,-2.775c0.047,-0.12 0.061,-0.248 0.044,-0.375c-0.018,-0.126 -0.068,-0.246 -0.146,-0.351c-0.078,-0.104 -0.181,-0.189 -0.302,-0.248c-0.12,-0.059 -0.254,-0.09 -0.389,-0.09z" fill="currentColor"/>
</g></svg>