<svg viewBox="0 0 145 54" fill="none" xmlns="http://www.w3.org/2000/svg" xmlns:xlink="http://www.w3.org/1999/xlink" x="0" y="0"><g id="Download App Button">
<rect x="0" y="0" width="145" height="54" rx="8" fill="currentColor"/>
<g id="Apple">
<path id="path4" d="M30.06,34.179c-0.377,0.871 -0.823,1.673 -1.341,2.41c-0.704,1.005 -1.281,1.7 -1.726,2.087c-0.69,0.634 -1.428,0.958 -2.219,0.977c-0.568,0 -1.253,-0.162 -2.05,-0.489c-0.8,-0.327 -1.535,-0.488 -2.207,-0.488c-0.705,0 -1.461,0.161 -2.269,0.488c-0.81,0.327 -1.462,0.498 -1.961,0.515c-0.759,0.032 -1.515,-0.302 -2.269,-1.003c-0.482,-0.42 -1.085,-1.141 -1.806,-2.161c-0.775,-1.09 -1.411,-2.353 -1.91,-3.793c-0.534,-1.556 -0.802,-3.063 -0.802,-4.521c0,-1.671 0.361,-3.112 1.084,-4.32c0.568,-0.97 1.325,-1.735 2.271,-2.297c0.946,-0.561 1.969,-0.848 3.07,-0.866c0.602,0 1.392,0.186 2.374,0.553c0.979,0.367 1.608,0.554 1.883,0.554c0.206,0 0.905,-0.218 2.089,-0.653c1.119,-0.403 2.064,-0.57 2.838,-0.504c2.098,0.169 3.674,0.996 4.722,2.486c-1.876,1.137 -2.804,2.729 -2.786,4.771c0.017,1.591 0.594,2.915 1.728,3.966c0.514,0.487 1.088,0.864 1.727,1.132c-0.139,0.402 -0.285,0.787 -0.44,1.156zM25.249,15.249c0,1.247 -0.455,2.411 -1.363,3.488c-1.096,1.281 -2.421,2.022 -3.858,1.905c-0.019,-0.15 -0.029,-0.307 -0.029,-0.473c0,-1.197 0.521,-2.478 1.446,-3.525c0.462,-0.53 1.05,-0.971 1.762,-1.323c0.711,-0.347 1.384,-0.538 2.016,-0.571c0.019,0.167 0.026,0.333 0.026,0.499z" fill="white"/>
</g>
<g id="Text">
<path id="Download on the" d="M46.221,22h-2.693v-8.727h2.812c0.847,0 1.571,0.174 2.173,0.524c0.603,0.346 1.064,0.845 1.385,1.496c0.321,0.647 0.482,1.423 0.482,2.326c0,0.909 -0.162,1.692 -0.486,2.348c-0.324,0.654 -0.795,1.157 -1.415,1.509c-0.619,0.349 -1.372,0.524 -2.258,0.524zM44.584,21.062h1.569c0.721,0 1.319,-0.139 1.794,-0.417c0.474,-0.279 0.828,-0.675 1.061,-1.189c0.233,-0.514 0.349,-1.126 0.349,-1.837c0,-0.704 -0.115,-1.311 -0.345,-1.819c-0.23,-0.512 -0.574,-0.904 -1.031,-1.176c-0.458,-0.276 -1.027,-0.414 -1.709,-0.414h-1.688zM54.675,22.136c-0.591,0 -1.109,-0.14 -1.555,-0.422c-0.443,-0.281 -0.79,-0.674 -1.04,-1.18c-0.247,-0.506 -0.371,-1.097 -0.371,-1.773c0,-0.681 0.124,-1.277 0.371,-1.785c0.25,-0.509 0.597,-0.904 1.04,-1.185c0.446,-0.281 0.964,-0.422 1.555,-0.422c0.591,0 1.108,0.141 1.551,0.422c0.446,0.281 0.793,0.676 1.04,1.185c0.25,0.508 0.375,1.104 0.375,1.785c0,0.676 -0.125,1.267 -0.375,1.773c-0.247,0.506 -0.594,0.899 -1.04,1.18c-0.443,0.282 -0.96,0.422 -1.551,0.422zM54.675,21.233c0.449,0 0.818,-0.115 1.108,-0.345c0.29,-0.23 0.504,-0.533 0.644,-0.908c0.139,-0.375 0.208,-0.781 0.208,-1.219c0,-0.437 -0.069,-0.845 -0.208,-1.223c-0.14,-0.377 -0.354,-0.683 -0.644,-0.916c-0.29,-0.233 -0.659,-0.349 -1.108,-0.349c-0.449,0 -0.818,0.116 -1.108,0.349c-0.289,0.233 -0.504,0.539 -0.643,0.916c-0.139,0.378 -0.209,0.786 -0.209,1.223c0,0.438 0.07,0.844 0.209,1.219c0.139,0.375 0.354,0.678 0.643,0.908c0.29,0.23 0.659,0.345 1.108,0.345zM60.437,22l-1.995,-6.545h1.057l1.415,5.011h0.068l1.398,-5.011h1.074l1.38,4.994h0.069l1.414,-4.994h1.057l-1.994,6.545h-0.989l-1.432,-5.028h-0.102l-1.432,5.028zM69.709,18.062v3.938h-1.005v-6.545h0.971v1.022h0.085c0.154,-0.332 0.387,-0.599 0.699,-0.801c0.313,-0.204 0.716,-0.307 1.211,-0.307c0.443,0 0.831,0.091 1.163,0.273c0.332,0.179 0.591,0.452 0.775,0.818c0.185,0.364 0.277,0.824 0.277,1.381v4.159h-1.005v-4.091c0,-0.514 -0.134,-0.915 -0.401,-1.202c-0.267,-0.289 -0.633,-0.434 -1.099,-0.434c-0.321,0 -0.608,0.069 -0.861,0.209c-0.25,0.139 -0.447,0.342 -0.592,0.609c-0.145,0.267 -0.218,0.591 -0.218,0.971zM76.729,13.273v8.727h-1.006v-8.727zM81.23,22.136c-0.591,0 -1.109,-0.14 -1.555,-0.422c-0.444,-0.281 -0.79,-0.674 -1.04,-1.18c-0.247,-0.506 -0.371,-1.097 -0.371,-1.773c0,-0.681 0.124,-1.277 0.371,-1.785c0.25,-0.509 0.596,-0.904 1.04,-1.185c0.446,-0.281 0.964,-0.422 1.555,-0.422c0.591,0 1.108,0.141 1.551,0.422c0.446,0.281 0.793,0.676 1.04,1.185c0.25,0.508 0.375,1.104 0.375,1.785c0,0.676 -0.125,1.267 -0.375,1.773c-0.247,0.506 -0.594,0.899 -1.04,1.18c-0.443,0.282 -0.96,0.422 -1.551,0.422zM81.23,21.233c0.449,0 0.818,-0.115 1.108,-0.345c0.29,-0.23 0.504,-0.533 0.643,-0.908c0.14,-0.375 0.209,-0.781 0.209,-1.219c0,-0.437 -0.069,-0.845 -0.209,-1.223c-0.139,-0.377 -0.353,-0.683 -0.643,-0.916c-0.29,-0.233 -0.659,-0.349 -1.108,-0.349c-0.449,0 -0.818,0.116 -1.108,0.349c-0.29,0.233 -0.504,0.539 -0.643,0.916c-0.14,0.378 -0.209,0.786 -0.209,1.223c0,0.438 0.069,0.844 0.209,1.219c0.139,0.375 0.353,0.678 0.643,0.908c0.29,0.23 0.659,0.345 1.108,0.345zM87.657,22.153c-0.415,0 -0.791,-0.078 -1.129,-0.234c-0.338,-0.159 -0.607,-0.388 -0.806,-0.686c-0.198,-0.301 -0.298,-0.665 -0.298,-1.091c0,-0.375 0.074,-0.679 0.222,-0.912c0.148,-0.236 0.345,-0.42 0.592,-0.554c0.247,-0.133 0.52,-0.233 0.818,-0.298c0.301,-0.068 0.604,-0.122 0.908,-0.162c0.398,-0.051 0.72,-0.09 0.967,-0.115c0.25,-0.029 0.432,-0.075 0.546,-0.141c0.116,-0.065 0.174,-0.179 0.174,-0.341v-0.034c0,-0.42 -0.115,-0.747 -0.345,-0.98c-0.227,-0.233 -0.572,-0.349 -1.035,-0.349c-0.48,0 -0.857,0.105 -1.129,0.315c-0.273,0.21 -0.465,0.435 -0.576,0.673l-0.954,-0.341c0.17,-0.397 0.397,-0.707 0.682,-0.929c0.286,-0.224 0.599,-0.38 0.937,-0.468c0.341,-0.091 0.676,-0.137 1.006,-0.137c0.21,0 0.451,0.026 0.724,0.077c0.276,0.048 0.541,0.149 0.797,0.303c0.259,0.153 0.473,0.385 0.643,0.694c0.171,0.31 0.256,0.725 0.256,1.245v4.312h-1.006v-0.886h-0.051c-0.068,0.142 -0.181,0.294 -0.341,0.456c-0.159,0.162 -0.37,0.299 -0.635,0.413c-0.264,0.114 -0.586,0.17 -0.967,0.17zM87.811,21.25c0.397,0 0.733,-0.078 1.005,-0.234c0.276,-0.157 0.483,-0.358 0.622,-0.605c0.142,-0.248 0.213,-0.508 0.213,-0.78v-0.921c-0.042,0.051 -0.136,0.098 -0.281,0.141c-0.142,0.04 -0.307,0.075 -0.494,0.106c-0.185,0.029 -0.365,0.054 -0.541,0.077c-0.174,0.02 -0.314,0.037 -0.422,0.051c-0.262,0.034 -0.506,0.09 -0.733,0.166c-0.225,0.074 -0.406,0.186 -0.546,0.337c-0.136,0.148 -0.204,0.349 -0.204,0.605c0,0.35 0.129,0.614 0.388,0.793c0.261,0.176 0.592,0.264 0.993,0.264zM94.964,22.136c-0.545,0 -1.027,-0.137 -1.444,-0.413c-0.418,-0.278 -0.745,-0.67 -0.98,-1.176c-0.236,-0.509 -0.354,-1.109 -0.354,-1.803c0,-0.687 0.118,-1.284 0.354,-1.789c0.235,-0.506 0.564,-0.897 0.984,-1.172c0.42,-0.276 0.906,-0.414 1.457,-0.414c0.426,0 0.763,0.071 1.01,0.213c0.25,0.14 0.441,0.299 0.571,0.478c0.134,0.176 0.238,0.321 0.311,0.434h0.086v-3.221h1.005v8.727h-0.971v-1.006h-0.12c-0.073,0.12 -0.179,0.27 -0.315,0.452c-0.136,0.179 -0.331,0.34 -0.584,0.482c-0.253,0.139 -0.589,0.208 -1.01,0.208zM95.101,21.233c0.403,0 0.744,-0.105 1.022,-0.315c0.279,-0.213 0.49,-0.507 0.635,-0.882c0.145,-0.378 0.218,-0.814 0.218,-1.309c0,-0.488 -0.071,-0.916 -0.213,-1.282c-0.142,-0.37 -0.353,-0.657 -0.631,-0.861c-0.278,-0.208 -0.622,-0.311 -1.031,-0.311c-0.426,0 -0.782,0.109 -1.066,0.328c-0.281,0.216 -0.493,0.51 -0.635,0.882c-0.139,0.369 -0.208,0.784 -0.208,1.244c0,0.466 0.071,0.889 0.213,1.27c0.145,0.378 0.358,0.679 0.639,0.904c0.284,0.221 0.636,0.332 1.057,0.332zM105.98,22.136c-0.591,0 -1.109,-0.14 -1.555,-0.422c-0.444,-0.281 -0.79,-0.674 -1.04,-1.18c-0.247,-0.506 -0.371,-1.097 -0.371,-1.773c0,-0.681 0.124,-1.277 0.371,-1.785c0.25,-0.509 0.596,-0.904 1.04,-1.185c0.446,-0.281 0.964,-0.422 1.555,-0.422c0.591,0 1.108,0.141 1.551,0.422c0.446,0.281 0.793,0.676 1.04,1.185c0.25,0.508 0.375,1.104 0.375,1.785c0,0.676 -0.125,1.267 -0.375,1.773c-0.247,0.506 -0.594,0.899 -1.04,1.18c-0.443,0.282 -0.96,0.422 -1.551,0.422zM105.98,21.233c0.449,0 0.818,-0.115 1.108,-0.345c0.29,-0.23 0.504,-0.533 0.643,-0.908c0.14,-0.375 0.209,-0.781 0.209,-1.219c0,-0.437 -0.069,-0.845 -0.209,-1.223c-0.139,-0.377 -0.353,-0.683 -0.643,-0.916c-0.29,-0.233 -0.659,-0.349 -1.108,-0.349c-0.449,0 -0.818,0.116 -1.108,0.349c-0.29,0.233 -0.504,0.539 -0.643,0.916c-0.14,0.378 -0.209,0.786 -0.209,1.223c0,0.438 0.069,0.844 0.209,1.219c0.139,0.375 0.353,0.678 0.643,0.908c0.29,0.23 0.659,0.345 1.108,0.345zM111.487,18.062v3.938h-1.006v-6.545h0.972v1.022h0.085c0.153,-0.332 0.386,-0.599 0.699,-0.801c0.312,-0.204 0.716,-0.307 1.21,-0.307c0.443,0 0.831,0.091 1.163,0.273c0.333,0.179 0.591,0.452 0.776,0.818c0.184,0.364 0.277,0.824 0.277,1.381v4.159h-1.006v-4.091c0,-0.514 -0.133,-0.915 -0.4,-1.202c-0.267,-0.289 -0.634,-0.434 -1.1,-0.434c-0.321,0 -0.608,0.069 -0.861,0.209c-0.25,0.139 -0.447,0.342 -0.592,0.609c-0.145,0.267 -0.217,0.591 -0.217,0.971zM123.722,15.455v0.852h-3.392v-0.852zM121.319,13.886h1.005v6.239c0,0.284 0.042,0.497 0.124,0.639c0.085,0.139 0.193,0.233 0.324,0.281c0.133,0.046 0.274,0.069 0.422,0.069c0.111,0 0.201,-0.006 0.272,-0.017c0.071,-0.015 0.128,-0.026 0.171,-0.035l0.204,0.904c-0.068,0.025 -0.163,0.051 -0.285,0.077c-0.122,0.028 -0.277,0.042 -0.465,0.042c-0.284,0 -0.562,-0.061 -0.835,-0.183c-0.27,-0.122 -0.494,-0.308 -0.673,-0.558c-0.176,-0.25 -0.264,-0.566 -0.264,-0.946zM126.381,18.062v3.938h-1.005v-8.727h1.005v3.204h0.085c0.154,-0.338 0.384,-0.606 0.691,-0.805c0.309,-0.202 0.721,-0.303 1.236,-0.303c0.446,0 0.836,0.09 1.171,0.269c0.336,0.176 0.596,0.447 0.78,0.814c0.188,0.363 0.282,0.826 0.282,1.389v4.159h-1.006v-4.091c0,-0.52 -0.135,-0.922 -0.405,-1.206c-0.267,-0.287 -0.638,-0.43 -1.112,-0.43c-0.33,0 -0.625,0.069 -0.887,0.209c-0.258,0.139 -0.463,0.342 -0.613,0.609c-0.148,0.267 -0.222,0.591 -0.222,0.971zM135.21,22.136c-0.631,0 -1.175,-0.139 -1.632,-0.417c-0.455,-0.281 -0.806,-0.674 -1.053,-1.176c-0.244,-0.506 -0.366,-1.094 -0.366,-1.765c0,-0.67 0.122,-1.261 0.366,-1.772c0.247,-0.515 0.591,-0.915 1.031,-1.202c0.443,-0.29 0.961,-0.435 1.551,-0.435c0.341,0 0.678,0.057 1.01,0.171c0.333,0.113 0.635,0.298 0.908,0.554c0.273,0.253 0.49,0.588 0.652,1.005c0.162,0.418 0.243,0.932 0.243,1.543v0.426h-5.046v-0.869h4.023c0,-0.369 -0.074,-0.699 -0.221,-0.989c-0.145,-0.29 -0.353,-0.518 -0.623,-0.686c-0.267,-0.167 -0.582,-0.251 -0.946,-0.251c-0.4,0 -0.747,0.099 -1.039,0.298c-0.29,0.196 -0.513,0.452 -0.669,0.767c-0.157,0.315 -0.235,0.653 -0.235,1.014v0.58c0,0.494 0.085,0.913 0.256,1.257c0.173,0.341 0.413,0.601 0.72,0.78c0.307,0.176 0.663,0.264 1.07,0.264c0.264,0 0.503,-0.037 0.716,-0.111c0.216,-0.077 0.402,-0.19 0.558,-0.341c0.156,-0.153 0.277,-0.344 0.362,-0.571l0.972,0.273c-0.103,0.329 -0.274,0.619 -0.516,0.869c-0.241,0.247 -0.54,0.441 -0.895,0.58c-0.355,0.136 -0.754,0.204 -1.197,0.204z" fill="white"/>
<path id="AppStore" d="M45.115,38h-2.307l3.515,-10.182h2.774l3.51,10.182h-2.307l-2.551,-7.855h-0.079zM44.97,33.998h5.449v1.68h-5.449zM53.792,40.864v-10.5h2.089v1.282h0.094c0.093,-0.205 0.227,-0.414 0.403,-0.626c0.179,-0.216 0.411,-0.395 0.696,-0.537c0.288,-0.146 0.646,-0.219 1.074,-0.219c0.556,0 1.07,0.146 1.541,0.438c0.47,0.288 0.847,0.724 1.128,1.307c0.282,0.58 0.423,1.308 0.423,2.183c0,0.852 -0.138,1.571 -0.413,2.157c-0.272,0.584 -0.643,1.026 -1.113,1.328c-0.468,0.298 -0.991,0.447 -1.571,0.447c-0.411,0 -0.761,-0.068 -1.049,-0.204c-0.285,-0.135 -0.519,-0.306 -0.701,-0.512c-0.183,-0.208 -0.322,-0.419 -0.418,-0.631h-0.065v4.087zM55.866,34.182c0,0.454 0.063,0.85 0.189,1.188c0.125,0.338 0.308,0.602 0.546,0.791c0.239,0.185 0.529,0.278 0.87,0.278c0.345,0 0.637,-0.095 0.875,-0.283c0.239,-0.193 0.42,-0.458 0.542,-0.796c0.126,-0.341 0.189,-0.734 0.189,-1.178c0,-0.441 -0.061,-0.829 -0.184,-1.164c-0.122,-0.334 -0.303,-0.596 -0.542,-0.785c-0.238,-0.189 -0.532,-0.283 -0.88,-0.283c-0.344,0 -0.636,0.091 -0.875,0.273c-0.235,0.182 -0.416,0.441 -0.541,0.776c-0.126,0.334 -0.189,0.729 -0.189,1.183zM62.652,40.864v-10.5h2.088v1.282h0.094c0.093,-0.205 0.227,-0.414 0.403,-0.626c0.179,-0.216 0.411,-0.395 0.696,-0.537c0.288,-0.146 0.646,-0.219 1.074,-0.219c0.557,0 1.07,0.146 1.541,0.438c0.471,0.288 0.847,0.724 1.129,1.307c0.281,0.58 0.422,1.308 0.422,2.183c0,0.852 -0.137,1.571 -0.412,2.157c-0.272,0.584 -0.643,1.026 -1.114,1.328c-0.467,0.298 -0.991,0.447 -1.571,0.447c-0.411,0 -0.761,-0.068 -1.049,-0.204c-0.285,-0.135 -0.519,-0.306 -0.701,-0.512c-0.182,-0.208 -0.322,-0.419 -0.418,-0.631h-0.064v4.087zM64.725,34.182c0,0.454 0.063,0.85 0.189,1.188c0.126,0.338 0.308,0.602 0.547,0.791c0.238,0.185 0.528,0.278 0.87,0.278c0.344,0 0.636,-0.095 0.875,-0.283c0.238,-0.193 0.419,-0.458 0.542,-0.796c0.126,-0.341 0.189,-0.734 0.189,-1.178c0,-0.441 -0.062,-0.829 -0.184,-1.164c-0.123,-0.334 -0.304,-0.596 -0.542,-0.785c-0.239,-0.189 -0.532,-0.283 -0.88,-0.283c-0.345,0 -0.637,0.091 -0.875,0.273c-0.236,0.182 -0.416,0.441 -0.542,0.776c-0.126,0.334 -0.189,0.729 -0.189,1.183zM77.074,30.746c-0.039,-0.401 -0.21,-0.712 -0.512,-0.934c-0.301,-0.222 -0.711,-0.333 -1.228,-0.333c-0.351,0 -0.648,0.049 -0.89,0.149c-0.242,0.096 -0.427,0.23 -0.556,0.403c-0.126,0.172 -0.189,0.367 -0.189,0.586c-0.007,0.182 0.031,0.342 0.114,0.477c0.086,0.136 0.204,0.254 0.353,0.353c0.149,0.097 0.322,0.181 0.517,0.254c0.196,0.07 0.404,0.129 0.626,0.179l0.915,0.219c0.444,0.099 0.852,0.232 1.223,0.397c0.371,0.166 0.693,0.37 0.965,0.612c0.272,0.242 0.482,0.527 0.631,0.855c0.153,0.328 0.23,0.704 0.234,1.129c-0.004,0.623 -0.163,1.163 -0.477,1.62c-0.312,0.454 -0.763,0.807 -1.353,1.059c-0.586,0.249 -1.294,0.373 -2.123,0.373c-0.822,0 -1.537,-0.126 -2.147,-0.378c-0.607,-0.252 -1.081,-0.624 -1.422,-1.118c-0.338,-0.497 -0.516,-1.112 -0.532,-1.845h2.083c0.023,0.342 0.121,0.627 0.293,0.855c0.176,0.226 0.41,0.396 0.701,0.512c0.295,0.113 0.628,0.169 1,0.169c0.364,0 0.681,-0.053 0.949,-0.159c0.272,-0.106 0.482,-0.253 0.632,-0.442c0.149,-0.189 0.223,-0.406 0.223,-0.651c0,-0.229 -0.068,-0.421 -0.204,-0.577c-0.132,-0.156 -0.328,-0.288 -0.586,-0.398c-0.255,-0.109 -0.569,-0.209 -0.94,-0.298l-1.109,-0.278c-0.858,-0.209 -1.536,-0.536 -2.033,-0.98c-0.497,-0.444 -0.744,-1.042 -0.741,-1.795c-0.003,-0.616 0.161,-1.155 0.492,-1.615c0.335,-0.461 0.794,-0.821 1.378,-1.079c0.583,-0.259 1.246,-0.388 1.988,-0.388c0.756,0 1.416,0.129 1.979,0.388c0.567,0.258 1.008,0.618 1.322,1.079c0.315,0.46 0.478,0.994 0.488,1.6zM84.747,30.364v1.591h-4.599v-1.591zM81.192,28.534h2.118v7.119c0,0.196 0.03,0.348 0.09,0.458c0.059,0.106 0.142,0.18 0.248,0.224c0.109,0.043 0.235,0.064 0.378,0.064c0.099,0 0.199,-0.008 0.298,-0.025c0.1,-0.02 0.176,-0.035 0.229,-0.044l0.333,1.576c-0.106,0.033 -0.255,0.071 -0.447,0.114c-0.193,0.046 -0.426,0.074 -0.701,0.084c-0.511,0.02 -0.958,-0.048 -1.343,-0.203c-0.381,-0.156 -0.678,-0.398 -0.89,-0.726c-0.212,-0.328 -0.316,-0.743 -0.313,-1.243zM89.495,38.149c-0.773,0 -1.44,-0.164 -2.004,-0.492c-0.56,-0.331 -0.993,-0.792 -1.297,-1.382c-0.305,-0.593 -0.458,-1.281 -0.458,-2.063c0,-0.789 0.153,-1.479 0.458,-2.069c0.304,-0.593 0.737,-1.054 1.297,-1.382c0.564,-0.331 1.231,-0.497 2.004,-0.497c0.772,0 1.438,0.166 1.998,0.497c0.564,0.328 0.998,0.789 1.303,1.382c0.305,0.59 0.457,1.28 0.457,2.069c0,0.782 -0.152,1.47 -0.457,2.063c-0.305,0.59 -0.739,1.051 -1.303,1.382c-0.56,0.328 -1.226,0.492 -1.998,0.492zM89.505,36.509c0.351,0 0.644,-0.1 0.88,-0.299c0.235,-0.202 0.412,-0.477 0.532,-0.825c0.122,-0.348 0.183,-0.744 0.183,-1.188c0,-0.444 -0.061,-0.84 -0.183,-1.188c-0.12,-0.348 -0.297,-0.624 -0.532,-0.826c-0.236,-0.202 -0.529,-0.303 -0.88,-0.303c-0.355,0 -0.653,0.101 -0.895,0.303c-0.239,0.202 -0.42,0.478 -0.542,0.826c-0.119,0.348 -0.179,0.744 -0.179,1.188c0,0.444 0.06,0.84 0.179,1.188c0.122,0.348 0.303,0.623 0.542,0.825c0.242,0.199 0.54,0.299 0.895,0.299zM94.63,38v-7.636h2.054v1.332h0.079c0.139,-0.474 0.373,-0.832 0.701,-1.074c0.328,-0.245 0.706,-0.368 1.134,-0.368c0.106,0 0.22,0.007 0.343,0.02c0.122,0.013 0.23,0.032 0.323,0.055v1.879c-0.1,-0.03 -0.237,-0.056 -0.413,-0.079c-0.175,-0.024 -0.336,-0.035 -0.482,-0.035c-0.312,0 -0.59,0.068 -0.835,0.204c-0.242,0.132 -0.434,0.318 -0.577,0.556c-0.139,0.239 -0.209,0.514 -0.209,0.826v4.32zM103.483,38.149c-0.785,0 -1.461,-0.159 -2.028,-0.477c-0.563,-0.322 -0.998,-0.776 -1.302,-1.362c-0.305,-0.59 -0.458,-1.288 -0.458,-2.093c0,-0.786 0.153,-1.475 0.458,-2.069c0.304,-0.593 0.734,-1.055 1.287,-1.387c0.557,-0.331 1.21,-0.497 1.959,-0.497c0.504,0 0.973,0.081 1.407,0.244c0.437,0.159 0.819,0.399 1.143,0.721c0.329,0.321 0.584,0.726 0.766,1.213c0.182,0.484 0.273,1.05 0.273,1.7v0.582h-6.448v-1.313h4.455c0,-0.305 -0.066,-0.575 -0.199,-0.81c-0.133,-0.235 -0.317,-0.419 -0.552,-0.552c-0.232,-0.136 -0.502,-0.204 -0.81,-0.204c-0.322,0 -0.607,0.075 -0.855,0.224c-0.246,0.146 -0.438,0.343 -0.577,0.592c-0.139,0.245 -0.211,0.518 -0.214,0.82v1.248c0,0.378 0.07,0.704 0.209,0.979c0.143,0.275 0.343,0.487 0.602,0.636c0.258,0.15 0.565,0.224 0.919,0.224c0.236,0 0.451,-0.033 0.647,-0.099c0.195,-0.067 0.363,-0.166 0.502,-0.299c0.139,-0.132 0.245,-0.295 0.318,-0.487l1.959,0.129c-0.1,0.471 -0.304,0.882 -0.612,1.233c-0.305,0.348 -0.699,0.62 -1.183,0.816c-0.481,0.192 -1.036,0.288 -1.666,0.288z" fill="white"/>
</g>
</g></svg>