<svg viewBox="0 0 8 6.6667" fill="none" xmlns="http://www.w3.org/2000/svg" xmlns:xlink="http://www.w3.org/1999/xlink" x="0" y="0"><path id="Vector" d="M2.86216,6.6663c-0.13056,0.001 -0.25615,-0.06 -0.34989,-0.171l-2.36129,-2.777c-0.04707,-0.056 -0.08462,-0.122 -0.11052,-0.195c-0.0259,-0.074 -0.03963,-0.152 -0.04042,-0.232c-0.0016,-0.161 0.04964,-0.316 0.14244,-0.432c0.0928,-0.115 0.21955,-0.181 0.35238,-0.183c0.13283,-0.002 0.26085,0.061 0.35591,0.173l2.01339,2.367l4.28474,-5.044c0.0952,-0.112 0.2233,-0.174 0.3562,-0.172c0.133,0.002 0.2598,0.068 0.3526,0.183c0.0928,0.115 0.1439,0.271 0.1423,0.432c-0.0017,0.161 -0.0561,0.315 -0.1513,0.427l-4.63664,5.453c-0.09375,0.111 -0.21933,0.172 -0.3499,0.171z" fill="currentColor"/></svg>