<svg width="48" height="48" viewBox="0 0 48 48" fill="none" xmlns="http://www.w3.org/2000/svg">
<path d="M0 24C0 10.7452 10.7452 0 24 0C37.2548 0 48 10.7452 48 24C48 37.2548 37.2548 48 24 48C10.7452 48 0 37.2548 0 24Z" fill="#D80ADA"/>
<path d="M39 24C39 21.6905 37.328 19.7759 35.1295 19.3904C36.4101 17.5627 36.2385 15.0265 34.6065 13.3935C32.9734 11.7604 30.4375 11.5887 28.6096 12.8705C28.224 10.672 26.3093 9 24 9C21.6907 9 19.7759 10.672 19.3904 12.8705C17.5627 11.5899 15.0265 11.7615 13.3935 13.3935C11.7604 15.0266 11.5887 17.5625 12.8705 19.3904C10.672 19.776 9 21.6907 9 24C9 26.3093 10.672 28.2241 12.8705 28.6096C11.5899 30.4373 11.7615 32.9735 13.3935 34.6065C15.0266 36.2396 17.5625 36.4113 19.3904 35.1295C19.776 37.328 21.6907 39 24 39C26.3093 39 28.2241 37.328 28.6096 35.1295C30.4373 36.4101 32.9735 36.2385 34.6065 34.6065C36.2396 32.9734 36.4113 30.4375 35.1295 28.6096C37.328 28.224 39 26.3093 39 24ZM24.0001 32.0017C19.5803 32.0017 15.9984 28.4195 15.9984 24C15.9984 19.5805 19.5806 15.9983 24.0001 15.9983C28.4196 15.9983 32.0017 19.5805 32.0017 24C32.0017 28.4195 28.4196 32.0017 24.0001 32.0017Z" fill="white"/>
<path d="M23.9998 21.2109C21.9455 18.0649 17.4421 20.1763 18.312 23.7401C19.1634 27.2282 23.9998 29.8228 23.9998 29.8228C23.9998 29.8228 28.8362 27.2284 29.6876 23.7401C30.5573 20.1763 26.0541 18.0661 23.9998 21.2109Z" fill="white"/>
</svg>
