<svg width="48" height="48" viewBox="0 0 48 48" fill="none" xmlns="http://www.w3.org/2000/svg">
<path d="M0 24C0 10.7452 10.7452 0 24 0C37.2548 0 48 10.7452 48 24C48 37.2548 37.2548 48 24 48C10.7452 48 0 37.2548 0 24Z" fill="#D80ADA"/>
<path d="M34.523 22.4751C34.4087 18.3044 32.9757 15.9754 32.9177 15.8856C30.2081 11.393 26.5868 10.2222 24.0245 10.0295C20.1801 9.74318 16.0464 11.5576 13.5019 14.6529C8.99948 20.1254 12.5716 28.0459 14.6866 30.1331C16.416 31.8339 16.1874 34.2675 16.1874 34.292C16.1839 34.3129 16.1821 34.3338 16.1821 34.3574V37.4046C16.1821 37.7327 16.4445 38 16.7669 38H27.6609C27.9832 38 28.2457 37.7327 28.2457 37.4046V34.6166L30.6483 34.593C32.6491 34.5757 34.2757 32.9013 34.2757 30.8633V28.537L35.9283 28.4898C35.9453 28.4898 35.964 28.4898 35.9783 28.4861C36.8238 28.3852 37.1488 27.938 37.272 27.5771C37.4068 27.1935 37.5907 25.6981 34.5247 22.4746L34.523 22.4751ZM21.0451 26.6994C21.0451 27.0276 20.7844 27.2948 20.4603 27.2948C20.1353 27.2948 19.8755 27.0276 19.8755 26.6994V22.1605L18.4559 20.7151C18.2684 20.7742 18.0694 20.8051 17.8613 20.8051C16.7346 20.8051 15.8195 19.8734 15.8195 18.7262C15.8195 17.5789 16.7346 16.6444 17.8613 16.6444C18.988 16.6444 19.9058 17.5762 19.9058 18.7262C19.9058 19.2243 19.7335 19.6788 19.4443 20.0397L20.8754 21.4933C20.9844 21.6042 21.0442 21.7551 21.0442 21.9133V26.7002L21.0451 26.6994ZM23.9423 19.2588V26.6012C23.9423 26.9294 23.6816 27.1966 23.3575 27.1966C23.0325 27.1966 22.7727 26.9294 22.7727 26.6012V19.2588C21.9308 19.0024 21.3156 18.207 21.3156 17.2653C21.3156 16.118 22.2308 15.1836 23.3575 15.1836C24.4842 15.1836 25.402 16.1189 25.402 17.2653C25.402 18.207 24.7851 19.0015 23.9423 19.2588ZM28.4563 20.8042C28.2519 20.8042 28.0528 20.7742 27.8617 20.7142L26.4421 22.1595V26.6984C26.4421 27.0266 26.1815 27.2938 25.8574 27.2938C25.5324 27.2938 25.2726 27.0266 25.2726 26.6984V21.9115C25.2726 21.7533 25.3342 21.6024 25.4449 21.4915L26.8725 20.0379C26.5859 19.677 26.4127 19.2225 26.4127 18.7244C26.4127 17.5744 27.3278 16.6426 28.4545 16.6426C29.5813 16.6426 30.4991 17.5744 30.4991 18.7244C30.4991 19.8743 29.5839 20.8033 28.4545 20.8033L28.4563 20.8042Z" fill="white"/>
<path d="M24.2316 17.2644C24.2316 17.7553 23.8397 18.1544 23.3576 18.1544C22.8755 18.1544 22.4853 17.7553 22.4853 17.2644C22.4853 16.7735 22.8737 16.3745 23.3576 16.3745C23.8397 16.3745 24.2316 16.7735 24.2316 17.2644Z" fill="white"/>
<path d="M29.3315 18.7235C29.3315 19.2126 28.9395 19.6117 28.4574 19.6117C27.9753 19.6117 27.5851 19.2126 27.5851 18.7235C27.5851 18.2345 27.9771 17.8336 28.4574 17.8336C28.9378 17.8336 29.3315 18.2327 29.3315 18.7235Z" fill="white"/>
<path d="M18.7391 18.7235C18.7391 19.2126 18.3472 19.6117 17.8651 19.6117C17.383 19.6117 16.9928 19.2126 16.9928 18.7235C16.9928 18.2345 17.3812 17.8336 17.8651 17.8336C18.3472 17.8336 18.7391 18.2327 18.7391 18.7235Z" fill="white"/>
</svg>
