<svg viewBox="0 0 24 24" fill="none" xmlns="http://www.w3.org/2000/svg" x="0" y="0"><g id="Vector">
<path d="M1.412,14.667c-0.781,0 -1.412,0.597 -1.412,1.333v6.667c0,0.736 0.631,1.333 1.412,1.333c0.78,0 1.412,-0.597 1.412,-1.333v-6.667c0,-0.736 -0.632,-1.333 -1.412,-1.333z" fill="currentColor"/>
<path d="M8.471,9.333c-0.781,0 -1.412,0.598 -1.412,1.334v12c0,0.736 0.631,1.333 1.412,1.333c0.78,0 1.411,-0.597 1.411,-1.333v-12c0,-0.736 -0.631,-1.334 -1.411,-1.334z" fill="currentColor"/>
<path d="M15.529,14.667c-0.78,0 -1.411,0.597 -1.411,1.333v6.667c0,0.736 0.631,1.333 1.411,1.333c0.781,0 1.412,-0.597 1.412,-1.333v-6.667c0,-0.736 -0.631,-1.333 -1.412,-1.333z" fill="currentColor"/>
<path d="M22.588,9.333c-0.78,0 -1.412,0.598 -1.412,1.334v12c0,0.736 0.632,1.333 1.412,1.333c0.781,0 1.412,-0.597 1.412,-1.333v-12c0,-0.736 -0.631,-1.334 -1.412,-1.334z" fill="currentColor"/>
<path d="M1.41,10.667c0.406,0 0.806,-0.164 1.087,-0.48l5.974,-6.771l5.973,6.771c0.538,0.608 1.632,0.608 2.17,0l7.058,-8c0.5,-0.566 0.418,-1.407 -0.18,-1.878c-0.602,-0.472 -1.49,-0.394 -1.989,0.171l-5.974,6.771l-5.973,-6.771c-0.538,-0.608 -1.632,-0.608 -2.17,0l-7.058,8c-0.5,0.565 -0.418,1.407 0.18,1.877c0.264,0.208 0.583,0.31 0.902,0.31z" fill="currentColor"/>
</g></svg>