<svg viewBox="0 0 22 24" fill="none" xmlns="http://www.w3.org/2000/svg" x="0" y="0"><g id="Vector_6">
<path d="M0,16.477v2.723c0,3.151 5.536,4.8 10.996,4.8c5.47,0 11,-1.649 11,-4.8v-2.723c-2.65,1.945 -7.03,2.723 -11,2.723c-3.96,0 -8.35,-0.778 -10.996,-2.723z" fill="currentColor"/>
<path d="M0,9.277v2.723c0,3.151 5.536,4.8 10.996,4.8c5.47,0 11,-1.649 11,-4.8v-2.723c-2.65,1.945 -7.03,2.723 -11,2.723c-3.96,0 -8.35,-0.778 -10.996,-2.723z" fill="currentColor"/>
<path d="M10.996,9.6c6.08,0 11,-2.149 11,-4.8c0,-2.651 -4.92,-4.8 -11,-4.8c-6.07,0 -10.996,2.149 -10.996,4.8c0,2.651 4.926,4.8 10.996,4.8z" fill="currentColor"/>
</g></svg>