<svg viewBox="0 0 24 22" fill="none" xmlns="http://www.w3.org/2000/svg" x="0" y="0"><g id="Vector_3">
<path d="M23.646,12.508c-2.61,2.543 -7.13,3.815 -11.65,3.815c-4.51,0 -9.03,-1.272 -11.644,-3.815l-0.352,-0.343v7.499c0,0.619 0.253,1.214 0.703,1.652c0.45,0.438 1.06,0.684 1.697,0.684h19.196c0.64,0 1.25,-0.246 1.7,-0.684c0.45,-0.438 0.7,-1.033 0.7,-1.652v-7.499z" fill="currentColor"/>
<path d="M21.596,4.673h-3.6v-1.169c0,-0.929 -0.38,-1.82 -1.05,-2.478c-0.68,-0.657 -1.59,-1.026 -2.55,-1.026h-4.8c-0.95,0 -1.87,0.369 -2.54,1.026c-0.68,0.658 -1.06,1.549 -1.06,2.478v1.169h-3.596c-0.637,0 -1.247,0.246 -1.697,0.684c-0.45,0.438 -0.703,1.032 -0.703,1.652v1.853l2.048,1.994c4.368,4.252 15.528,4.252 19.908,0l2.04,-1.994v-1.853c0,-0.62 -0.25,-1.214 -0.7,-1.652c-0.45,-0.438 -1.06,-0.684 -1.7,-0.684zM11.996,11.682c-0.23,0 -0.47,-0.069 -0.66,-0.197c-0.2,-0.129 -0.35,-0.311 -0.44,-0.525c-0.1,-0.213 -0.12,-0.448 -0.07,-0.674c0.04,-0.227 0.16,-0.435 0.33,-0.599c0.16,-0.163 0.38,-0.274 0.61,-0.319c0.23,-0.045 0.47,-0.022 0.69,0.066c0.22,0.089 0.41,0.238 0.54,0.43c0.13,0.193 0.2,0.418 0.2,0.649c0,0.31 -0.12,0.607 -0.35,0.826c-0.22,0.22 -0.53,0.343 -0.85,0.343zM15.596,4.673h-7.2v-1.169c0,-0.309 0.13,-0.606 0.36,-0.826c0.22,-0.219 0.53,-0.342 0.84,-0.342h4.8c0.32,0 0.63,0.123 0.85,0.342c0.23,0.22 0.35,0.517 0.35,0.826z" fill="currentColor"/>
</g></svg>