<svg viewBox="0 0 24 24" fill="none" xmlns="http://www.w3.org/2000/svg" x="0" y="0"><path id="Vector_2" d="M18.278,8.935l-3.051,7.406c-0.289,0.701 -0.182,1.489 0.287,2.105c0.47,0.616 1.241,0.983 2.065,0.983h3.91c0.823,0 1.594,-0.368 2.064,-0.983c0.469,-0.616 0.576,-1.404 0.287,-2.105l-3.051,-7.406v-1.057c0.384,0.074 0.796,0.122 1.256,0.122c0.693,0 1.255,-0.512 1.255,-1.143c0,-0.631 -0.562,-1.143 -1.255,-1.143c-1.214,0 -1.864,-0.457 -2.847,-1.149c-0.886,-0.626 -1.922,-1.336 -3.505,-1.795c-0.338,-1.577 -1.864,-2.77 -3.693,-2.77c-1.843,0 -3.375,1.214 -3.698,2.808c-1.29,0.431 -2.097,1.061 -2.798,1.614c-0.956,0.749 -1.644,1.292 -3.549,1.292c-0.693,0 -1.255,0.512 -1.255,1.143c0,0.631 0.562,1.143 1.255,1.143c0.464,0 0.872,-0.034 1.256,-0.081v1.017l-3.051,7.406c-0.289,0.701 -0.182,1.489 0.287,2.105c0.47,0.614 1.241,0.982 2.065,0.982h3.909c0.824,0 1.595,-0.368 2.065,-0.983c0.469,-0.616 0.576,-1.404 0.287,-2.105l-3.051,-7.406v-1.796c0.55,-0.305 0.998,-0.654 1.423,-0.988c0.491,-0.386 0.976,-0.736 1.608,-1.014c0.446,0.697 1.145,1.236 1.991,1.51v15.067h-8.789c-0.693,0 -1.255,0.512 -1.255,1.143c0,0.631 0.562,1.143 1.255,1.143h20.09c0.693,0 1.255,-0.512 1.255,-1.143c0,-0.631 -0.562,-1.143 -1.255,-1.143h-8.789v-15.067c0.873,-0.284 1.592,-0.849 2.034,-1.582c0.988,0.345 1.692,0.828 2.371,1.306c0.203,0.143 0.412,0.288 0.63,0.431c-0.002,0.02 -0.013,0.036 -0.013,0.055zM12,4.571c-0.692,0 -1.256,-0.513 -1.256,-1.142c0,-0.63 0.564,-1.143 1.256,-1.143c0.692,0 1.256,0.513 1.256,1.143c0,0.629 -0.564,1.142 -1.256,1.142z" fill="currentColor"/></svg>