<svg viewBox="0 0 106 92" fill="none" xmlns="http://www.w3.org/2000/svg" x="0" y="0"><g id="Vector_4">
<path d="M34.6706,40.301c-0.007,4.736 0.925,9.43 2.736,13.808c1.809,4.37 4.469,8.338 7.831,11.672c0.459,0.465 0.959,0.885 1.501,1.253c0.928,0.662 1.964,1.168 3.057,1.499c0.494,0.158 1.008,0.265 1.502,0.372c1.173,0.158 2.36,0.158 3.533,0c0.494,-0.107 1.008,-0.211 1.502,-0.372c1.094,-0.331 2.125,-0.837 3.057,-1.499c0.539,-0.368 1.042,-0.788 1.501,-1.253c6.785,-6.751 10.598,-15.919 10.602,-25.48c0.01,-8.472 -2.647,-16.732 -7.599,-23.612c-0.694,-0.951 -1.419,-1.871 -2.174,-2.752l0.003,0.003c-2.702,-3.113 -5.007,-6.551 -6.857,-10.229l-1.767,-3.685l-1.767,3.685c-1.863,3.682 -4.176,7.119 -6.892,10.229c-0.752,0.882 -1.477,1.798 -2.174,2.752v-0.003c-4.948,6.881 -7.609,15.14 -7.595,23.612z" fill="currentColor"/>
<path d="M14.8786,55.008c2.481,2.952 5.359,5.545 8.555,7.708c0.793,0.531 1.573,1.023 2.402,1.481c4.106,2.37 8.637,3.909 13.338,4.529c-1.85,-1.009 -3.623,-2.159 -5.301,-3.437c-4.237,-3.255 -7.795,-7.302 -10.477,-11.921c-3.958,-6.874 -6.046,-14.661 -6.059,-22.59c0,-1.091 0,-2.221 0.141,-3.334l-0.935,0.159v0.003c-4.076,0.765 -8.231,1.02 -12.369,0.758l-4.082,-0.231l2.243,3.386c2.274,3.427 4.121,7.115 5.498,10.987c1.594,4.549 3.981,8.779 7.046,12.502z" fill="currentColor"/>
<path d="M35.6046,60.79c-0.931,-1.581 -1.76,-3.223 -2.474,-4.918c-2.015,-4.942 -3.033,-10.232 -3.002,-15.571c-0.042,-9.095 2.716,-17.982 7.899,-25.462l-0.352,-0.141h-0.003c-3.907,-1.364 -7.627,-3.203 -11.078,-5.487l-3.534,-2.239l0.266,4.058c0,0.988 0.09,1.956 0.09,2.944h-0.004c0,3.148 -0.297,6.289 -0.883,9.382c-0.232,1.199 -0.39,2.415 -0.532,3.617c-0.141,1.198 -0.158,2.538 -0.158,3.809l0.003,-0.004c0.007,7.123 1.884,14.122 5.442,20.297c2.174,3.706 4.99,6.999 8.321,9.716z" fill="currentColor"/>
<path d="M102.0416,28.398c-4.138,0.262 -8.293,0.007 -12.368,-0.757l-0.935,-0.159c0,1.113 0.141,2.239 0.141,3.334v-0.003c-0.014,7.928 -2.102,15.715 -6.06,22.59c-2.681,4.618 -6.239,8.669 -10.477,11.92c-1.677,1.282 -3.451,2.428 -5.301,3.441c4.701,-0.623 9.235,-2.163 13.339,-4.532c0.832,-0.459 1.608,-0.951 2.402,-1.481h0.003c3.192,-2.163 6.071,-4.757 8.552,-7.708c3.064,-3.699 5.456,-7.908 7.067,-12.431c1.371,-3.895 3.217,-7.611 5.495,-11.059l2.208,-3.42z" fill="currentColor"/>
<path d="M76.0686,40.301c0.041,7.195 -1.85,14.273 -5.477,20.489c3.302,-2.724 6.098,-6.013 8.251,-9.716c3.555,-6.175 5.432,-13.173 5.442,-20.297c0,-1.271 0,-2.555 -0.158,-3.809c-0.159,-1.254 -0.301,-2.414 -0.532,-3.616v0.003c-0.583,-3.093 -0.88,-6.234 -0.883,-9.382c0,-0.988 0,-1.956 0.089,-2.945l0.335,-4.057l-3.534,2.239c-3.451,2.283 -7.171,4.122 -11.077,5.486l-0.352,0.142h-0.004c5.153,7.494 7.907,16.373 7.9,25.462z" fill="currentColor"/>
<path d="M43.8746,73.63c-7.14,-0.003 -14.156,-1.88 -20.338,-5.448c-1.608,-0.906 -3.147,-1.925 -4.61,-3.052c-4.628,2.842 -8.676,6.534 -11.927,10.881l12.051,3.42c7.037,2.032 14.574,1.436 21.203,-1.674c0.653,-0.3 1.274,-0.617 1.892,-0.972c1.635,-0.912 3.185,-1.976 4.627,-3.172c-0.952,0 -1.925,0.017 -2.898,0.017z" fill="currentColor"/>
<path d="M87.2706,65.13c-1.467,1.116 -3.009,2.135 -4.611,3.052c-6.181,3.568 -13.197,5.445 -20.337,5.448h-2.881c1.442,1.195 2.992,2.259 4.631,3.172c0.617,0.352 1.235,0.672 1.891,0.971h-0.004c6.63,3.111 14.167,3.706 21.203,1.674l12.034,-3.437c-3.251,-4.346 -7.298,-8.038 -11.926,-10.88z" fill="currentColor"/>
<path d="M53.0986,73.858c-2.74,2.958 -5.967,5.428 -9.542,7.301c1.953,4.54 5.29,8.349 9.542,10.881c4.241,-2.535 7.578,-6.334 9.542,-10.863c-3.589,-1.86 -6.819,-4.336 -9.542,-7.319z" fill="currentColor"/>
</g></svg>