<svg viewBox="0 0 107.0162 107.0162" fill="none" xmlns="http://www.w3.org/2000/svg" id="e6d70c9" x="0" y="0"><g id="HowItWorks" data-node-id="204:590"><circle id="Ellipse 28_3" data-node-id="204:582" cx="53.50810000000001" cy="53.508099999999956" r="53.0081" fill="currentColor"/><g id="Vector_3" data-node-id="204:583">
<path d="M42.5661,84.7681c-2.504,2.475 -2.768,3.723 -2.547,4.335c0.274,0.746 1.499,1.233 3.551,1.411l23.31,-6.477c0.043,-0.013 0.083,-0.02 0.129,-0.015c8.984,0.409 14.523,-0.82 16.913,-3.759c1.529,-1.88 1.821,-4.489 0.918,-8.2c-9.968,-1.705 -23.414,2.335 -42.277,12.708z" fill="white"/>
<path d="M63.3011,25.5071c0,-4.967 -4.038,-9.004 -9.001,-9.004c-4.964,0 -8.999,4.04 -8.999,9.004c0,4.967 4.038,9.004 8.999,9.004c4.963,0.003 9.001,-4.038 9.001,-9.004z" fill="white"/>
<path d="M41.7161,84.0341l0.324,0.091c0.023,-0.02 0.046,-0.038 0.074,-0.056c3.964,-2.18 7.68,-4.07 11.198,-5.7c-12.304,-5.53 -21.988,-7.598 -29.555,-6.301c-0.905,3.71 -0.611,6.319 0.919,8.2c2.389,2.936 7.918,4.167 16.913,3.758c0.043,-0.01 0.083,-0.002 0.126,0.01z" fill="white"/>
<path d="M87.2751,60.7921c-0.73,-0.188 -1.512,-0.071 -2.153,0.317c-2.496,1.531 -4.731,2.03 -6.646,1.498c-1.856,-0.521 -3.442,-2.031 -4.707,-4.487l-4.812,-14.796c-0.208,-0.635 -0.743,-1.094 -1.4,-1.206l-6.481,-1.081c-0.073,-0.013 -0.142,-0.046 -0.2,-0.091c-1.59,-1.348 -2.795,-3.272 -3.782,-6.008c-0.89,0.264 -1.829,0.414 -2.797,0.414c-1.167,0 -2.281,-0.213 -3.316,-0.589c-0.996,2.83 -2.224,4.807 -3.845,6.183c-0.058,0.048 -0.127,0.081 -0.2,0.091l-6.481,1.081c-0.657,0.112 -1.192,0.571 -1.4,1.206l-4.786,14.735c-1.289,2.518 -2.874,4.028 -4.733,4.548c-1.915,0.536 -4.15,0.033 -6.645,-1.497c-0.637,-0.391 -1.418,-0.503 -2.144,-0.318c-1.712,0.409 -2.716,1.092 -3.084,2.081c-0.517,1.389 0.221,3.493 2.176,6.251c6.56,1.675 11.617,1.175 15.039,-1.492l7.766,-9.956c0.112,-0.14 0.295,-0.195 0.465,-0.137c0.169,0.058 0.279,0.213 0.279,0.393v15.672c3.401,1.101 7.038,2.533 10.926,4.307c3.668,-1.67 7.107,-3.048 10.316,-4.117v-15.87c0,-0.177 0.114,-0.335 0.279,-0.393c0.165,-0.058 0.355,-0.002 0.464,0.137l7.767,9.956c3.422,2.668 8.48,3.168 15.038,1.493c1.956,-2.759 2.692,-4.863 2.177,-6.251c-0.368,-0.988 -1.373,-1.67 -3.077,-2.076z" fill="white"/>
</g></g><defs/></svg>