<svg viewBox="0 0 107.0162 107.0162" fill="none" xmlns="http://www.w3.org/2000/svg" id="8c688f89" x="0" y="0"><g id="HowItWorks" data-node-id="204:590"><circle id="Ellipse 28" data-node-id="204:578" cx="53.50810000000001" cy="53.508099999999956" r="53.0081" fill="currentColor"/><path id="Vector" data-node-id="204:579" d="M53.5061,0.5001c-0.295,0 -0.58,0.117 -0.791,0.323c-0.21,0.21 -0.324,0.489 -0.324,0.786v7.949c0,0.293 0.117,0.576 0.324,0.786c0.211,0.209 0.493,0.323 0.791,0.323c0.294,0 0.579,-0.117 0.79,-0.323c0.211,-0.21 0.325,-0.49 0.325,-0.786v-7.949c0,-0.293 -0.117,-0.576 -0.325,-0.786c-0.211,-0.21 -0.492,-0.323 -0.79,-0.323zM53.5061,12.4141c-0.295,0 -0.58,0.116 -0.791,0.323c-0.21,0.21 -0.324,0.489 -0.324,0.785v14.624c0.003,0.606 0.505,1.096 1.115,1.096c0.613,0 1.112,-0.49 1.115,-1.096v-14.624c0,-0.292 -0.117,-0.575 -0.325,-0.785c-0.211,-0.21 -0.492,-0.323 -0.79,-0.323zM43.4931,19.1221c-0.091,0.003 -0.181,0.02 -0.261,0.05c-0.215,0.076 -0.389,0.239 -0.486,0.442c-0.094,0.203 -0.107,0.44 -0.027,0.653l3.165,8.595c0.167,0.44 0.66,0.666 1.102,0.503c0.442,-0.167 0.669,-0.653 0.505,-1.095l-3.164,-8.596c-0.128,-0.346 -0.469,-0.572 -0.837,-0.552zM33.2191,19.2081c-0.234,-0.026 -0.468,0.027 -0.673,0.14c-0.525,0.306 -0.71,0.985 -0.402,1.508l3.45,5.952c0.15,0.256 0.388,0.443 0.676,0.516c0.288,0.077 0.586,0.033 0.844,-0.11c0.522,-0.306 0.706,-0.972 0.408,-1.501l-3.459,-5.962c-0.174,-0.306 -0.492,-0.513 -0.844,-0.546zM73.7991,19.2081h-0.003c-0.352,0.034 -0.67,0.24 -0.844,0.546l-3.479,6.006c-0.309,0.522 -0.124,1.201 0.401,1.508c0.533,0.292 1.199,0.116 1.504,-0.407l3.496,-6.005c0.308,-0.523 0.124,-1.202 -0.409,-1.508c-0.2,-0.116 -0.438,-0.166 -0.673,-0.14zM63.3781,19.2951c-0.074,0.01 -0.147,0.03 -0.214,0.056c-0.211,0.087 -0.379,0.247 -0.469,0.456l-3.66,8.589c-0.091,0.21 -0.091,0.446 -0.003,0.656c0.087,0.209 0.247,0.379 0.462,0.469c0.432,0.173 0.931,-0.027 1.115,-0.456l3.657,-8.595c0.09,-0.21 0.09,-0.443 0.003,-0.653c-0.087,-0.213 -0.248,-0.379 -0.459,-0.469c-0.137,-0.057 -0.288,-0.073 -0.432,-0.057zM26.2751,26.9311c-0.175,0.027 -0.342,0.103 -0.476,0.223c-0.167,0.153 -0.264,0.37 -0.271,0.596c-0.01,0.227 0.077,0.446 0.234,0.613l7.649,8.066h-0.004c0.325,0.336 0.858,0.349 1.206,0.033c0.167,-0.153 0.261,-0.37 0.271,-0.596c0.01,-0.226 -0.077,-0.446 -0.234,-0.609l-7.642,-8.066c-0.188,-0.196 -0.459,-0.29 -0.73,-0.26zM69.1521,27.4041c-0.097,0 -0.198,0.013 -0.292,0.04c-0.281,0.077 -0.522,0.263 -0.669,0.516l-1.912,3.286h-0.004c-0.05,0.093 -0.09,0.196 -0.11,0.303c-0.004,0.013 -0.01,0.026 -0.014,0.039c-0.02,0.104 -0.026,0.204 -0.016,0.31c0,0.017 0.003,0.033 0.01,0.057c0.013,0.09 0.033,0.179 0.067,0.263c0.01,0.013 0.013,0.026 0.016,0.043c0.044,0.09 0.097,0.173 0.164,0.246c0.017,0.02 0.041,0.044 0.057,0.06c0.067,0.073 0.151,0.137 0.235,0.187c0.087,0.05 0.184,0.086 0.278,0.109c0.03,0.01 0.057,0.014 0.08,0.02c0.097,0.017 0.198,0.02 0.295,0.014c0.017,-0.004 0.03,-0.004 0.047,-0.01c0.103,-0.014 0.204,-0.04 0.304,-0.08c0,-0.003 0.004,-0.003 0.004,-0.003c0.097,-0.044 0.187,-0.104 0.264,-0.17c0.014,-0.014 0.027,-0.027 0.044,-0.04c0.077,-0.067 0.147,-0.153 0.197,-0.243l1.628,-2.81h0.003c0.017,-0.03 0.034,-0.063 0.05,-0.096l0.228,-0.393c0.302,-0.523 0.121,-1.192 -0.408,-1.495c-0.168,-0.096 -0.362,-0.15 -0.553,-0.153zM100.2581,27.4241v0.003c-0.147,0.017 -0.288,0.067 -0.412,0.14l-6.838,3.925c-0.255,0.146 -0.442,0.386 -0.519,0.672c-0.074,0.28 -0.034,0.583 0.117,0.839c0.305,0.523 0.985,0.706 1.517,0.4l6.838,-3.928h-0.003c0.532,-0.307 0.71,-0.979 0.408,-1.508c-0.147,-0.253 -0.385,-0.44 -0.669,-0.516c-0.148,-0.04 -0.292,-0.047 -0.439,-0.027zM6.7471,27.4311c-0.442,-0.057 -0.874,0.153 -1.098,0.536c-0.305,0.529 -0.124,1.201 0.408,1.508l7.488,4.304c0.258,0.15 0.562,0.186 0.847,0.106c0.288,-0.076 0.526,-0.263 0.673,-0.519c0.295,-0.529 0.111,-1.198 -0.418,-1.495l-7.488,-4.304c-0.127,-0.073 -0.265,-0.12 -0.412,-0.136zM38.0371,27.7041h0.004c-0.198,0.003 -0.389,0.056 -0.556,0.153c-0.533,0.303 -0.71,0.978 -0.409,1.508l1.731,2.982c0.151,0.253 0.396,0.44 0.677,0.516c0.288,0.074 0.593,0.034 0.844,-0.116c0.532,-0.306 0.71,-0.979 0.408,-1.508l-1.734,-2.983c-0.148,-0.253 -0.385,-0.439 -0.67,-0.516c-0.097,-0.026 -0.194,-0.04 -0.291,-0.04zM78.5901,28.5361h0.004c-0.231,0.003 -0.456,0.106 -0.61,0.276l-5.984,6.275c-0.321,0.346 -0.305,0.872 0.034,1.199c0.164,0.156 0.385,0.243 0.612,0.239c0.228,-0.003 0.446,-0.096 0.603,-0.263l5.988,-6.275c0.154,-0.166 0.241,-0.386 0.231,-0.612c-0.01,-0.227 -0.107,-0.44 -0.275,-0.596c-0.164,-0.153 -0.378,-0.243 -0.603,-0.24zM54.9521,32.3511c-10.528,0 -19.057,8.482 -19.055,18.948c-1.218,3.115 -7.229,6.518 -4.869,9.676l3.517,0.62l-0.6,4.028c-0.171,1.158 0.72,2.207 1.899,2.223l3.067,0.05c0.027,0 0.027,0.044 0,0.044l-3.081,0.286l-0.596,0.493c1.012,2.453 -0.164,3.135 0.057,4.387c0.462,2.617 2.776,4.777 5.455,4.777h1.413c1.129,0 2.247,-0.136 3.336,-0.386l-0.004,0.01l3.486,1.495l-0.525,1.724l4.152,6.787l26.013,-0.193l-9.671,-19.477c5.154,-2.773 5.318,-8.019 5.797,-17.803c0.01,-10.466 -9.263,-17.693 -19.791,-17.693zM16.8871,33.2461c-0.14,-0.02 -0.288,-0.013 -0.428,0.02c-0.288,0.077 -0.536,0.26 -0.683,0.516c-0.151,0.257 -0.188,0.56 -0.111,0.842c0.081,0.28 0.271,0.523 0.526,0.67l12.973,7.446h-0.003c0.258,0.147 0.562,0.187 0.844,0.11c0.288,-0.076 0.532,-0.259 0.676,-0.516c0.308,-0.529 0.124,-1.202 -0.409,-1.508l-12.983,-7.447c-0.124,-0.073 -0.264,-0.119 -0.408,-0.136zM89.1601,33.7991c-0.148,0.017 -0.288,0.063 -0.416,0.133l-12.008,6.898c-0.533,0.306 -0.717,0.978 -0.409,1.508c0.308,0.522 0.978,0.702 1.51,0.406l12.029,-6.894h-0.004c0.258,-0.15 0.443,-0.387 0.52,-0.673c0.077,-0.286 0.033,-0.582 -0.111,-0.839c-0.151,-0.246 -0.395,-0.429 -0.673,-0.502c-0.141,-0.04 -0.288,-0.05 -0.432,-0.034zM20.4041,45.3331c-0.368,0.044 -0.67,0.32 -0.74,0.683c-0.047,0.223 0,0.453 0.124,0.639c0.127,0.186 0.321,0.32 0.546,0.366l9.403,1.928c0.224,0.046 0.459,0 0.646,-0.124c0.195,-0.126 0.322,-0.322 0.369,-0.545c0.043,-0.224 0,-0.453 -0.124,-0.64c-0.127,-0.193 -0.322,-0.319 -0.546,-0.366l-9.41,-1.927c-0.091,-0.017 -0.181,-0.02 -0.271,-0.014zM90.7881,45.4101l-11.315,1.824c-0.463,0.077 -0.781,0.506 -0.71,0.972c0.04,0.223 0.164,0.423 0.348,0.553c0.184,0.133 0.415,0.183 0.643,0.15l11.302,-1.811c0.224,-0.04 0.425,-0.163 0.556,-0.346c0.134,-0.184 0.187,-0.413 0.151,-0.64c-0.074,-0.459 -0.51,-0.775 -0.975,-0.702zM12.7021,54.3281c-0.294,0 -0.579,0.12 -0.79,0.33c-0.211,0.203 -0.325,0.489 -0.325,0.786c0,0.289 0.121,0.572 0.325,0.778c0.211,0.21 0.492,0.323 0.79,0.323h6.571c0.291,0 0.575,-0.116 0.783,-0.323c0.211,-0.209 0.325,-0.489 0.325,-0.778c0,-0.293 -0.117,-0.58 -0.325,-0.786c-0.204,-0.21 -0.489,-0.33 -0.783,-0.33zM22.4471,54.3281c-0.295,0 -0.579,0.12 -0.79,0.33c-0.205,0.203 -0.322,0.489 -0.322,0.786c0,0.289 0.117,0.572 0.325,0.778c0.204,0.21 0.489,0.323 0.784,0.323h3.596c0.295,0 0.579,-0.116 0.79,-0.323c0.211,-0.209 0.325,-0.489 0.325,-0.778c0,-0.293 -0.117,-0.58 -0.325,-0.786c-0.211,-0.21 -0.492,-0.33 -0.79,-0.33zM80.9661,54.3281c-0.61,0.004 -1.102,0.503 -1.102,1.112c0,0.606 0.492,1.099 1.102,1.105h3.935c0.294,0 0.579,-0.116 0.79,-0.323c0.211,-0.203 0.331,-0.489 0.325,-0.778c0.003,-0.3 -0.117,-0.58 -0.322,-0.789c-0.211,-0.21 -0.495,-0.323 -0.793,-0.323zM87.4091,54.3281c-0.295,0 -0.579,0.12 -0.79,0.33c-0.211,0.203 -0.325,0.489 -0.325,0.786c0,0.289 0.12,0.572 0.325,0.778c0.211,0.21 0.492,0.323 0.79,0.323h6.915h-0.003c0.294,0 0.579,-0.116 0.79,-0.323c0.211,-0.203 0.331,-0.489 0.325,-0.778c0.003,-0.3 -0.117,-0.58 -0.322,-0.789c-0.211,-0.21 -0.495,-0.323 -0.793,-0.323zM80.0181,61.1631c-0.368,-0.01 -0.703,0.223 -0.827,0.565c-0.077,0.214 -0.064,0.447 0.034,0.653c0.093,0.21 0.271,0.366 0.485,0.439l9.872,3.486h0.004c0.214,0.08 0.449,0.066 0.656,-0.03c0.211,-0.094 0.369,-0.27 0.446,-0.486c0.077,-0.213 0.063,-0.446 -0.034,-0.653c-0.094,-0.203 -0.271,-0.363 -0.489,-0.439l-9.885,-3.486c-0.08,-0.029 -0.171,-0.046 -0.262,-0.049zM27.7281,62.2181l-9.762,0.819c-0.472,0.04 -0.823,0.452 -0.783,0.918c0.04,0.47 0.455,0.819 0.924,0.779l9.755,-0.822c0.472,-0.04 0.824,-0.446 0.784,-0.915c-0.041,-0.47 -0.449,-0.819 -0.921,-0.779zM29.5831,67.9901c-0.147,0.017 -0.288,0.063 -0.415,0.14l-10.605,6.092v-0.004c-0.533,0.307 -0.71,0.979 -0.409,1.508c0.151,0.257 0.395,0.44 0.677,0.516c0.288,0.077 0.592,0.034 0.844,-0.109l10.605,-6.089c0.258,-0.15 0.445,-0.386 0.519,-0.672c0.077,-0.28 0.04,-0.583 -0.111,-0.839c-0.147,-0.253 -0.385,-0.44 -0.669,-0.516c-0.141,-0.04 -0.292,-0.047 -0.439,-0.027zM77.4291,67.9971c-0.442,-0.057 -0.87,0.156 -1.098,0.536c-0.151,0.256 -0.187,0.552 -0.11,0.839c0.073,0.286 0.261,0.522 0.519,0.672l13.214,7.59l-0.004,-0.003c0.258,0.149 0.566,0.186 0.847,0.106c0.288,-0.076 0.526,-0.263 0.674,-0.519c0.294,-0.529 0.11,-1.199 -0.416,-1.495l-13.214,-7.59v-0.003c-0.127,-0.067 -0.264,-0.117 -0.412,-0.133zM14.7751,76.4921v-0.003c-0.147,0.016 -0.288,0.063 -0.415,0.136l-8.298,4.767c-0.258,0.15 -0.446,0.387 -0.519,0.673c-0.078,0.279 -0.041,0.582 0.11,0.839c0.308,0.519 0.978,0.699 1.51,0.399l8.315,-4.774v0.004c0.526,-0.306 0.71,-0.979 0.402,-1.508c-0.151,-0.253 -0.388,-0.436 -0.673,-0.506c-0.141,-0.04 -0.288,-0.05 -0.432,-0.033zM94.2831,77.6611c-0.445,-0.06 -0.884,0.163 -1.101,0.549c-0.302,0.529 -0.121,1.192 0.401,1.501l6.266,3.602v-0.003c0.532,0.306 1.209,0.126 1.517,-0.4c0.15,-0.256 0.187,-0.559 0.11,-0.839c-0.073,-0.286 -0.261,-0.522 -0.519,-0.672l-6.265,-3.602l0.003,0.003c-0.127,-0.073 -0.271,-0.119 -0.415,-0.136z" fill="white"/></g><defs/></svg>