<svg viewBox="0 0 107.0162 107.2281" fill="none" xmlns="http://www.w3.org/2000/svg" id="4c799de9" x="0" y="0"><g id="HowItWorks" data-node-id="204:590"><circle id="Ellipse 28_2" data-node-id="204:580" cx="53.50810000000001" cy="53.508099999999956" r="53.0081" fill="currentColor"/><path id="Vector_2" data-node-id="204:581" fill-rule="evenodd" clip-rule="evenodd" d="M75.9101,63.7541c0.323,-0.33 0.707,-0.579 1.135,-0.74v-3.575h-3.771c0.029,-0.039 0.059,-0.078 0.091,-0.114c0.485,-0.629 0.843,-1.352 1.055,-2.122h3.261c0.417,0.003 0.813,0.168 1.105,0.468c0.296,0.299 0.462,0.701 0.462,1.123v4.22c1.315,0.494 2.158,1.81 2.057,3.233c-0.098,1.423 -1.108,2.607 -2.483,2.913c-1.375,0.305 -2.782,-0.345 -3.456,-1.595c-0.674,-1.249 -0.455,-2.804 0.538,-3.808zM33.0771,59.4391h-3.772v3.575c1.434,0.539 2.279,2.043 2.01,3.572c-0.272,1.522 -1.581,2.634 -3.112,2.634c-1.529,0 -2.838,-1.112 -3.11,-2.634c-0.269,-1.526 0.576,-3.03 2.01,-3.572v-4.22c0.003,-0.877 0.703,-1.588 1.57,-1.591h3.26c0.213,0.77 0.571,1.493 1.058,2.122c0.03,0.039 0.059,0.078 0.092,0.114zM30.9051,45.5501h-1.946c-0.532,1.453 -2.016,2.313 -3.523,2.038c-1.505,-0.273 -2.604,-1.601 -2.604,-3.153c0,-1.549 1.096,-2.877 2.604,-3.152c1.505,-0.276 2.988,0.584 3.523,2.037h1.632c0.05,0.633 0.178,1.259 0.379,1.861l-0.06,0.375zM31.3801,32.0981h-2.098c-0.461,1.259 -1.647,2.092 -2.971,2.092c-1.174,0 -2.253,-0.662 -2.797,-1.723c-0.54,-1.058 -0.461,-2.331 0.207,-3.311c0.674,-0.977 1.824,-1.499 2.992,-1.352c1.165,0.15 2.152,0.944 2.566,2.059h2.82l-1.112,1.561l0.444,0.324c-0.024,0.114 -0.042,0.231 -0.054,0.347zM36.6511,26.0451h-2.214c-0.414,0 -0.81,-0.168 -1.106,-0.467c-0.295,-0.297 -0.458,-0.701 -0.458,-1.124v-4.744c-1.433,-0.539 -2.282,-2.043 -2.01,-3.571c0.269,-1.526 1.579,-2.634 3.11,-2.634c1.528,0 2.838,1.108 3.11,2.634c0.272,1.525 -0.577,3.029 -2.01,3.571v4.1h3.349c-0.544,0.488 -1.026,1.043 -1.428,1.654c-0.124,0.192 -0.242,0.383 -0.352,0.587zM67.9261,23.8131h3.349v-4.106c-1.434,-0.539 -2.282,-2.043 -2.01,-3.572c0.269,-1.525 1.581,-2.634 3.11,-2.634c1.528,0 2.84,1.109 3.109,2.634c0.272,1.526 -0.576,3.03 -2.01,3.572v4.741c0,0.878 -0.703,1.591 -1.569,1.591h-2.212c-0.109,-0.201 -0.227,-0.395 -0.351,-0.587c-0.402,-0.611 -0.881,-1.166 -1.428,-1.654zM74.2191,29.8661h2.855h-0.002c0.532,-1.454 2.016,-2.314 3.523,-2.038c1.505,0.273 2.604,1.603 2.604,3.153c0,1.549 -1.096,2.879 -2.604,3.152c-1.505,0.276 -2.988,-0.584 -3.523,-2.038h-2.105c-0.098,-0.791 -0.355,-1.549 -0.757,-2.232zM75.7591,43.3171h1.632c0.532,-1.453 2.016,-2.31 3.523,-2.037c1.505,0.275 2.599,1.603 2.599,3.155c0,1.549 -1.094,2.877 -2.599,3.153c-1.504,0.272 -2.988,-0.585 -3.523,-2.038h-1.951l-0.059,-0.375h-0.003c0.204,-0.602 0.328,-1.228 0.381,-1.861zM16.7181,86.0311l-3.216,3.099l16.326,17.386l3.216,-3.108zM19.5831,85.8511l1.191,-1.141l13.778,14.668l-1.189,1.147zM68.5971,67.3441c-0.042,-0.015 -0.083,-0.024 -0.13,-0.027c-0.219,-0.003 -0.435,0.054 -0.633,0.162l-12.882,8.244c0.015,0.03 0.027,0.066 0.038,0.096v0.003c0.154,0.395 0.261,0.806 0.32,1.228l12.675,-9.328l0.044,-0.03c0.19,-0.126 0.382,-0.237 0.571,-0.342zM60.4881,24.4871c-0.576,0.204 -1.203,-0.099 -1.407,-0.683c-0.201,-0.578 0.104,-1.217 0.674,-1.423c1.106,-0.396 2.282,-0.546 3.45,-0.435c-0.204,-0.312 -0.435,-0.593 -0.701,-0.854c-1.256,-1.235 -3.056,-1.714 -4.747,-1.265c-1.691,0.45 -3.03,1.762 -3.53,3.462c-0.139,0.476 -0.57,0.803 -1.058,0.803c-0.488,-0.003 -0.916,-0.33 -1.052,-0.806c-0.503,-1.699 -1.842,-3.009 -3.536,-3.456c-1.69,-0.443 -3.488,0.036 -4.744,1.265c-0.26,0.261 -0.497,0.545 -0.701,0.854c1.171,-0.111 2.348,0.039 3.45,0.435c0.284,0.092 0.517,0.296 0.65,0.566c0.133,0.27 0.151,0.584 0.054,0.866c-0.098,0.285 -0.308,0.515 -0.58,0.641c-0.269,0.126 -0.579,0.138 -0.854,0.027c-2.545,-0.914 -5.377,0.042 -6.876,2.317c-0.133,0.2 -0.254,0.41 -0.363,0.629c0.957,0.284 1.821,0.824 2.498,1.57c0.407,0.45 0.381,1.151 -0.06,1.57c-0.443,0.414 -1.132,0.396 -1.549,-0.051c-0.455,-0.497 -1.043,-0.845 -1.69,-0.998l-0.039,-0.003c-1.315,-0.296 -2.675,0.243 -3.455,1.358c-0.58,0.836 -0.757,1.894 -0.476,2.877c0.275,0.986 0.975,1.786 1.903,2.187c0.396,0.168 0.659,0.557 0.674,0.989c0.015,0.435 -0.224,0.836 -0.606,1.031c-1.759,0.902 -2.867,2.73 -2.867,4.735c0,2.001 1.108,3.832 2.867,4.737c0.529,0.279 0.739,0.944 0.47,1.483c-0.269,0.54 -0.916,0.768 -1.457,0.504c-0.707,-0.36 -1.354,-0.836 -1.915,-1.402c-0.009,0.044 -0.015,0.095 -0.024,0.14v-0.003c-0.163,1.232 0.18,2.479 0.961,3.44c0.774,0.959 1.915,1.55 3.136,1.628c0.594,0.054 1.037,0.575 0.999,1.18c-0.038,0.603 -0.541,1.067 -1.135,1.043c-0.931,-0.06 -1.839,-0.318 -2.661,-0.758c-0.082,0.354 -0.118,0.713 -0.097,1.079c0.077,1.366 0.89,2.577 2.116,3.152c1.227,0.576 2.664,0.42 3.74,-0.41c0.334,-0.252 0.78,-0.297 1.153,-0.108c0.375,0.192 0.609,0.578 0.609,1.001c0.136,2.523 1.891,4.653 4.312,5.238c2.424,0.587 4.943,-0.507 6.19,-2.694c0.198,-0.345 0.559,-0.561 0.955,-0.558c0.393,0 0.757,0.219 0.955,0.564c1.253,2.193 3.784,3.287 6.213,2.685c2.43,-0.603 4.177,-2.757 4.287,-5.289c0.017,-0.414 0.26,-0.782 0.632,-0.959c0.367,-0.177 0.801,-0.132 1.127,0.12c1.078,0.824 2.515,0.983 3.742,0.41c1.221,-0.575 2.037,-1.786 2.11,-3.155c0.018,-0.36 -0.011,-0.722 -0.094,-1.073c-0.825,0.441 -1.732,0.698 -2.661,0.758c-0.597,0.018 -1.099,-0.443 -1.138,-1.046c-0.038,-0.602 0.405,-1.126 1,-1.18c1.22,-0.078 2.361,-0.669 3.136,-1.627c0.78,-0.959 1.126,-2.206 0.961,-3.438l-0.024,-0.14h0.003c-0.565,0.572 -1.206,1.042 -1.919,1.408c-0.541,0.276 -1.203,0.054 -1.475,-0.495c-0.272,-0.548 -0.053,-1.219 0.488,-1.495c1.759,-0.902 2.873,-2.736 2.873,-4.734c0,-2.002 -1.111,-3.833 -2.873,-4.738c-0.381,-0.195 -0.618,-0.599 -0.606,-1.031c0.015,-0.434 0.281,-0.818 0.674,-0.986c0.916,-0.395 1.611,-1.189 1.895,-2.154c0.284,-0.971 0.124,-2.017 -0.432,-2.859c-0.012,-0.015 -0.026,-0.03 -0.038,-0.051c-0.58,-0.836 -1.499,-1.367 -2.504,-1.435c-1.005,-0.069 -1.989,0.326 -2.678,1.072c-0.42,0.42 -1.085,0.423 -1.517,0.015c-0.428,-0.407 -0.464,-1.082 -0.082,-1.534c0.677,-0.74 1.54,-1.283 2.498,-1.564c-0.107,-0.219 -0.228,-0.429 -0.364,-0.633c-1.499,-2.277 -4.328,-3.23 -6.87,-2.313zM61.6471,51.1811h-0.003c-2.377,2.319 -5.028,4.342 -7.89,6.014c-0.349,0.222 -0.792,0.228 -1.147,0.012c-2.867,-1.675 -5.525,-3.698 -7.907,-6.026c-1.839,-1.768 -3.287,-3.908 -4.254,-6.284c-0.242,-0.641 -0.422,-1.301 -0.541,-1.975c-0.334,-1.729 -0.139,-3.521 0.55,-5.139c0.739,-1.66 2.105,-2.955 3.793,-3.584c0.49,-0.192 1.002,-0.332 1.522,-0.425c1.842,-0.33 3.739,0.06 5.3,1.099c0.024,0.012 0.045,0.027 0.068,0.042c0.807,0.54 1.496,1.238 2.031,2.053c0.538,-0.812 1.227,-1.51 2.031,-2.053c1.578,-1.069 3.5,-1.477 5.368,-1.138c0.517,0.093 1.029,0.233 1.522,0.425c1.691,0.626 3.063,1.918 3.799,3.578c0.689,1.618 0.881,3.41 0.55,5.139c-0.119,0.672 -0.299,1.334 -0.541,1.972c-0.964,2.379 -2.415,4.519 -4.254,6.287zM53.1751,54.9481h-0.003c-2.503,-1.505 -4.827,-3.297 -6.923,-5.343c-1.617,-1.546 -2.891,-3.422 -3.742,-5.502c-0.192,-0.506 -0.337,-1.031 -0.432,-1.564c-0.254,-1.286 -0.124,-2.616 0.379,-3.824c0.499,-1.127 1.43,-2.002 2.571,-2.424c0.367,-0.141 0.742,-0.246 1.124,-0.312c1.289,-0.234 2.622,0.039 3.718,0.764l0.054,0.039v-0.003c1.105,0.743 1.889,1.894 2.178,3.207c0.11,0.506 0.55,0.872 1.064,0.875c0.515,0.003 0.961,-0.354 1.079,-0.86c0.287,-1.319 1.07,-2.47 2.179,-3.219c1.108,-0.749 2.462,-1.037 3.772,-0.797c0.387,0.069 0.76,0.174 1.123,0.312c1.144,0.422 2.069,1.297 2.572,2.421c0.502,1.208 0.635,2.538 0.378,3.824c-0.094,0.533 -0.239,1.057 -0.431,1.564c-0.852,2.08 -2.126,3.949 -3.743,5.502c-2.095,2.049 -4.419,3.838 -6.923,5.343zM34.9481,96.5611c3.515,-3.428 6.456,-3.08 9.596,-2.709c3.068,0.366 6.364,0.753 10.819,-3.608l17.733,-17.365l0.003,-0.003c0.583,-0.518 0.843,-1.312 0.689,-2.083c-0.083,-0.368 -0.248,-0.71 -0.485,-1c-0.248,-0.306 -0.567,-0.552 -0.928,-0.714c-1.04,-0.395 -2.211,-0.23 -3.098,0.444l-14.499,10.671c-1.271,2.505 -4.245,3.584 -6.796,2.454l-8.268,-3.671c-0.269,-0.114 -0.476,-0.339 -0.582,-0.614c-0.107,-0.273 -0.104,-0.579 0.014,-0.851c0.243,-0.564 0.89,-0.821 1.446,-0.576l8.268,3.671c1.543,0.662 3.329,-0.057 4.003,-1.615c0.674,-1.558 -0.012,-3.374 -1.541,-4.081l-8.909,-3.95c-9.89,-2.724 -12.149,1.75 -14.632,6.67v0.003c-1.085,2.452 -2.545,4.711 -4.328,6.701z" fill="white"/></g><defs/></svg>