<svg viewBox="0 0 1280 218.033" fill="none" xmlns="http://www.w3.org/2000/svg" id="c40a1c6f" x="0" y="0"><g id="HowItWorks" data-node-id="204:590"><path id="Rectangle 247" data-node-id="204:567" d="M0.00143,131.035c0,0 297.04517,-130.535 640.09817,-130.535c343.053,0 640.1,130.535 640.1,130.535v86.498h-1280.19832z" fill="url(#paint0_linear_204_590)"/><path id="Arrow 1" data-node-id="204:584" d="M556.7936,91.221c0.391,-0.391 0.391,-1.024 0,-1.414l-6.365,-6.365c-0.39,-0.391 -1.023,-0.391 -1.414,0c-0.391,0.39 -0.391,1.023 0,1.414l5.658,5.658l-5.658,5.658c-0.391,0.39 -0.391,1.023 0,1.414c0.391,0.391 1.024,0.391 1.414,0zM419.0656,90.514v1h2.015v-1v-1h-2.015zM425.1106,90.514v1h4.03v-1v-1h-4.03zM433.1706,90.514v1h4.03v-1v-1h-4.03zM441.2306,90.514v1h4.03v-1v-1h-4.03zM449.2906,90.514v1h4.03v-1v-1h-4.03zM457.3506,90.514v1h4.03v-1v-1h-4.03zM465.4106,90.514v1h4.03v-1v-1h-4.03zM473.4716,90.514v1h4.03v-1v-1h-4.03zM481.5316,90.514v1h4.03v-1v-1h-4.03zM489.5916,90.514v1h4.03v-1v-1h-4.03zM497.6516,90.514v1h4.03v-1v-1h-4.03zM505.7116,90.514v1h4.03v-1v-1h-4.03zM513.7716,90.514v1h4.03v-1v-1h-4.03zM521.8316,90.514v1h4.03v-1v-1h-4.03zM529.8916,90.514v1h4.03v-1v-1h-4.03zM537.9516,90.514v1h4.03v-1v-1h-4.03zM546.0116,90.514v1h4.03v-1v-1h-4.03zM554.0716,90.514v1h2.015v-1v-1h-2.015zM556.7936,91.221c0.391,-0.391 0.391,-1.024 0,-1.414l-6.365,-6.365c-0.39,-0.391 -1.023,-0.391 -1.414,0c-0.391,0.39 -0.391,1.023 0,1.414l5.658,5.658l-5.658,5.658c-0.391,0.39 -0.391,1.023 0,1.414c0.391,0.391 1.024,0.391 1.414,0zM419.0656,90.514v1h2.015v-1v-1h-2.015zM425.1106,90.514v1h4.03v-1v-1h-4.03zM433.1706,90.514v1h4.03v-1v-1h-4.03zM441.2306,90.514v1h4.03v-1v-1h-4.03zM449.2906,90.514v1h4.03v-1v-1h-4.03zM457.3506,90.514v1h4.03v-1v-1h-4.03zM465.4106,90.514v1h4.03v-1v-1h-4.03zM473.4716,90.514v1h4.03v-1v-1h-4.03zM481.5316,90.514v1h4.03v-1v-1h-4.03zM489.5916,90.514v1h4.03v-1v-1h-4.03zM497.6516,90.514v1h4.03v-1v-1h-4.03zM505.7116,90.514v1h4.03v-1v-1h-4.03zM513.7716,90.514v1h4.03v-1v-1h-4.03zM521.8316,90.514v1h4.03v-1v-1h-4.03zM529.8916,90.514v1h4.03v-1v-1h-4.03zM537.9516,90.514v1h4.03v-1v-1h-4.03zM546.0116,90.514v1h4.03v-1v-1h-4.03zM554.0716,90.514v1h2.015v-1v-1h-2.015z" fill="#374151"/><path id="Arrow 2" data-node-id="204:585" d="M854.8396,91.221c0.391,-0.391 0.391,-1.024 0,-1.414l-6.365,-6.365c-0.39,-0.391 -1.024,-0.391 -1.414,0c-0.391,0.39 -0.391,1.023 0,1.414l5.657,5.658l-5.657,5.658c-0.391,0.39 -0.391,1.023 0,1.414c0.39,0.391 1.024,0.391 1.414,0zM717.1116,90.514v1h2.015v-1v-1h-2.015zM723.1566,90.514v1h4.03v-1v-1h-4.03zM731.2166,90.514v1h4.03v-1v-1h-4.03zM739.2766,90.514v1h4.03v-1v-1h-4.03zM747.3366,90.514v1h4.03v-1v-1h-4.03zM755.3966,90.514v1h4.03v-1v-1h-4.03zM763.4566,90.514v1h4.03v-1v-1h-4.03zM771.5166,90.514v1h4.03v-1v-1h-4.03zM779.5766,90.514v1h4.03v-1v-1h-4.03zM787.6366,90.514v1h4.03v-1v-1h-4.03zM795.6966,90.514v1h4.03v-1v-1h-4.03zM803.7566,90.514v1h4.03v-1v-1h-4.03zM811.8176,90.514v1h4.03v-1v-1h-4.03zM819.8776,90.514v1h4.03v-1v-1h-4.03zM827.9376,90.514v1h4.03v-1v-1h-4.03zM835.9976,90.514v1h4.03v-1v-1h-4.03zM844.0576,90.514v1h4.03v-1v-1h-4.03zM852.1176,90.514v1h2.015v-1v-1h-2.015zM854.8396,91.221c0.391,-0.391 0.391,-1.024 0,-1.414l-6.365,-6.365c-0.39,-0.391 -1.024,-0.391 -1.414,0c-0.391,0.39 -0.391,1.023 0,1.414l5.657,5.658l-5.657,5.658c-0.391,0.39 -0.391,1.023 0,1.414c0.39,0.391 1.024,0.391 1.414,0zM717.1116,90.514v1h2.015v-1v-1h-2.015zM723.1566,90.514v1h4.03v-1v-1h-4.03zM731.2166,90.514v1h4.03v-1v-1h-4.03zM739.2766,90.514v1h4.03v-1v-1h-4.03zM747.3366,90.514v1h4.03v-1v-1h-4.03zM755.3966,90.514v1h4.03v-1v-1h-4.03zM763.4566,90.514v1h4.03v-1v-1h-4.03zM771.5166,90.514v1h4.03v-1v-1h-4.03zM779.5766,90.514v1h4.03v-1v-1h-4.03zM787.6366,90.514v1h4.03v-1v-1h-4.03zM795.6966,90.514v1h4.03v-1v-1h-4.03zM803.7566,90.514v1h4.03v-1v-1h-4.03zM811.8176,90.514v1h4.03v-1v-1h-4.03zM819.8776,90.514v1h4.03v-1v-1h-4.03zM827.9376,90.514v1h4.03v-1v-1h-4.03zM835.9976,90.514v1h4.03v-1v-1h-4.03zM844.0576,90.514v1h4.03v-1v-1h-4.03zM852.1176,90.514v1h2.015v-1v-1h-2.015z" fill="#374151"/></g><defs><linearGradient id="paint0_linear_204_590" x1="635.0986" y1="206.94599999999997" x2="635.0986" y2="4.281000000000006" gradientUnits="userSpaceOnUse">
<stop stop-color="#D9D9D9" stop-opacity="0"/>
<stop offset="0.985195" stop-color="#F3F3F3"/>
</linearGradient></defs></svg>