<svg viewBox="0 0 1281.0002 439.5" fill="none" xmlns="http://www.w3.org/2000/svg" id="199dd322" x="0" y="0"><g id="HowItWorks-r1" data-node-id="571:1885"><g id="variant=HowItWorks-r1" data-node-id="571:1884"><g id="Frame 373" data-node-id="571:1855"><g id="Group 9" data-node-id="571:1856"><path id="Rectangle 247" data-node-id="571:1858" d="M0.5002,284.362c0,0 297,-150.362 640,-150.362c343,0 640,150.362 640,150.362v99.638h-1280.0002z" fill="url(#paint0_linear_571_1885)"/><circle id="Ellipse 31" data-node-id="571:1868" cx="640.5002" cy="384" r="53" fill="#F4F4F4"/><circle id="Ellipse 33" data-node-id="571:1869" cx="640.5002" cy="103" r="99" fill="#F3F3F3" stroke="white" stroke-width="8"/><circle id="Ellipse 32" data-node-id="571:1872" cx="934.5002" cy="386" r="53" fill="#F4F4F4"/><circle id="Ellipse 30" data-node-id="571:1874" cx="329.5002" cy="384" r="53" fill="#F4F4F4"/><circle id="Ellipse 29" data-node-id="571:1876" cx="330.0002" cy="384" r="53" fill="#F4F4F4"/><path id="Arrow 1" data-node-id="571:1878" d="M557.2072,257.707c0.391,-0.39 0.391,-1.024 0,-1.414l-6.364,-6.364c-0.39,-0.391 -1.024,-0.391 -1.414,0c-0.391,0.39 -0.391,1.024 0,1.414l5.657,5.657l-5.657,5.657c-0.391,0.39 -0.391,1.024 0,1.414c0.39,0.391 1.024,0.391 1.414,0zM419.5002,257v1h2.015v-1v-1h-2.015zM425.5442,257v1h4.03v-1v-1h-4.03zM433.6032,257v1h4.029v-1v-1h-4.029zM441.6622,257v1h4.029v-1v-1h-4.029zM449.7212,257v1h4.029v-1v-1h-4.029zM457.7792,257v1h4.03v-1v-1h-4.03zM465.8382,257v1h4.03v-1v-1h-4.03zM473.8972,257v1h4.029v-1v-1h-4.029zM481.9562,257v1h4.029v-1v-1h-4.029zM490.0152,257v1h4.029v-1v-1h-4.029zM498.0742,257v1h4.029v-1v-1h-4.029zM506.1322,257v1h4.03v-1v-1h-4.03zM514.1912,257v1h4.03v-1v-1h-4.03zM522.2502,257v1h4.029v-1v-1h-4.029zM530.3092,257v1h4.029v-1v-1h-4.029zM538.3682,257v1h4.029v-1v-1h-4.029zM546.4262,257v1h4.03v-1v-1h-4.03zM554.4852,257v1h2.015v-1v-1h-2.015zM557.2072,257.707c0.391,-0.39 0.391,-1.024 0,-1.414l-6.364,-6.364c-0.39,-0.391 -1.024,-0.391 -1.414,0c-0.391,0.39 -0.391,1.024 0,1.414l5.657,5.657l-5.657,5.657c-0.391,0.39 -0.391,1.024 0,1.414c0.39,0.391 1.024,0.391 1.414,0zM419.5002,257v1h2.015v-1v-1h-2.015zM425.5442,257v1h4.03v-1v-1h-4.03zM433.6032,257v1h4.029v-1v-1h-4.029zM441.6622,257v1h4.029v-1v-1h-4.029zM449.7212,257v1h4.029v-1v-1h-4.029zM457.7792,257v1h4.03v-1v-1h-4.03zM465.8382,257v1h4.03v-1v-1h-4.03zM473.8972,257v1h4.029v-1v-1h-4.029zM481.9562,257v1h4.029v-1v-1h-4.029zM490.0152,257v1h4.029v-1v-1h-4.029zM498.0742,257v1h4.029v-1v-1h-4.029zM506.1322,257v1h4.03v-1v-1h-4.03zM514.1912,257v1h4.03v-1v-1h-4.03zM522.2502,257v1h4.029v-1v-1h-4.029zM530.3092,257v1h4.029v-1v-1h-4.029zM538.3682,257v1h4.029v-1v-1h-4.029zM546.4262,257v1h4.03v-1v-1h-4.03zM554.4852,257v1h2.015v-1v-1h-2.015z" fill="#374151"/><path id="Arrow 2" data-node-id="571:1879" d="M855.2072,257.707c0.391,-0.39 0.391,-1.024 0,-1.414l-6.364,-6.364c-0.39,-0.391 -1.024,-0.391 -1.414,0c-0.391,0.39 -0.391,1.024 0,1.414l5.657,5.657l-5.657,5.657c-0.391,0.39 -0.391,1.024 0,1.414c0.39,0.391 1.024,0.391 1.414,0zM717.5002,257v1h2.015v-1v-1h-2.015zM723.5442,257v1h4.03v-1v-1h-4.03zM731.6032,257v1h4.029v-1v-1h-4.029zM739.6622,257v1h4.029v-1v-1h-4.029zM747.7212,257v1h4.029v-1v-1h-4.029zM755.7792,257v1h4.03v-1v-1h-4.03zM763.8382,257v1h4.03v-1v-1h-4.03zM771.8972,257v1h4.029v-1v-1h-4.029zM779.9562,257v1h4.029v-1v-1h-4.029zM788.0152,257v1h4.029v-1v-1h-4.029zM796.0742,257v1h4.029v-1v-1h-4.029zM804.1322,257v1h4.03v-1v-1h-4.03zM812.1912,257v1h4.03v-1v-1h-4.03zM820.2502,257v1h4.029v-1v-1h-4.029zM828.3092,257v1h4.029v-1v-1h-4.029zM836.3682,257v1h4.029v-1v-1h-4.029zM844.4262,257v1h4.03v-1v-1h-4.03zM852.4852,257v1h2.015v-1v-1h-2.015zM855.2072,257.707c0.391,-0.39 0.391,-1.024 0,-1.414l-6.364,-6.364c-0.39,-0.391 -1.024,-0.391 -1.414,0c-0.391,0.39 -0.391,1.024 0,1.414l5.657,5.657l-5.657,5.657c-0.391,0.39 -0.391,1.024 0,1.414c0.39,0.391 1.024,0.391 1.414,0zM717.5002,257v1h2.015v-1v-1h-2.015zM723.5442,257v1h4.03v-1v-1h-4.03zM731.6032,257v1h4.029v-1v-1h-4.029zM739.6622,257v1h4.029v-1v-1h-4.029zM747.7212,257v1h4.029v-1v-1h-4.029zM755.7792,257v1h4.03v-1v-1h-4.03zM763.8382,257v1h4.03v-1v-1h-4.03zM771.8972,257v1h4.029v-1v-1h-4.029zM779.9562,257v1h4.029v-1v-1h-4.029zM788.0152,257v1h4.029v-1v-1h-4.029zM796.0742,257v1h4.029v-1v-1h-4.029zM804.1322,257v1h4.03v-1v-1h-4.03zM812.1912,257v1h4.03v-1v-1h-4.03zM820.2502,257v1h4.029v-1v-1h-4.029zM828.3092,257v1h4.029v-1v-1h-4.029zM836.3682,257v1h4.029v-1v-1h-4.029zM844.4262,257v1h4.03v-1v-1h-4.03zM852.4852,257v1h2.015v-1v-1h-2.015z" fill="#374151"/></g></g></g></g><defs><linearGradient id="paint0_linear_571_1885" x1="635.5002" y1="371.80499999999995" x2="635.5002" y2="138.35500000000002" gradientUnits="userSpaceOnUse">
<stop stop-color="#D9D9D9" stop-opacity="0"/>
<stop offset="0.985195" stop-color="#F3F3F3"/>
</linearGradient></defs></svg>