<svg viewBox="0 0 62 66" fill="none" xmlns="http://www.w3.org/2000/svg" x="0" y="0"><g id="Vector">
<path d="M55.299,29.406c-0.272,-9.831 -3.689,-15.321 -3.828,-15.533c-6.461,-10.589 -15.096,-13.349 -21.207,-13.803c-9.167,-0.675 -19.024,3.602 -25.092,10.898c-10.737,12.899 -2.219,31.569 2.825,36.489c4.124,4.009 3.579,9.745 3.579,9.803c-0.009,0.049 -0.013,0.098 -0.013,0.154v7.182c0,0.774 0.626,1.404 1.395,1.404h25.978c0.768,0 1.394,-0.63 1.394,-1.404v-6.571l5.729,-0.056c4.772,-0.04 8.651,-3.987 8.651,-8.791v-5.484l3.94,-0.111c0.041,0 0.086,0 0.12,-0.009c2.016,-0.237 2.791,-1.292 3.085,-2.142c0.321,-0.904 0.76,-4.429 -6.552,-12.028zM23.16,39.363c0,0.773 -0.622,1.403 -1.395,1.403c-0.775,0 -1.394,-0.63 -1.394,-1.403v-10.699l-3.386,-3.407c-0.447,0.139 -0.921,0.212 -1.417,0.212c-2.687,0 -4.87,-2.196 -4.87,-4.9c0,-2.704 2.183,-4.907 4.87,-4.907c2.686,0 4.875,2.196 4.875,4.907c0,1.174 -0.411,2.245 -1.101,3.096l3.413,3.426c0.26,0.262 0.402,0.617 0.402,0.99v11.284zM30.068,21.824v17.307c0,0.774 -0.621,1.404 -1.394,1.404c-0.775,0 -1.395,-0.63 -1.395,-1.404v-17.307c-2.007,-0.604 -3.474,-2.479 -3.474,-4.699c0,-2.704 2.182,-4.907 4.869,-4.907c2.687,0 4.875,2.205 4.875,4.907c0,2.22 -1.471,4.093 -3.481,4.699zM40.833,25.467c-0.488,0 -0.963,-0.071 -1.418,-0.212l-3.386,3.407v10.699c0,0.773 -0.621,1.403 -1.394,1.403c-0.775,0 -1.395,-0.63 -1.395,-1.403v-11.284c0,-0.373 0.147,-0.729 0.411,-0.99l3.405,-3.426c-0.684,-0.851 -1.097,-1.922 -1.097,-3.096c0,-2.711 2.182,-4.907 4.869,-4.907c2.687,0 4.876,2.196 4.876,4.907c0,2.71 -2.183,4.9 -4.876,4.9z" fill="currentColor"/>
<path d="M30.758,17.123c0,1.157 -0.934,2.098 -2.084,2.098c-1.15,0 -2.08,-0.941 -2.08,-2.098c0,-1.157 0.926,-2.097 2.08,-2.097c1.15,0 2.084,0.94 2.084,2.097z" fill="currentColor"/>
<path d="M42.919,20.563c0,1.152 -0.934,2.093 -2.084,2.093c-1.15,0 -2.08,-0.941 -2.08,-2.093c0,-1.153 0.935,-2.098 2.08,-2.098c1.146,0 2.084,0.941 2.084,2.098z" fill="currentColor"/>
<path d="M17.661,20.563c0,1.152 -0.935,2.093 -2.085,2.093c-1.149,0 -2.08,-0.941 -2.08,-2.093c0,-1.153 0.927,-2.098 2.08,-2.098c1.15,0 2.085,0.941 2.085,2.098z" fill="currentColor"/>
</g></svg>