<svg viewBox="0 0 11.1999 6.9912" fill="none" xmlns="http://www.w3.org/2000/svg" x="0" y="0"><path id="Vector_5" fill-rule="evenodd" clip-rule="evenodd" d="M7.2046,0.2063c0.132,-0.13 0.31,-0.21 0.495,-0.21c0.186,0 0.364,0.08 0.495,0.21l2.8,2.8c0.132,0.13 0.205,0.31 0.205,0.49c0,0.19 -0.073,0.37 -0.205,0.5l-2.8,2.8c-0.132,0.13 -0.309,0.2 -0.492,0.19c-0.184,0 -0.359,-0.07 -0.489,-0.2c-0.13,-0.13 -0.203,-0.31 -0.205,-0.49c-0.002,-0.18 0.069,-0.36 0.196,-0.49l1.606,-1.61h-8.111c-0.185,0 -0.363,-0.07 -0.495,-0.2c-0.131,-0.13 -0.205,-0.31 -0.205,-0.5c0,-0.18 0.074,-0.36 0.205,-0.49c0.132,-0.13 0.31,-0.21 0.495,-0.21h8.111l-1.606,-1.6c-0.131,-0.13 -0.204,-0.31 -0.204,-0.5c0,-0.18 0.073,-0.36 0.204,-0.49z" fill="currentColor"/></svg>