<svg viewBox="0 0 16 16" fill="none" xmlns="http://www.w3.org/2000/svg" xmlns:xlink="http://www.w3.org/1999/xlink" x="0" y="0"><g id="Vector">
<path d="M6.4,12.8c-1.266,0 -2.503,-0.375 -3.556,-1.079c-1.052,-0.703 -1.872,-1.702 -2.357,-2.872c-0.484,-1.169 -0.611,-2.456 -0.364,-3.698c0.247,-1.241 0.856,-2.381 1.752,-3.276c0.895,-0.896 2.035,-1.505 3.276,-1.752c1.242,-0.247 2.529,-0.12 3.698,0.364c1.17,0.485 2.169,1.305 2.873,2.357c0.703,1.053 1.078,2.29 1.078,3.556c-0.002,1.697 -0.677,3.324 -1.876,4.523c-1.2,1.2 -2.827,1.875 -4.524,1.877zM6.4,1.6c-0.949,0 -1.877,0.282 -2.667,0.809c-0.789,0.527 -1.404,1.277 -1.768,2.154c-0.363,0.877 -0.458,1.842 -0.273,2.773c0.185,0.932 0.643,1.787 1.314,2.458c0.671,0.671 1.527,1.129 2.458,1.314c0.931,0.185 1.896,0.09 2.773,-0.273c0.877,-0.364 1.627,-0.979 2.154,-1.768c0.528,-0.79 0.809,-1.718 0.809,-2.667c-0.001,-1.273 -0.507,-2.493 -1.407,-3.393c-0.9,-0.9 -2.12,-1.406 -3.393,-1.407z" fill="currentColor"/>
<path d="M15.2,16c-0.212,0 -0.415,-0.084 -0.565,-0.234l-3.2,-3.2c-0.146,-0.151 -0.227,-0.353 -0.225,-0.563c0.002,-0.21 0.086,-0.411 0.234,-0.559c0.149,-0.148 0.349,-0.232 0.559,-0.234c0.21,-0.002 0.412,0.079 0.563,0.224l3.2,3.2c0.112,0.112 0.188,0.255 0.219,0.41c0.03,0.155 0.015,0.316 -0.046,0.462c-0.06,0.146 -0.163,0.271 -0.294,0.359c-0.132,0.088 -0.287,0.135 -0.445,0.135z" fill="currentColor"/>
</g></svg>