<svg viewBox="0 0 41 38" fill="none" xmlns="http://www.w3.org/2000/svg" x="0" y="0"><path id="Vector_2" d="M20.499,0c-0.126,0 -0.247,0.051 -0.337,0.141c-0.091,0.092 -0.139,0.214 -0.139,0.343v3.472c0,0.128 0.05,0.251 0.139,0.343c0.09,0.091 0.21,0.141 0.337,0.141c0.126,0 0.247,-0.051 0.338,-0.141c0.09,-0.092 0.138,-0.214 0.138,-0.343v-3.472c0,-0.128 -0.05,-0.251 -0.138,-0.343c-0.091,-0.092 -0.211,-0.141 -0.338,-0.141zM20.499,5.203c-0.126,0 -0.247,0.051 -0.337,0.141c-0.091,0.092 -0.139,0.214 -0.139,0.343v6.386c0.001,0.265 0.216,0.479 0.476,0.479c0.262,0 0.475,-0.214 0.476,-0.479v-6.386c0,-0.128 -0.05,-0.251 -0.138,-0.343c-0.091,-0.092 -0.211,-0.141 -0.338,-0.141zM16.223,8.132c-0.038,0.002 -0.077,0.009 -0.111,0.022c-0.092,0.034 -0.166,0.105 -0.208,0.193c-0.04,0.089 -0.045,0.192 -0.011,0.285l1.351,3.754c0.072,0.192 0.282,0.291 0.471,0.22c0.189,-0.073 0.286,-0.285 0.216,-0.479l-1.352,-3.753c-0.054,-0.152 -0.2,-0.25 -0.357,-0.242zM11.836,8.17c-0.1,-0.012 -0.2,0.012 -0.287,0.061c-0.225,0.134 -0.303,0.43 -0.172,0.659l1.473,2.599c0.065,0.112 0.166,0.193 0.289,0.225c0.123,0.034 0.25,0.015 0.36,-0.048c0.223,-0.133 0.302,-0.424 0.175,-0.655l-1.477,-2.604c-0.075,-0.134 -0.211,-0.224 -0.361,-0.238zM29.165,8.17h-0.002c-0.15,0.015 -0.286,0.105 -0.36,0.239l-1.486,2.622c-0.131,0.228 -0.053,0.525 0.172,0.659c0.227,0.128 0.512,0.051 0.642,-0.178l1.493,-2.622c0.131,-0.229 0.053,-0.525 -0.175,-0.659c-0.086,-0.051 -0.187,-0.073 -0.287,-0.061zM24.715,8.208c-0.032,0.004 -0.063,0.013 -0.092,0.025c-0.09,0.037 -0.161,0.107 -0.2,0.199l-1.563,3.751c-0.039,0.091 -0.039,0.194 -0.001,0.286c0.037,0.091 0.105,0.166 0.197,0.205c0.184,0.075 0.397,-0.012 0.476,-0.199l1.562,-3.754c0.038,-0.092 0.038,-0.193 0.001,-0.285c-0.037,-0.093 -0.106,-0.166 -0.196,-0.205c-0.058,-0.025 -0.123,-0.032 -0.184,-0.025zM8.871,11.543c-0.075,0.011 -0.146,0.045 -0.203,0.097c-0.072,0.067 -0.113,0.162 -0.116,0.261c-0.004,0.098 0.033,0.194 0.1,0.267l3.266,3.523h-0.001c0.138,0.146 0.366,0.152 0.514,0.014c0.072,-0.067 0.112,-0.161 0.116,-0.26c0.005,-0.099 -0.033,-0.195 -0.1,-0.266l-3.263,-3.523c-0.08,-0.086 -0.196,-0.126 -0.312,-0.113zM27.18,11.749c-0.041,0 -0.084,0.006 -0.124,0.018c-0.12,0.033 -0.223,0.115 -0.286,0.225l-0.817,1.435h-0.001c-0.022,0.041 -0.039,0.086 -0.047,0.132c-0.002,0.006 -0.005,0.012 -0.006,0.018c-0.009,0.045 -0.012,0.088 -0.007,0.135c0,0.007 0.001,0.014 0.004,0.025c0.006,0.039 0.014,0.078 0.029,0.114c0.004,0.006 0.005,0.012 0.007,0.019c0.018,0.04 0.041,0.076 0.07,0.108c0.007,0.009 0.017,0.019 0.024,0.026c0.029,0.032 0.065,0.06 0.1,0.082c0.037,0.021 0.079,0.037 0.119,0.048c0.013,0.004 0.024,0.005 0.034,0.008c0.042,0.008 0.085,0.009 0.126,0.006c0.007,-0.001 0.013,-0.001 0.02,-0.004c0.044,-0.006 0.087,-0.018 0.13,-0.035c0,-0.002 0.002,-0.002 0.002,-0.002c0.041,-0.019 0.08,-0.045 0.113,-0.074c0.005,-0.006 0.011,-0.011 0.018,-0.017c0.033,-0.029 0.063,-0.067 0.085,-0.106l0.695,-1.227h0.001c0.007,-0.013 0.014,-0.028 0.021,-0.043l0.098,-0.171c0.128,-0.228 0.051,-0.521 -0.175,-0.653c-0.071,-0.042 -0.154,-0.065 -0.236,-0.067zM40.463,11.758v0.001c-0.063,0.008 -0.123,0.03 -0.176,0.062l-2.92,1.714c-0.109,0.064 -0.189,0.168 -0.221,0.293c-0.032,0.122 -0.015,0.255 0.05,0.367c0.13,0.228 0.42,0.308 0.647,0.174l2.92,-1.715h-0.001c0.227,-0.134 0.303,-0.428 0.174,-0.659c-0.063,-0.11 -0.164,-0.192 -0.286,-0.225c-0.063,-0.018 -0.124,-0.021 -0.187,-0.012zM0.532,11.761c-0.189,-0.025 -0.373,0.067 -0.469,0.234c-0.13,0.231 -0.053,0.525 0.175,0.659l3.197,1.879c0.11,0.066 0.24,0.082 0.362,0.047c0.123,-0.034 0.224,-0.115 0.287,-0.227c0.126,-0.231 0.047,-0.523 -0.179,-0.653l-3.197,-1.879c-0.054,-0.032 -0.113,-0.053 -0.176,-0.06zM13.894,11.88h0.001c-0.084,0.002 -0.166,0.025 -0.237,0.067c-0.228,0.132 -0.303,0.427 -0.175,0.659l0.74,1.302c0.064,0.111 0.168,0.192 0.288,0.226c0.123,0.031 0.254,0.014 0.361,-0.051c0.227,-0.134 0.303,-0.428 0.174,-0.659l-0.74,-1.303c-0.063,-0.11 -0.165,-0.191 -0.286,-0.225c-0.042,-0.011 -0.083,-0.017 -0.125,-0.017zM31.211,12.244h0.001c-0.099,0.001 -0.194,0.046 -0.26,0.12l-2.556,2.741c-0.137,0.151 -0.13,0.381 0.015,0.523c0.07,0.068 0.164,0.106 0.261,0.105c0.098,-0.002 0.191,-0.042 0.258,-0.115l2.557,-2.741c0.065,-0.072 0.103,-0.168 0.098,-0.267c-0.004,-0.099 -0.045,-0.192 -0.117,-0.26c-0.07,-0.067 -0.162,-0.106 -0.257,-0.105zM21.117,13.91c-4.496,0 -8.138,3.704 -8.137,8.274c-0.521,1.361 -3.087,2.847 -2.079,4.226l1.501,0.271l-0.256,1.759c-0.073,0.506 0.308,0.964 0.811,0.971l1.31,0.022c0.011,0 0.011,0.019 0,0.019l-1.316,0.125l-0.254,0.215c0.432,1.071 -0.07,1.369 0.024,1.916c0.197,1.143 1.186,2.086 2.33,2.086h0.603c0.482,0 0.959,-0.059 1.424,-0.168l-0.001,0.004l1.488,0.653l-0.224,0.753l1.773,2.964l11.108,-0.084l-4.13,-8.506c2.201,-1.211 2.271,-3.502 2.476,-7.775c0.004,-4.571 -3.956,-7.727 -8.451,-7.727zM4.862,14.301c-0.06,-0.009 -0.123,-0.006 -0.183,0.008c-0.123,0.034 -0.228,0.114 -0.291,0.226c-0.065,0.112 -0.08,0.244 -0.048,0.368c0.035,0.122 0.116,0.228 0.225,0.292l5.54,3.252h-0.002c0.11,0.064 0.24,0.081 0.361,0.048c0.123,-0.034 0.227,-0.113 0.288,-0.225c0.132,-0.232 0.053,-0.525 -0.174,-0.659l-5.544,-3.252c-0.053,-0.032 -0.113,-0.052 -0.175,-0.06zM35.724,14.542c-0.063,0.007 -0.123,0.028 -0.177,0.058l-5.128,3.012c-0.228,0.134 -0.306,0.428 -0.175,0.659c0.132,0.228 0.418,0.307 0.645,0.177l5.136,-3.01h-0.001c0.11,-0.066 0.189,-0.169 0.222,-0.294c0.033,-0.125 0.014,-0.254 -0.048,-0.366c-0.064,-0.108 -0.168,-0.188 -0.287,-0.22c-0.06,-0.017 -0.123,-0.022 -0.184,-0.014zM6.364,19.579c-0.157,0.019 -0.286,0.14 -0.316,0.298c-0.02,0.098 0,0.198 0.053,0.28c0.054,0.081 0.137,0.139 0.233,0.159l4.015,0.842c0.096,0.021 0.196,0 0.276,-0.054c0.083,-0.055 0.138,-0.141 0.158,-0.238c0.018,-0.097 0,-0.198 -0.053,-0.279c-0.055,-0.084 -0.138,-0.14 -0.233,-0.16l-4.019,-0.842c-0.038,-0.007 -0.077,-0.009 -0.115,-0.006zM36.419,19.613l-4.832,0.796c-0.197,0.034 -0.333,0.221 -0.303,0.425c0.017,0.097 0.07,0.185 0.149,0.241c0.079,0.058 0.177,0.08 0.274,0.066l4.827,-0.791c0.095,-0.018 0.181,-0.071 0.237,-0.151c0.057,-0.08 0.08,-0.181 0.064,-0.279c-0.031,-0.201 -0.217,-0.339 -0.416,-0.307zM3.075,23.508c-0.126,0 -0.247,0.052 -0.337,0.143c-0.09,0.089 -0.139,0.214 -0.139,0.344c0,0.126 0.052,0.25 0.139,0.34c0.09,0.091 0.21,0.141 0.337,0.141h2.806c0.124,0 0.246,-0.051 0.334,-0.141c0.091,-0.092 0.139,-0.214 0.139,-0.34c0,-0.128 -0.05,-0.253 -0.139,-0.344c-0.087,-0.091 -0.208,-0.143 -0.334,-0.143zM7.236,23.508c-0.125,0 -0.247,0.052 -0.337,0.143c-0.087,0.089 -0.137,0.214 -0.137,0.344c0,0.126 0.05,0.25 0.138,0.34c0.088,0.091 0.209,0.141 0.335,0.141h1.536c0.126,0 0.247,-0.051 0.337,-0.141c0.09,-0.092 0.139,-0.214 0.139,-0.34c0,-0.128 -0.05,-0.253 -0.139,-0.344c-0.09,-0.091 -0.21,-0.143 -0.337,-0.143zM32.225,23.508c-0.26,0.001 -0.47,0.219 -0.47,0.485c0,0.265 0.21,0.48 0.47,0.483h1.68c0.126,0 0.248,-0.051 0.338,-0.141c0.09,-0.089 0.141,-0.214 0.138,-0.34c0.002,-0.131 -0.05,-0.253 -0.137,-0.345c-0.09,-0.092 -0.212,-0.141 -0.339,-0.141zM34.976,23.508c-0.126,0 -0.247,0.052 -0.337,0.143c-0.09,0.089 -0.139,0.214 -0.139,0.344c0,0.126 0.052,0.25 0.139,0.34c0.09,0.091 0.21,0.141 0.337,0.141h2.953h-0.001c0.126,0 0.247,-0.051 0.337,-0.141c0.09,-0.089 0.142,-0.214 0.139,-0.34c0.001,-0.131 -0.05,-0.253 -0.137,-0.345c-0.09,-0.092 -0.212,-0.141 -0.339,-0.141zM31.82,26.492c-0.157,-0.004 -0.3,0.098 -0.353,0.247c-0.033,0.093 -0.027,0.195 0.014,0.285c0.04,0.092 0.116,0.16 0.208,0.192l4.215,1.522h0.002c0.091,0.035 0.191,0.029 0.28,-0.013c0.09,-0.041 0.157,-0.118 0.19,-0.212c0.033,-0.093 0.028,-0.195 -0.014,-0.285c-0.04,-0.089 -0.116,-0.159 -0.209,-0.192l-4.221,-1.522c-0.034,-0.013 -0.073,-0.02 -0.112,-0.022zM9.492,26.953l-4.169,0.358c-0.201,0.017 -0.352,0.197 -0.334,0.401c0.017,0.205 0.194,0.358 0.394,0.34l4.166,-0.359c0.201,-0.017 0.351,-0.195 0.334,-0.4c-0.017,-0.205 -0.191,-0.357 -0.393,-0.34zM10.284,29.474c-0.063,0.007 -0.123,0.027 -0.178,0.061l-4.528,2.66v-0.001c-0.228,0.134 -0.303,0.427 -0.175,0.658c0.065,0.112 0.169,0.192 0.289,0.226c0.123,0.033 0.253,0.014 0.361,-0.048l4.528,-2.659c0.11,-0.066 0.19,-0.169 0.222,-0.294c0.033,-0.122 0.017,-0.254 -0.047,-0.366c-0.063,-0.111 -0.165,-0.192 -0.286,-0.226c-0.06,-0.017 -0.125,-0.02 -0.188,-0.011zM30.715,29.477c-0.189,-0.025 -0.372,0.068 -0.469,0.234c-0.065,0.112 -0.08,0.241 -0.047,0.366c0.031,0.125 0.111,0.228 0.221,0.294l5.643,3.314l-0.002,-0.001c0.111,0.065 0.242,0.081 0.362,0.047c0.123,-0.034 0.225,-0.115 0.288,-0.227c0.126,-0.231 0.047,-0.524 -0.178,-0.653l-5.642,-3.315v-0.001c-0.055,-0.029 -0.113,-0.051 -0.176,-0.058zM3.96,33.187v-0.002c-0.063,0.008 -0.123,0.028 -0.177,0.06l-3.543,2.082c-0.111,0.065 -0.191,0.168 -0.222,0.293c-0.033,0.123 -0.017,0.255 0.047,0.367c0.132,0.227 0.418,0.305 0.645,0.174l3.551,-2.084v0.001c0.224,-0.134 0.303,-0.427 0.171,-0.659c-0.064,-0.11 -0.166,-0.19 -0.287,-0.221c-0.06,-0.017 -0.123,-0.021 -0.185,-0.014zM37.912,33.697c-0.19,-0.026 -0.378,0.071 -0.471,0.24c-0.128,0.231 -0.051,0.52 0.172,0.656l2.675,1.573v-0.002c0.228,0.134 0.517,0.055 0.648,-0.174c0.064,-0.112 0.08,-0.245 0.047,-0.367c-0.031,-0.125 -0.111,-0.228 -0.221,-0.293l-2.676,-1.573l0.002,0.001c-0.055,-0.032 -0.116,-0.052 -0.178,-0.059z" fill="currentColor"/></svg>