<svg width="28" height="28" viewBox="0 0 28 28" fill="none" xmlns="http://www.w3.org/2000/svg">
<path d="M24.0599 21.179C23.6828 22.05 23.2366 22.8518 22.7195 23.5889C22.0147 24.5938 21.4376 25.2894 20.9928 25.6757C20.3034 26.3097 19.5647 26.6344 18.7737 26.6529C18.2058 26.6529 17.521 26.4913 16.7239 26.1635C15.9241 25.8373 15.1891 25.6757 14.5171 25.6757C13.8123 25.6757 13.0563 25.8373 12.2478 26.1635C11.438 26.4913 10.7857 26.6621 10.2869 26.6791C9.52838 26.7114 8.77231 26.3774 8.01763 25.6757C7.53595 25.2556 6.93347 24.5353 6.21172 23.515C5.43734 22.4255 4.80069 21.162 4.30193 19.7216C3.76777 18.1658 3.5 16.6592 3.5 15.2006C3.5 13.5298 3.86103 12.0887 4.58416 10.8812C5.15248 9.91118 5.90855 9.14603 6.85483 8.58433C7.80111 8.02262 8.82356 7.73639 9.92465 7.71807C10.5271 7.71807 11.3172 7.90443 12.299 8.2707C13.2781 8.63819 13.9067 8.82455 14.1824 8.82455C14.3884 8.82455 15.0868 8.60664 16.2707 8.17221C17.3902 7.76932 18.3351 7.6025 19.1092 7.66821C21.2067 7.83749 22.7826 8.66435 23.8306 10.154C21.9546 11.2907 21.0267 12.8827 21.0451 14.925C21.0621 16.5157 21.6392 17.8395 22.7733 18.8906C23.2873 19.3784 23.8614 19.7555 24.5 20.0232C24.3615 20.4249 24.2153 20.8096 24.0599 21.179ZM19.2492 2.24877C19.2492 3.49561 18.7937 4.65978 17.8858 5.73733C16.79 7.01833 15.4647 7.75854 14.0275 7.64174C14.0092 7.49216 13.9986 7.33473 13.9986 7.16929C13.9986 5.97233 14.5197 4.69133 15.445 3.64395C15.907 3.11364 16.4946 2.67269 17.2071 2.32094C17.9181 1.97444 18.5906 1.78281 19.2231 1.75C19.2415 1.91668 19.2492 2.08338 19.2492 2.24875V2.24877Z" fill="white"/>
</svg>
