<svg width="8" height="8" viewBox="0 0 8 8" fill="none" xmlns="http://www.w3.org/2000/svg">
<g clip-path="url(#clip0_145_139)">
<path d="M2.86216 7.33317C2.7316 7.33379 2.60601 7.27246 2.51227 7.1623L0.150976 4.38482C0.103911 4.32912 0.0663576 4.26273 0.0404593 4.18944C0.014561 4.11615 0.000825151 4.03739 3.60896e-05 3.95766C-0.00155749 3.79665 0.0496806 3.64146 0.142479 3.52624C0.235276 3.41102 0.362033 3.34521 0.494862 3.34328C0.627692 3.34135 0.755714 3.40346 0.850766 3.51594L2.86416 5.88323L7.14888 0.839041C7.24406 0.726554 7.37221 0.664508 7.50513 0.666553C7.63806 0.668598 7.76487 0.734567 7.85766 0.849948C7.95046 0.965328 8.00165 1.12067 7.99996 1.2818C7.99827 1.44292 7.94385 1.59664 7.84867 1.70913L3.21206 7.1623C3.11831 7.27246 2.99273 7.33379 2.86216 7.33317Z" fill="#0E9F6E"/>
</g>
<defs>
<clipPath id="clip0_145_139">
<rect width="8" height="8" fill="white"/>
</clipPath>
</defs>
</svg>
