<svg width="12" height="12" viewBox="0 0 12 12" fill="none" xmlns="http://www.w3.org/2000/svg">
<path d="M1.67886 3.01226C1.96492 3.01232 2.23925 3.1175 2.4415 3.30468L5.99365 6.59106L9.5458 3.30468C9.64531 3.20936 9.76433 3.13333 9.89594 3.08102C10.0275 3.02872 10.1691 3.00119 10.3123 3.00004C10.4555 2.99889 10.5976 3.02414 10.7302 3.07432C10.8627 3.1245 10.9832 3.1986 11.0844 3.29231C11.1857 3.38601 11.2658 3.49744 11.3201 3.62009C11.3743 3.74274 11.4016 3.87415 11.4004 4.00666C11.3991 4.13918 11.3693 4.27013 11.3128 4.39189C11.2563 4.51365 11.1741 4.62377 11.0711 4.71584L6.75629 8.7078C6.554 8.8949 6.27968 9 5.99365 9C5.70762 9 5.43329 8.8949 5.23101 8.7078L0.916218 4.71584C0.765406 4.57626 0.662708 4.39846 0.621105 4.20489C0.579502 4.01133 0.600864 3.8107 0.682489 3.62837C0.764114 3.44604 0.902338 3.29019 1.07969 3.18052C1.25704 3.07086 1.46555 3.01231 1.67886 3.01226Z" fill="white"/>
</svg>
