<svg viewBox="0 0 9 5" fill="none" xmlns="http://www.w3.org/2000/svg" xmlns:xlink="http://www.w3.org/1999/xlink" x="0" y="0"><path id="Vector_2" d="M0.9,0.5c0.06,0 0.12,0.012 0.17,0.032c0.05,0.021 0.1,0.049 0.13,0.082v0.001l0.01,0.006l2.96,2.738l0.34,0.314l0.34,-0.314l2.96,-2.734c0.07,-0.064 0.18,-0.105 0.29,-0.104c0.12,0 0.23,0.044 0.3,0.11c0.07,0.065 0.1,0.145 0.1,0.219c0,0.073 -0.03,0.153 -0.1,0.218l-3.59,3.321c-0.07,0.067 -0.18,0.111 -0.3,0.111c-0.12,0 -0.22,-0.044 -0.3,-0.111l-3.6,-3.327v-0.005c-0.04,-0.033 -0.07,-0.07 -0.08,-0.108c-0.02,-0.038 -0.03,-0.077 -0.03,-0.115c0,-0.038 0.01,-0.077 0.02,-0.115c0.02,-0.038 0.05,-0.076 0.08,-0.109c0.04,-0.033 0.08,-0.061 0.14,-0.081c0.05,-0.019 0.11,-0.029 0.16,-0.029z" fill="currentColor" stroke="currentColor"/></svg>