<svg viewBox="0 0 12 12" fill="none" xmlns="http://www.w3.org/2000/svg" xmlns:xlink="http://www.w3.org/1999/xlink" x="0" y="0"><path id="Vector" d="M5.999,0.5c1.458,0.002 2.857,0.582 3.888,1.613c0.966,0.967 1.537,2.256 1.606,3.615l0.007,0.273c0,1.087 -0.323,2.15 -0.927,3.055c-0.604,0.904 -1.464,1.609 -2.469,2.025c-1.004,0.416 -2.11,0.526 -3.177,0.314c-1.067,-0.213 -2.047,-0.737 -2.816,-1.506c-0.769,-0.769 -1.293,-1.749 -1.506,-2.816c-0.212,-1.067 -0.102,-2.173 0.314,-3.177c0.416,-1.005 1.121,-1.865 2.025,-2.469c0.905,-0.604 1.968,-0.927 3.055,-0.927zM5.7,1.9c-0.371,0 -0.728,0.147 -0.99,0.41c-0.263,0.262 -0.41,0.619 -0.41,0.99c0,0.277 0.082,0.548 0.236,0.778c0.055,0.082 0.118,0.158 0.189,0.226c-0.264,0.018 -0.514,0.13 -0.703,0.318c-0.206,0.206 -0.322,0.487 -0.322,0.778c0,0.292 0.116,0.572 0.322,0.778c0.207,0.206 0.486,0.322 0.778,0.322h0.1v0.8h-0.1c-0.292,0 -0.571,0.116 -0.778,0.322c-0.206,0.206 -0.322,0.487 -0.322,0.778c0,0.292 0.116,0.572 0.322,0.778c0.207,0.206 0.486,0.322 0.778,0.322h2.4c0.292,0 0.571,-0.116 0.778,-0.322c0.206,-0.206 0.322,-0.486 0.322,-0.778c0,-0.291 -0.116,-0.572 -0.322,-0.778c-0.207,-0.206 -0.486,-0.322 -0.778,-0.322h-0.1v-1.9c0,-0.291 -0.116,-0.572 -0.323,-0.778c-0.076,-0.076 -0.162,-0.14 -0.256,-0.19c0.06,-0.043 0.117,-0.09 0.169,-0.142c0.196,-0.196 0.329,-0.445 0.383,-0.717c0.054,-0.271 0.026,-0.553 -0.08,-0.808c-0.106,-0.256 -0.285,-0.475 -0.515,-0.629c-0.231,-0.154 -0.501,-0.236 -0.778,-0.236z" fill="currentColor" stroke="currentColor"/></svg>