<svg viewBox="0 0 21 24.9312" fill="none" xmlns="http://www.w3.org/2000/svg" xmlns:xlink="http://www.w3.org/1999/xlink" x="0" y="0"><path id="path4" d="M20.56,19.429c-0.377,0.871 -0.823,1.673 -1.341,2.41c-0.704,1.005 -1.281,1.7 -1.726,2.087c-0.69,0.634 -1.428,0.958 -2.219,0.977c-0.568,0 -1.253,-0.162 -2.05,-0.489c-0.8,-0.327 -1.535,-0.488 -2.207,-0.488c-0.705,0 -1.461,0.161 -2.269,0.488c-0.81,0.327 -1.462,0.498 -1.961,0.515c-0.759,0.032 -1.515,-0.302 -2.269,-1.003c-0.482,-0.42 -1.085,-1.141 -1.806,-2.161c-0.775,-1.09 -1.411,-2.353 -1.91,-3.793c-0.534,-1.556 -0.802,-3.063 -0.802,-4.521c0,-1.671 0.361,-3.112 1.084,-4.32c0.568,-0.97 1.325,-1.735 2.271,-2.297c0.946,-0.561 1.969,-0.848 3.07,-0.866c0.602,0 1.392,0.186 2.374,0.553c0.979,0.367 1.608,0.554 1.883,0.554c0.206,0 0.905,-0.218 2.089,-0.653c1.119,-0.403 2.064,-0.57 2.838,-0.504c2.098,0.169 3.674,0.996 4.722,2.486c-1.876,1.137 -2.804,2.729 -2.786,4.771c0.017,1.591 0.594,2.915 1.728,3.966c0.514,0.487 1.088,0.864 1.727,1.132c-0.139,0.402 -0.285,0.787 -0.44,1.156zM15.749,0.499c0,1.247 -0.455,2.411 -1.363,3.488c-1.096,1.281 -2.421,2.022 -3.858,1.905c-0.019,-0.15 -0.029,-0.307 -0.029,-0.473c0,-1.197 0.521,-2.478 1.446,-3.525c0.462,-0.53 1.05,-0.971 1.762,-1.323c0.711,-0.347 1.384,-0.538 2.016,-0.571c0.019,0.167 0.026,0.333 0.026,0.499z" fill="currentColor"/></svg>