<svg viewBox="0 0 8 6.6667" fill="none" xmlns="http://www.w3.org/2000/svg" xmlns:xlink="http://www.w3.org/1999/xlink" x="0" y="0"><path id="Vector" d="M2.862,6.6664c-0.13,0.001 -0.256,-0.06 -0.35,-0.171l-2.361,-2.777c-0.047,-0.056 -0.085,-0.122 -0.111,-0.195c-0.025,-0.074 -0.039,-0.152 -0.04,-0.232c-0.002,-0.161 0.05,-0.316 0.142,-0.432c0.093,-0.115 0.22,-0.181 0.353,-0.183c0.133,-0.002 0.261,0.061 0.356,0.173l2.013,2.367l4.285,-5.044c0.095,-0.112 0.223,-0.174 0.356,-0.172c0.133,0.002 0.26,0.068 0.353,0.183c0.092,0.115 0.144,0.271 0.142,0.432c-0.002,0.161 -0.056,0.315 -0.151,0.427l-4.637,5.453c-0.094,0.111 -0.219,0.172 -0.35,0.171z" fill="currentColor"/></svg>